<?xml version="1.0" encoding="UTF-8" standalone="no"?>
<!-- Created with Inkscape (http://www.inkscape.org/) -->

<svg
   width="800"
   height="250"
   viewBox="0 0 211.66666 66.145835"
   version="1.1"
   id="svg5"
   inkscape:version="1.1.2 (1:1.1+202202050950+0a00cf5339)"
   sodipodi:docname="clouds.svg"
   xmlns:inkscape="http://www.inkscape.org/namespaces/inkscape"
   xmlns:sodipodi="http://sodipodi.sourceforge.net/DTD/sodipodi-0.dtd"
   xmlns="http://www.w3.org/2000/svg"
   xmlns:svg="http://www.w3.org/2000/svg">
  <sodipodi:namedview
     id="namedview7"
     pagecolor="#505050"
     bordercolor="#ffffff"
     borderopacity="1"
     inkscape:pageshadow="0"
     inkscape:pageopacity="0"
     inkscape:pagecheckerboard="1"
     inkscape:document-units="px"
     showgrid="false"
     units="px"
     inkscape:zoom="0.77985109"
     inkscape:cx="546.89928"
     inkscape:cy="170.54538"
     inkscape:window-width="1600"
     inkscape:window-height="875"
     inkscape:window-x="0"
     inkscape:window-y="0"
     inkscape:window-maximized="1"
     inkscape:current-layer="layer1" />
  <defs
     id="defs2" />
  <g
     inkscape:label="Layer 1"
     inkscape:groupmode="layer"
     id="layer1">
    <path
       style="fill:#00ffff;stroke-width:0.0813523;opacity:0.3"
       d="m 181.26252,18.461898 c -0.48148,-0.09135 -1.21953,-0.495552 -1.55701,-0.852714 -0.17332,-0.183432 -0.42137,-0.570763 -0.55121,-0.860741 -0.19895,-0.444296 -0.23645,-0.634765 -0.23837,-1.210905 -0.002,-0.638226 0.0177,-0.71935 0.29698,-1.220286 0.356,-0.638331 0.63454,-0.918116 1.27998,-1.285692 0.41725,-0.237615 0.57948,-0.280385 1.22418,-0.322733 l 0.74319,-0.04882 -0.0383,-0.253207 c -0.021,-0.139261 -0.0411,-0.564377 -0.0446,-0.9447 -0.005,-0.609099 0.0218,-0.747066 0.22998,-1.157851 0.33748,-0.6660177 0.84716,-1.1616407 1.53221,-1.4899427 0.56195,-0.26931 0.61136,-0.278263 1.38792,-0.251534 0.54155,0.01863 0.82634,0.06187 0.86971,0.132038 0.0435,0.07051 0.0822,0.02374 0.11907,-0.144297 0.0536,-0.244009 0.50879,-1.007816 0.63238,-1.061123 0.0346,-0.01492 0.0628,-0.06133 0.0628,-0.103127 0,-0.2733651 1.08189,-0.9897079 1.74908,-1.1581048 0.41544,-0.1048584 1.43598,-0.087495 1.81959,0.030957 0.38538,0.118995 0.98706,0.426675 0.98706,0.5047423 0,0.033632 0.0468,0.061152 0.10396,0.061152 0.0571,0 0.16663,0.073219 0.24325,0.1627059 0.19524,0.228013 0.49599,0.2025325 0.80923,-0.068553 1.51401,-1.3102494 3.94519,-1.4016707 5.73344,-0.2156034 0.55824,0.3702628 1.23362,1.098514 1.47066,1.585798 0.0544,0.111859 0.13321,0.258294 0.17512,0.325409 0.23201,0.371628 0.40588,0.922273 0.45487,1.4406147 0.0305,0.322528 0.0976,0.619489 0.14919,0.659918 0.0516,0.04043 0.26926,0.09638 0.48373,0.124346 1.27072,0.165679 2.46945,1.058173 3.03641,2.260714 0.23236,0.492853 0.36303,1.677558 0.25086,2.274355 -0.0921,0.49026 -0.41406,1.232738 -0.60217,1.388855 -0.0674,0.05598 -0.153,0.181643 -0.19012,0.279254 -0.0886,0.23296 -0.89584,0.848731 -1.46465,1.117218 -0.24796,0.117036 -0.7203,0.251011 -1.04965,0.29772 -0.67181,0.09528 -19.60802,0.09917 -20.10894,0.0042 z"
       id="path1580" />
    <path
       style="fill:#00ffff;stroke-width:0.0813523;opacity:0.3"
       d="m 3.739874,13.940335 c -0.48148,-0.09135 -1.21953,-0.495552 -1.55701,-0.852714 -0.17332,-0.183432 -0.42137,-0.570763 -0.55121,-0.860741 -0.19895,-0.444296 -0.23645,-0.634764 -0.23837,-1.210905 -0.002,-0.638226 0.0177,-0.71935 0.29698,-1.2202857 0.356,-0.638331 0.63454,-0.918116 1.27998,-1.285691 0.41724,-0.237616 0.57948,-0.280385 1.22418,-0.322734 l 0.74319,-0.04882 -0.0383,-0.253207 c -0.021,-0.139261 -0.0411,-0.564377 -0.0446,-0.9447 -0.005,-0.609099 0.0218,-0.747066 0.22999,-1.157849 0.33748,-0.666019 0.84716,-1.161642 1.53221,-1.489944 0.56195,-0.269309 0.61136,-0.278263 1.38792,-0.251534 0.54154,0.01863 0.82634,0.06187 0.86971,0.132038 0.0435,0.07051 0.0821,0.02374 0.11907,-0.144297 0.0536,-0.244008 0.50879,-1.007816 0.63238,-1.061123 0.0346,-0.01491 0.0629,-0.06133 0.0629,-0.103127 0,-0.273365 1.08189,-0.989708 1.74908,-1.158105 0.41544,-0.104858 1.43598,-0.08749 1.81959,0.03096 0.38538,0.118995 0.98706,0.426675 0.98706,0.504742 0,0.03363 0.0468,0.06115 0.10395,0.06115 0.0571,0 0.16664,0.07322 0.24326,0.162706 0.19524,0.228013 0.49599,0.202533 0.80923,-0.06855 1.51401,-1.31025 3.94519,-1.40167102 5.73344,-0.215604 0.55824,0.370263 1.23362,1.098514 1.47066,1.585798 0.0544,0.111859 0.13321,0.258294 0.17512,0.325409 0.23201,0.371628 0.40588,0.922274 0.45487,1.440616 0.0305,0.322527 0.0976,0.619488 0.14919,0.659916 0.0516,0.04043 0.26926,0.09639 0.48373,0.124346 1.27072,0.165679 2.46945,1.058173 3.03641,2.260714 0.23236,0.492853 0.36303,1.6775577 0.25086,2.2743547 -0.0921,0.490261 -0.41406,1.232738 -0.60217,1.388855 -0.0674,0.05598 -0.153,0.181643 -0.19012,0.279254 -0.0886,0.23296 -0.89584,0.848732 -1.46465,1.117218 -0.24796,0.117036 -0.7203,0.251011 -1.04965,0.29772 -0.67181,0.09528 -19.60802,0.09918 -20.10894,0.0042 z"
       id="path1580-3" />
    <path
       style="fill:#00ffff;stroke-width:0.0813523;opacity:0.3"
       d="m 172.62682,41.883596 c -0.48148,-0.09135 -1.21953,-0.495552 -1.55701,-0.852713 -0.17332,-0.183432 -0.42137,-0.570763 -0.55121,-0.860742 -0.19895,-0.444296 -0.23645,-0.634764 -0.23837,-1.210904 -0.002,-0.638226 0.0177,-0.71935 0.29698,-1.220286 0.356,-0.638331 0.63454,-0.918116 1.27998,-1.285692 0.41725,-0.237615 0.57948,-0.280385 1.22418,-0.322733 l 0.74319,-0.04882 -0.0383,-0.253207 c -0.021,-0.139262 -0.0411,-0.564377 -0.0446,-0.9447 -0.005,-0.6091 0.0218,-0.747066 0.22998,-1.157851 0.33748,-0.666019 0.84716,-1.161641 1.53221,-1.489943 0.56195,-0.26931 0.61136,-0.278263 1.38792,-0.251535 0.54155,0.01863 0.82634,0.06187 0.86971,0.132039 0.0435,0.07051 0.0822,0.02374 0.11907,-0.144298 0.0536,-0.244008 0.50879,-1.007815 0.63238,-1.061122 0.0346,-0.01492 0.0628,-0.06133 0.0628,-0.103127 0,-0.273365 1.08189,-0.989708 1.74908,-1.158105 0.41544,-0.104858 1.43598,-0.0875 1.81959,0.03096 0.38538,0.118995 0.98706,0.426675 0.98706,0.504742 0,0.03363 0.0468,0.06115 0.10396,0.06115 0.0571,0 0.16663,0.07322 0.24325,0.162706 0.19524,0.228013 0.49599,0.202532 0.80923,-0.06855 1.51401,-1.310249 3.94519,-1.40167 5.73344,-0.215603 0.55824,0.370263 1.23361,1.098514 1.47065,1.585798 0.0544,0.111859 0.13321,0.258294 0.17512,0.325409 0.23201,0.371628 0.40589,0.922273 0.45487,1.440615 0.0305,0.322528 0.0976,0.619489 0.1492,0.659918 0.0516,0.04043 0.26925,0.09638 0.48372,0.124346 1.27072,0.165678 2.46945,1.058173 3.03641,2.260714 0.23236,0.492853 0.36303,1.677558 0.25087,2.274355 -0.0922,0.49026 -0.41407,1.232738 -0.60218,1.388855 -0.0674,0.05598 -0.153,0.181643 -0.19011,0.279254 -0.0886,0.23296 -0.89585,0.848731 -1.46466,1.117217 -0.24796,0.117036 -0.7203,0.251012 -1.04965,0.297721 -0.67181,0.09528 -19.60801,0.09918 -20.10893,0.0042 z"
       id="path1580-6" />
    <path
       style="fill:#00ffff;stroke-width:0.0813523;opacity:0.3"
       d="m 103.2015,59.202156 c -0.48148,-0.09135 -1.21953,-0.495552 -1.55701,-0.852713 -0.17332,-0.183432 -0.42137,-0.570763 -0.55121,-0.860742 -0.19895,-0.444295 -0.23645,-0.634764 -0.23837,-1.210904 -0.002,-0.638226 0.0177,-0.71935 0.29698,-1.220286 0.356,-0.638331 0.63454,-0.918116 1.27998,-1.285692 0.41725,-0.237615 0.57948,-0.280385 1.22418,-0.322733 l 0.74319,-0.04882 -0.0383,-0.253207 c -0.021,-0.139261 -0.0411,-0.564377 -0.0446,-0.9447 -0.005,-0.6091 0.0218,-0.747066 0.22998,-1.15785 0.33748,-0.666019 0.84716,-1.161641 1.53221,-1.489943 0.56195,-0.26931 0.61136,-0.278264 1.38792,-0.251535 0.54155,0.01863 0.82634,0.06187 0.86971,0.132039 0.0435,0.07051 0.0821,0.02374 0.11907,-0.144298 0.0536,-0.244008 0.50879,-1.007815 0.63238,-1.061122 0.0346,-0.01492 0.0628,-0.06133 0.0628,-0.103127 0,-0.273365 1.08189,-0.989708 1.74908,-1.158105 0.41544,-0.104858 1.43599,-0.0875 1.8196,0.03096 0.38537,0.118995 0.98706,0.426675 0.98706,0.504742 0,0.03363 0.0467,0.06115 0.10395,0.06115 0.0571,0 0.16663,0.07322 0.24325,0.162706 0.19524,0.228013 0.49599,0.202532 0.80923,-0.06855 1.51401,-1.310249 3.94519,-1.40167 5.73344,-0.215603 0.55824,0.370263 1.23362,1.098514 1.47066,1.585798 0.0544,0.111859 0.13321,0.258294 0.17512,0.325409 0.23201,0.371628 0.40588,0.922273 0.45487,1.440615 0.0305,0.322528 0.0976,0.619489 0.1492,0.659917 0.0516,0.04043 0.26925,0.09638 0.48372,0.124346 1.27072,0.165678 2.46945,1.058173 3.03641,2.260714 0.23236,0.492853 0.36303,1.677558 0.25087,2.274355 -0.0922,0.49026 -0.41407,1.232738 -0.60218,1.388855 -0.0674,0.05597 -0.153,0.181643 -0.19011,0.279254 -0.0886,0.23296 -0.89585,0.848731 -1.46466,1.117217 -0.24796,0.117036 -0.7203,0.251012 -1.04965,0.297721 -0.67181,0.09528 -19.60802,0.09918 -20.10894,0.0042 z"
       id="path1580-3-7" />
    <path
       style="fill:#00ffff;stroke-width:0.0813523;opacity:0.3"
       d="m 34.780975,27.343177 c -0.48148,-0.09135 -1.21953,-0.495552 -1.557,-0.852713 -0.17332,-0.183433 -0.42137,-0.570763 -0.55122,-0.860742 -0.19895,-0.444296 -0.23644,-0.634764 -0.23836,-1.210904 -0.002,-0.638226 0.0177,-0.71935 0.29698,-1.220286 0.35599,-0.638331 0.63453,-0.918116 1.27998,-1.285692 0.41724,-0.237615 0.57948,-0.280385 1.22418,-0.322733 l 0.74319,-0.04882 -0.0383,-0.253207 c -0.021,-0.139262 -0.0411,-0.564378 -0.0446,-0.9447 -0.005,-0.6091 0.0218,-0.747066 0.22999,-1.157851 0.33747,-0.666019 0.84715,-1.161641 1.5322,-1.489943 0.56195,-0.26931 0.61136,-0.278264 1.38792,-0.251535 0.54155,0.01863 0.82634,0.06187 0.86971,0.132038 0.0435,0.07051 0.0822,0.02374 0.11908,-0.144297 0.0536,-0.244008 0.50878,-1.007815 0.63238,-1.061122 0.0346,-0.01492 0.0629,-0.06132 0.0629,-0.103127 0,-0.273365 1.08188,-0.989708 1.74907,-1.158105 0.41544,-0.104858 1.436,-0.08749 1.8196,0.03096 0.38537,0.118995 0.98706,0.426675 0.98706,0.504742 0,0.03363 0.0468,0.06115 0.10395,0.06115 0.0571,0 0.16664,0.07322 0.24327,0.162706 0.19522,0.228013 0.49597,0.202532 0.80922,-0.06855 1.51401,-1.310249 3.94518,-1.40167 5.73343,-0.215603 0.55824,0.370263 1.23362,1.098514 1.47067,1.585798 0.0544,0.111859 0.13321,0.258294 0.17511,0.325409 0.23202,0.371628 0.40589,0.922273 0.45488,1.440615 0.0305,0.322528 0.0976,0.619489 0.14919,0.659918 0.0516,0.04043 0.26925,0.09638 0.48373,0.124346 1.27072,0.165678 2.46944,1.058173 3.03641,2.260714 0.23235,0.492853 0.36303,1.677558 0.25087,2.274355 -0.0922,0.49026 -0.41407,1.232738 -0.60218,1.388855 -0.0674,0.05598 -0.153,0.181643 -0.19011,0.279253 -0.0886,0.232961 -0.89585,0.848732 -1.46466,1.117218 -0.24796,0.117036 -0.7203,0.251012 -1.04965,0.297721 -0.67181,0.09528 -19.60802,0.09918 -20.10894,0.0042 z"
       id="path1580-5" />
    <path
       style="fill:#00ffff;stroke-width:0.0813523;opacity:0.3"
       d="m 111.45051,19.787944 c -0.48148,-0.09135 -1.21953,-0.495552 -1.55701,-0.852714 -0.17332,-0.183432 -0.42137,-0.570762 -0.55121,-0.860741 -0.19895,-0.444296 -0.23645,-0.634764 -0.23837,-1.210905 -0.002,-0.638226 0.0177,-0.71935 0.29698,-1.220286 0.356,-0.63833 0.63454,-0.918116 1.27998,-1.285691 0.41725,-0.237615 0.57948,-0.280385 1.22418,-0.322734 l 0.74319,-0.04882 -0.0383,-0.253206 c -0.021,-0.139262 -0.0411,-0.564378 -0.0446,-0.944701 -0.005,-0.609099 0.0218,-0.747066 0.22998,-1.15785 0.33748,-0.666019 0.84716,-1.161641 1.53221,-1.489944 0.56195,-0.2693088 0.61136,-0.2782628 1.38792,-0.2515338 0.54155,0.01863 0.82634,0.06187 0.86971,0.1320378 0.0435,0.07051 0.0821,0.02374 0.11907,-0.1442968 0.0536,-0.244008 0.50879,-1.007815 0.63238,-1.061122 0.0346,-0.01492 0.0628,-0.06133 0.0628,-0.103127 0,-0.273366 1.08189,-0.989708 1.74908,-1.158105 0.41544,-0.104859 1.43599,-0.08749 1.81959,0.03096 0.38538,0.118995 0.98706,0.426675 0.98706,0.504743 0,0.03363 0.0468,0.06115 0.10396,0.06115 0.0571,0 0.16663,0.07322 0.24326,0.162705 0.19523,0.228013 0.49598,0.202533 0.80922,-0.06855 1.51401,-1.310249 3.94519,-1.401671 5.73344,-0.215603 0.55824,0.370262 1.23362,1.098513 1.47066,1.585798 0.0544,0.111859 0.13321,0.258293 0.17512,0.325409 0.23201,0.3716278 0.40588,0.9222728 0.45487,1.4406148 0.0305,0.322527 0.0976,0.619488 0.14919,0.659917 0.0516,0.04043 0.26926,0.09638 0.48374,0.124346 1.27072,0.165679 2.46944,1.058173 3.03641,2.260715 0.23235,0.492853 0.36303,1.677557 0.25086,2.274354 -0.0921,0.490261 -0.41406,1.232738 -0.60217,1.388856 -0.0674,0.05597 -0.15301,0.181642 -0.19012,0.279253 -0.0886,0.232961 -0.89584,0.848732 -1.46465,1.117218 -0.24796,0.117036 -0.7203,0.251012 -1.04965,0.29772 -0.67182,0.09528 -19.60802,0.09918 -20.10894,0.0042 z"
       id="path1580-56" />
    <path
       style="fill:#00ffff;stroke-width:0.0813523;opacity:0.3"
       d="m 19.471532,43.420096 c -0.48147,-0.09135 -1.21953,-0.495552 -1.557,-0.852713 -0.17332,-0.183432 -0.42137,-0.570763 -0.55122,-0.860742 -0.19894,-0.444296 -0.23645,-0.634764 -0.23837,-1.210904 -0.002,-0.638226 0.0177,-0.71935 0.29699,-1.220286 0.35599,-0.638331 0.63454,-0.918116 1.27997,-1.285692 0.41725,-0.237615 0.57948,-0.280385 1.22418,-0.322733 l 0.74319,-0.04882 -0.0383,-0.253207 c -0.021,-0.139262 -0.0411,-0.564377 -0.0446,-0.9447 -0.005,-0.6091 0.0218,-0.747066 0.22998,-1.15785 0.33748,-0.666019 0.84716,-1.161641 1.53221,-1.489943 0.56195,-0.26931 0.61136,-0.278264 1.38792,-0.251535 0.54155,0.01863 0.82635,0.06187 0.86971,0.132038 0.0435,0.07051 0.0821,0.02374 0.11907,-0.144297 0.0536,-0.244008 0.50879,-1.007815 0.63239,-1.061122 0.0346,-0.01492 0.0628,-0.06133 0.0628,-0.103127 0,-0.273365 1.0819,-0.989708 1.74909,-1.158105 0.41543,-0.104858 1.43598,-0.0875 1.81959,0.03096 0.38538,0.118995 0.98706,0.426675 0.98706,0.504742 0,0.03363 0.0468,0.06115 0.10395,0.06115 0.0571,0 0.16664,0.07322 0.24326,0.162706 0.19524,0.228013 0.49598,0.202532 0.80923,-0.06855 1.51401,-1.310249 3.94518,-1.40167 5.73343,-0.215603 0.55824,0.370263 1.23362,1.098514 1.47066,1.585798 0.0544,0.111859 0.13321,0.258293 0.17512,0.325409 0.23201,0.371628 0.40589,0.922273 0.45488,1.440615 0.0305,0.322527 0.0976,0.619489 0.14918,0.659917 0.0516,0.04043 0.26926,0.09638 0.48374,0.124346 1.27072,0.165678 2.46944,1.058173 3.03641,2.260714 0.23234,0.492853 0.36303,1.677558 0.25086,2.274355 -0.0921,0.49026 -0.41406,1.232738 -0.60218,1.388855 -0.0674,0.05598 -0.153,0.181643 -0.19011,0.279254 -0.0886,0.23296 -0.89584,0.848731 -1.46466,1.117217 -0.24795,0.117036 -0.72029,0.251012 -1.04964,0.297721 -0.67182,0.09528 -19.60802,0.09918 -20.10894,0.0042 z"
       id="path1580-3-2" />
    <path
       style="fill:#00ffff;stroke-width:0.0813523;opacity:0.3"
       d="m 88.644999,51.655983 c -0.48148,-0.09135 -1.21953,-0.495552 -1.557,-0.852714 -0.17332,-0.183432 -0.42138,-0.570762 -0.55122,-0.860741 -0.19895,-0.444296 -0.23644,-0.634764 -0.23837,-1.210904 -0.002,-0.638227 0.0177,-0.719351 0.29699,-1.220286 0.35599,-0.638331 0.63453,-0.918116 1.27998,-1.285692 0.41724,-0.237615 0.57948,-0.280385 1.22418,-0.322734 l 0.74318,-0.04881 -0.0383,-0.253207 c -0.021,-0.139262 -0.0411,-0.564378 -0.0446,-0.944701 -0.005,-0.609099 0.0218,-0.747065 0.22998,-1.157849 0.33748,-0.666019 0.84716,-1.161641 1.53221,-1.489944 0.56195,-0.269309 0.61136,-0.278263 1.38792,-0.251534 0.54156,0.01863 0.82635,0.06187 0.86971,0.132038 0.0435,0.07051 0.0821,0.02374 0.11909,-0.144297 0.0536,-0.244008 0.50877,-1.007815 0.63238,-1.061122 0.0346,-0.01492 0.0629,-0.06133 0.0629,-0.103127 0,-0.273366 1.08188,-0.989708 1.74906,-1.158105 0.41545,-0.104859 1.43599,-0.08749 1.8196,0.03096 0.38538,0.118995 0.98706,0.426675 0.98706,0.504743 0,0.03363 0.0468,0.06115 0.10395,0.06115 0.0571,0 0.16664,0.07322 0.24326,0.162705 0.19524,0.228013 0.49598,0.202533 0.809231,-0.06855 1.51401,-1.310249 3.94518,-1.401671 5.73343,-0.215603 0.55825,0.370262 1.23363,1.098513 1.47067,1.585798 0.0544,0.111859 0.13321,0.258293 0.17512,0.325409 0.23201,0.371628 0.40588,0.922273 0.45487,1.440615 0.0305,0.322527 0.0976,0.619488 0.14919,0.659917 0.0516,0.04043 0.26925,0.09638 0.48373,0.124345 1.27072,0.165679 2.46944,1.058173 3.0364,2.260715 0.23236,0.492853 0.36305,1.677557 0.25088,2.274355 -0.0921,0.49026 -0.41407,1.232737 -0.60218,1.388855 -0.0674,0.05597 -0.153,0.181642 -0.19011,0.279253 -0.0886,0.232961 -0.89584,0.848732 -1.46466,1.117218 -0.24796,0.117036 -0.7203,0.251012 -1.04965,0.29772 -0.67181,0.09528 -19.608021,0.09918 -20.108941,0.0042 z"
       id="path1580-3-7-7" />
    <path
       style="fill:#00ffff;stroke-width:0.0504872;opacity:0.3"
       d="m 148.98154,39.648228 c -0.29881,-0.0567 -0.75684,-0.30754 -0.96628,-0.5292 -0.10756,-0.11384 -0.2615,-0.35421 -0.34208,-0.53418 -0.12347,-0.27573 -0.14674,-0.39393 -0.14793,-0.75148 -0.001,-0.39608 0.011,-0.44643 0.1843,-0.75731 0.22093,-0.39615 0.3938,-0.56978 0.79436,-0.7979 0.25894,-0.14746 0.35962,-0.17401 0.75972,-0.20029 l 0.46123,-0.0303 -0.0238,-0.15714 c -0.013,-0.0864 -0.0255,-0.35026 -0.0277,-0.58628 -0.003,-0.37801 0.0135,-0.46363 0.14273,-0.71857 0.20944,-0.41333 0.52575,-0.72091 0.95089,-0.92465 0.34874,-0.16714 0.37941,-0.17269 0.86134,-0.15611 0.33608,0.0116 0.51283,0.0384 0.53974,0.0819 0.027,0.0438 0.051,0.0147 0.0739,-0.0896 0.0333,-0.15143 0.31575,-0.62545 0.39245,-0.65854 0.0215,-0.009 0.039,-0.0381 0.039,-0.064 0,-0.16965 0.67142,-0.61421 1.08547,-0.718715 0.25783,-0.06507 0.89118,-0.0543 1.12924,0.01921 0.23917,0.07385 0.61257,0.264795 0.61257,0.313245 0,0.0209 0.029,0.0379 0.0645,0.0379 0.0355,0 0.10342,0.0454 0.15097,0.10098 0.12116,0.1415 0.30781,0.12569 0.50221,-0.0425 0.93959,-0.813141 2.44838,-0.869876 3.55816,-0.1338 0.34645,0.22978 0.76559,0.68174 0.9127,0.98414 0.0337,0.0694 0.0827,0.1603 0.10868,0.20195 0.14398,0.23063 0.25189,0.57236 0.28229,0.89405 0.0189,0.20016 0.0606,0.38445 0.0926,0.40954 0.032,0.0251 0.1671,0.0598 0.3002,0.0772 0.7886,0.10282 1.53253,0.6567 1.88439,1.403 0.1442,0.30586 0.2253,1.04109 0.15569,1.41146 -0.0572,0.30426 -0.25697,0.76504 -0.37371,0.86192 -0.0419,0.0347 -0.095,0.11273 -0.11799,0.17331 -0.055,0.14457 -0.55596,0.52672 -0.90896,0.69334 -0.15388,0.0726 -0.44702,0.15578 -0.65141,0.18477 -0.41693,0.0591 -12.16873,0.0615 -12.4796,0.003 z"
       id="path1580-0" />
    <path
       style="fill:#00ffff;stroke-width:0.0504872;opacity:0.3"
       d="m 96.846531,29.802433 c -0.29881,-0.0567 -0.75684,-0.30755 -0.96628,-0.5292 -0.10756,-0.11384 -0.2615,-0.35421 -0.34208,-0.53418 -0.12347,-0.27573 -0.14674,-0.39393 -0.14793,-0.75148 -0.001,-0.39608 0.011,-0.44643 0.1843,-0.75731 0.22093,-0.39615 0.3938,-0.56978 0.79436,-0.7979 0.25894,-0.14746 0.35962,-0.17401 0.75972,-0.20029 l 0.46123,-0.0303 -0.0238,-0.15714 c -0.0131,-0.0864 -0.0255,-0.35025 -0.0277,-0.58628 -0.003,-0.37801 0.0135,-0.46363 0.14273,-0.71856 0.20944,-0.41333 0.52575,-0.72091 0.95089,-0.92466 0.34874,-0.16713 0.37941,-0.17269 0.86134,-0.1561 0.33608,0.0115 0.512819,0.0384 0.539739,0.0819 0.027,0.0438 0.051,0.0147 0.0739,-0.0896 0.0333,-0.15143 0.31575,-0.62545 0.39245,-0.65853 0.0215,-0.009 0.039,-0.038 0.039,-0.064 0,-0.16965 0.67142,-0.61421 1.08547,-0.71872 0.25783,-0.0651 0.89118,-0.0543 1.12924,0.0192 0.23917,0.0739 0.61257,0.2648 0.61257,0.31325 0,0.0209 0.029,0.0379 0.0645,0.0379 0.0355,0 0.10342,0.0455 0.15097,0.10097 0.12116,0.14151 0.30781,0.12569 0.50221,-0.0426 0.93959,-0.81314 2.44838,-0.86987 3.55816,-0.1338 0.34645,0.22978 0.76558,0.68174 0.91269,0.98414 0.0337,0.0694 0.0827,0.1603 0.10868,0.20195 0.14399,0.23064 0.25189,0.57236 0.28229,0.89405 0.0189,0.20016 0.0606,0.38445 0.0926,0.40954 0.032,0.0251 0.1671,0.0598 0.3002,0.0772 0.78861,0.10282 1.53254,0.6567 1.88439,1.403 0.1442,0.30586 0.2253,1.04109 0.15569,1.41146 -0.0572,0.30426 -0.25697,0.76504 -0.37371,0.86192 -0.0419,0.0348 -0.095,0.11273 -0.11798,0.17331 -0.055,0.14457 -0.55596,0.52672 -0.90897,0.69335 -0.15388,0.0726 -0.44702,0.15577 -0.65141,0.18476 -0.41693,0.0591 -12.168719,0.0615 -12.479589,0.003 z"
       id="path1580-6-26" />
    <path
       style="fill:#00ffff;stroke-width:0.0504872;opacity:0.3"
       d="m 154.59501,65.280686 c -0.2988,-0.0567 -0.75683,-0.30754 -0.96627,-0.52919 -0.10756,-0.11384 -0.2615,-0.35422 -0.34209,-0.53418 -0.12346,-0.27573 -0.14673,-0.39393 -0.14793,-0.75148 -0.001,-0.39609 0.011,-0.44643 0.18432,-0.75731 0.22092,-0.39615 0.39379,-0.56978 0.79435,-0.7979 0.25894,-0.14747 0.35962,-0.17401 0.75972,-0.20029 l 0.46122,-0.0303 -0.0237,-0.15714 c -0.0131,-0.0864 -0.0255,-0.35026 -0.0277,-0.58629 -0.003,-0.378 0.0135,-0.46362 0.14273,-0.71856 0.20944,-0.41333 0.52574,-0.72091 0.95088,-0.92465 0.34875,-0.167137 0.37941,-0.172694 0.86135,-0.156106 0.33609,0.01157 0.51283,0.0384 0.53974,0.08195 0.027,0.0438 0.051,0.0147 0.0739,-0.08955 0.0333,-0.151431 0.31575,-0.62545 0.39246,-0.658532 0.0215,-0.0093 0.039,-0.03806 0.039,-0.064 0,-0.169651 0.67142,-0.614213 1.08548,-0.71872 0.25782,-0.06508 0.89117,-0.0543 1.12924,0.01921 0.23916,0.07385 0.61257,0.264794 0.61257,0.313243 0,0.02087 0.029,0.03795 0.0645,0.03795 0.0355,0 0.10342,0.04544 0.15097,0.100975 0.12116,0.141505 0.3078,0.125691 0.50221,-0.04254 0.93959,-0.81314 2.44837,-0.869876 3.55815,-0.133804 0.34645,0.229785 0.76559,0.681737 0.9127,0.984145 0.0337,0.06942 0.0827,0.160297 0.10868,0.201949 0.14398,0.23063 0.25189,0.57236 0.2823,0.89405 0.0189,0.20016 0.0606,0.38445 0.0926,0.40954 0.032,0.0251 0.1671,0.0598 0.3002,0.0772 0.78861,0.10282 1.53254,0.6567 1.8844,1.403 0.14419,0.30586 0.22529,1.04109 0.15568,1.41146 -0.0572,0.30426 -0.25696,0.76504 -0.37371,0.86192 -0.0419,0.0347 -0.095,0.11273 -0.11798,0.17331 -0.055,0.14457 -0.55596,0.52672 -0.90897,0.69334 -0.15388,0.0726 -0.44701,0.15578 -0.65141,0.18477 -0.41692,0.0591 -12.16872,0.0615 -12.47959,0.003 z"
       id="path1580-3-3-7" />
    <path
       style="fill:#00ffff;stroke-width:0.0504872;opacity:0.3"
       d="m 40.404716,8.2499426 c -0.29881,-0.0567 -0.75684,-0.30754 -0.96628,-0.5292 -0.10756,-0.11383 -0.26151,-0.35421 -0.34209,-0.53417 -0.12347,-0.27573 -0.14673,-0.39394 -0.14793,-0.75149 -0.001,-0.39608 0.011,-0.44643 0.18431,-0.75731 0.22093,-0.39614 0.39379,-0.56978 0.79436,-0.7979 0.25894,-0.14746 0.35962,-0.174 0.75972,-0.20029 l 0.46122,-0.0303 -0.0237,-0.15713 c -0.0131,-0.0864 -0.0255,-0.35026 -0.0277,-0.58629 -0.003,-0.378 0.0135,-0.46362 0.14273,-0.71856 0.20944,-0.41332 0.52574,-0.72091 0.95088,-0.92465 0.34875,-0.16714 0.37942,-0.1727 0.86135,-0.15611 0.33608,0.0115 0.51282,0.0384 0.53974,0.0819 0.027,0.0438 0.051,0.0147 0.0739,-0.0895 0.0332,-0.15144 0.31575,-0.62546 0.39245,-0.65854 0.0215,-0.009 0.039,-0.038 0.039,-0.064 0,-0.16966 0.67142,-0.61421995 1.08548,-0.71872995 0.25782,-0.0651 0.89118,-0.0543 1.12924,0.0192 0.23916,0.0738 0.61257,0.26479 0.61257,0.31324 0,0.0208999 0.029,0.0379 0.0645,0.0379 0.0355,0 0.10342,0.0455 0.15097,0.10097 0.12116,0.14151 0.3078,0.1257 0.5022,-0.0426 0.9396,-0.81312985 2.44838,-0.86986985 3.55817,-0.13379985 0.34645,0.22978985 0.76559,0.68173985 0.91269,0.98414985 0.0337,0.0694 0.0827,0.16029 0.10868,0.20195 0.14399,0.23063 0.25189,0.57236 0.2823,0.89404 0.0189,0.20016 0.0606,0.38446 0.0926,0.40955 0.032,0.0251 0.1671,0.0598 0.30021,0.0772 0.78861,0.10281 1.53253,0.65669 1.88439,1.40299 0.1442,0.30587 0.2253,1.04109 0.15569,1.41147 -0.0572,0.30425 -0.25697,0.76503 -0.37371,0.86192 -0.0418,0.0348 -0.0949,0.11272 -0.11799,0.1733 -0.055,0.14458 -0.55595,0.52673 -0.90896,0.69335 -0.15388,0.0726 -0.44702,0.15578 -0.65141,0.1847601 -0.41693,0.0591 -12.16873,0.0615 -12.4796,0.003 z"
       id="path1580-56-9" />
    <path
       style="fill:#00ffff;stroke-width:0.0504872;opacity:0.3"
       d="m 158.62616,49.956978 c -0.2988,-0.0567 -0.75684,-0.30754 -0.96627,-0.5292 -0.10756,-0.11383 -0.2615,-0.35421 -0.34209,-0.53417 -0.12346,-0.27573 -0.14674,-0.39393 -0.14793,-0.75148 -0.001,-0.39609 0.011,-0.44644 0.18431,-0.75732 0.22093,-0.39614 0.39379,-0.56978 0.79435,-0.79789 0.25894,-0.14747 0.35963,-0.17401 0.75973,-0.20029 l 0.46122,-0.0303 -0.0238,-0.15714 c -0.013,-0.0864 -0.0255,-0.35025 -0.0277,-0.58628 -0.003,-0.37801 0.0135,-0.46363 0.14273,-0.71856 0.20944,-0.41333 0.52575,-0.72092 0.95089,-0.92466 0.34874,-0.16714 0.37941,-0.17269 0.86134,-0.15611 0.33609,0.0115 0.51283,0.0384 0.53974,0.082 0.027,0.0437 0.051,0.0147 0.0739,-0.0896 0.0333,-0.15143 0.31575,-0.62545 0.39246,-0.65853 0.0215,-0.009 0.039,-0.038 0.039,-0.064 0,-0.16966 0.67142,-0.61422 1.08548,-0.71872 0.25781,-0.0651 0.89117,-0.0543 1.12924,0.0192 0.23916,0.0739 0.61257,0.26479 0.61257,0.31324 0,0.0209 0.029,0.0379 0.0645,0.0379 0.0355,0 0.10341,0.0454 0.15096,0.10098 0.12117,0.1415 0.30781,0.12569 0.50221,-0.0426 0.93959,-0.81314 2.44837,-0.86988 3.55816,-0.13381 0.34645,0.22979 0.76559,0.68174 0.91269,0.98415 0.0337,0.0694 0.0827,0.1603 0.10868,0.20195 0.14399,0.23063 0.2519,0.57236 0.2823,0.89404 0.0189,0.20016 0.0606,0.38446 0.0926,0.40955 0.032,0.0251 0.1671,0.0598 0.30021,0.0772 0.78861,0.10282 1.53253,0.6567 1.88439,1.40299 0.1442,0.30587 0.2253,1.0411 0.15569,1.41147 -0.0572,0.30425 -0.25697,0.76503 -0.37371,0.86192 -0.0418,0.0348 -0.0949,0.11272 -0.11798,0.1733 -0.055,0.14458 -0.55596,0.52673 -0.90897,0.69335 -0.15388,0.0726 -0.44702,0.15578 -0.65141,0.18477 -0.41693,0.0591 -12.16873,0.0615 -12.4796,0.003 z"
       id="path1580-3-2-2" />
    <path
       style="fill:#00ffff;stroke-width:0.0504872;opacity:0.3"
       d="m 136.9304,41.633968 c -0.2988,-0.0567 -0.75683,-0.30754 -0.96627,-0.5292 -0.10756,-0.11383 -0.26151,-0.35421 -0.34209,-0.53417 -0.12347,-0.27573 -0.14674,-0.39394 -0.14793,-0.75149 -0.001,-0.39608 0.011,-0.44643 0.18431,-0.75731 0.22092,-0.39614 0.39379,-0.56978 0.79436,-0.7979 0.25893,-0.14746 0.35961,-0.174 0.75972,-0.20028 l 0.46122,-0.0303 -0.0238,-0.15714 c -0.013,-0.0864 -0.0255,-0.35025 -0.0277,-0.58628 -0.003,-0.37801 0.0135,-0.46363 0.14273,-0.71856 0.20944,-0.41333 0.52575,-0.72091 0.95089,-0.92466 0.34874,-0.16713 0.37941,-0.17269 0.86134,-0.1561 0.33609,0.0116 0.51283,0.0384 0.53974,0.0819 0.027,0.0438 0.051,0.0147 0.0739,-0.0896 0.0332,-0.15143 0.31574,-0.62545 0.39245,-0.65853 0.0215,-0.009 0.039,-0.0381 0.039,-0.064 0,-0.16965 0.67142,-0.614214 1.08548,-0.718721 0.25782,-0.06508 0.89117,-0.0543 1.12924,0.01921 0.23916,0.07385 0.61257,0.264794 0.61257,0.313243 0,0.02087 0.029,0.03795 0.0645,0.03795 0.0355,0 0.10341,0.04544 0.15097,0.100978 0.12116,0.1415 0.3078,0.12569 0.5022,-0.04254 0.9396,-0.81314 2.44838,-0.869876 3.55817,-0.133804 0.34645,0.229784 0.76559,0.681734 0.91269,0.984144 0.0337,0.0694 0.0827,0.16029 0.10868,0.20195 0.14399,0.23063 0.25189,0.57236 0.2823,0.89404 0.0189,0.20016 0.0606,0.38446 0.0926,0.40955 0.032,0.0251 0.1671,0.0598 0.3002,0.0772 0.78861,0.10282 1.53254,0.65671 1.88439,1.403 0.14421,0.30587 0.2253,1.04109 0.15569,1.41147 -0.0572,0.30425 -0.25696,0.76503 -0.37371,0.86192 -0.0418,0.0347 -0.0949,0.11273 -0.11798,0.1733 -0.055,0.14458 -0.55596,0.52673 -0.90897,0.69335 -0.15388,0.0726 -0.44701,0.15578 -0.65141,0.18476 -0.41692,0.0591 -12.16872,0.0615 -12.47959,0.003 z"
       id="path1580-9-0" />
    <path
       style="fill:#00ffff;stroke-width:0.0504872;opacity:0.3"
       d="m 111.74886,37.27863 c -0.29881,-0.0567 -0.75684,-0.30754 -0.96628,-0.52919 -0.10756,-0.11384 -0.2615,-0.35422 -0.34208,-0.53418 -0.12347,-0.27573 -0.14674,-0.39393 -0.14793,-0.75148 -0.001,-0.39609 0.011,-0.44643 0.18431,-0.75731 0.22093,-0.39615 0.39379,-0.56979 0.79435,-0.7979 0.25894,-0.14747 0.35963,-0.17401 0.75973,-0.20029 l 0.46122,-0.0303 -0.0238,-0.15714 c -0.013,-0.0864 -0.0255,-0.35025 -0.0277,-0.58628 -0.003,-0.37801 0.0135,-0.46363 0.14272,-0.71856 0.20944,-0.41333 0.52575,-0.72092 0.95089,-0.92466 0.34875,-0.16713 0.37941,-0.17269 0.86134,-0.1561 0.33609,0.0116 0.51283,0.0384 0.53974,0.0819 0.027,0.0438 0.051,0.0147 0.0739,-0.0896 0.0333,-0.15143 0.31576,-0.62545 0.39246,-0.65853 0.0215,-0.009 0.039,-0.0381 0.039,-0.064 0,-0.16965 0.67142,-0.61422 1.08548,-0.71872 0.25782,-0.0651 0.89117,-0.0543 1.12924,0.0192 0.23916,0.0739 0.61257,0.26479 0.61257,0.31324 0,0.0209 0.029,0.038 0.0645,0.038 0.0355,0 0.10341,0.0454 0.15096,0.10098 0.12117,0.1415 0.30781,0.12569 0.50221,-0.0425 0.93959,-0.81314 2.44838,-0.86987 3.55817,-0.1338 0.34644,0.22979 0.76558,0.68174 0.91269,0.98415 0.0337,0.0694 0.0827,0.16029 0.10868,0.20194 0.14398,0.23064 0.25189,0.57237 0.28229,0.89405 0.0189,0.20016 0.0606,0.38445 0.0926,0.40954 0.032,0.0251 0.1671,0.0598 0.3002,0.0772 0.78861,0.10282 1.53254,0.65671 1.88439,1.403 0.1442,0.30587 0.2253,1.04109 0.15569,1.41146 -0.0572,0.30426 -0.25697,0.76504 -0.37371,0.86193 -0.0419,0.0348 -0.095,0.11272 -0.11798,0.1733 -0.055,0.14458 -0.55596,0.52672 -0.90897,0.69334 -0.15388,0.0726 -0.44702,0.15578 -0.65141,0.18477 -0.41693,0.0591 -12.16873,0.0615 -12.4796,0.003 z"
       id="path1580-3-1-2" />
    <path
       style="fill:#00ffff;stroke-width:0.0504872;opacity:0.3"
       d="m 76.900366,13.150193 c -0.2988,-0.0567 -0.75684,-0.30754 -0.96627,-0.5292 -0.10757,-0.11383 -0.26151,-0.35421 -0.34209,-0.53417 -0.12347,-0.27573 -0.14674,-0.39394 -0.14793,-0.75149 -10e-4,-0.39608 0.011,-0.44642 0.18431,-0.75731 0.22092,-0.39614 0.39379,-0.56978 0.79435,-0.7978998 0.25894,-0.14746 0.35962,-0.174 0.75972,-0.20029 l 0.46123,-0.0303 -0.0238,-0.15713 c -0.013,-0.0864 -0.0255,-0.35026 -0.0277,-0.58629 -0.003,-0.378 0.0135,-0.46362 0.14273,-0.71856 0.20944,-0.41333 0.52575,-0.72091 0.95089,-0.92465 0.34874,-0.16714 0.37941,-0.1727 0.86134,-0.15611 0.33609,0.0116 0.51283,0.0384 0.53974,0.0819 0.027,0.0438 0.051,0.0147 0.0739,-0.0895 0.0333,-0.15144 0.31575,-0.62545 0.39246,-0.65854 0.0215,-0.009 0.039,-0.038 0.039,-0.064 0,-0.16965 0.67142,-0.61422 1.08547,-0.71873 0.25783,-0.0651 0.89118,-0.0543 1.12924,0.0192 0.23917,0.0738 0.61257,0.26479 0.61257,0.31324 0,0.0209 0.029,0.0379 0.0645,0.0379 0.0355,0 0.10342,0.0455 0.15097,0.10097 0.12116,0.14151 0.30781,0.1257 0.50221,-0.0425 0.93959,-0.81314 2.44838,-0.86988 3.55816,-0.13381 0.34645,0.22979 0.76558,0.68174 0.91269,0.98415 0.0337,0.0694 0.0827,0.16029 0.10868,0.20195 0.14399,0.23063 0.25189,0.57236 0.28229,0.89404 0.0189,0.20016 0.0606,0.38446 0.0926,0.40955 0.032,0.0251 0.1671,0.0598 0.3002,0.0772 0.78861,0.10281 1.53254,0.65669 1.88439,1.40299 0.14421,0.3058698 0.2253,1.0410898 0.15569,1.4114698 -0.0572,0.30425 -0.25696,0.76503 -0.37371,0.86192 -0.0418,0.0348 -0.0949,0.11272 -0.11798,0.1733 -0.055,0.14458 -0.55596,0.52673 -0.90897,0.69335 -0.15388,0.0726 -0.44702,0.15578 -0.65141,0.18476 -0.41693,0.0591 -12.16871,0.0615 -12.47958,0.003 z"
       id="path1580-6-2-3" />
    <path
       style="fill:#00ffff;stroke-width:0.0504872;opacity:0.3"
       d="m 35.419164,60.764505 c -0.29881,-0.0567 -0.75684,-0.30754 -0.96628,-0.5292 -0.10756,-0.11384 -0.2615,-0.35421 -0.34208,-0.53417 -0.12347,-0.27573 -0.14674,-0.39394 -0.14793,-0.75149 -10e-4,-0.39608 0.011,-0.44643 0.1843,-0.75731 0.22093,-0.39615 0.3938,-0.56978 0.79436,-0.7979 0.25894,-0.14746 0.35962,-0.17401 0.75972,-0.20029 l 0.46123,-0.0303 -0.0238,-0.15714 c -0.0131,-0.0864 -0.0255,-0.35025 -0.0277,-0.58628 -0.003,-0.378 0.0135,-0.46363 0.14273,-0.71856 0.20944,-0.41333 0.52575,-0.72091 0.95089,-0.92466 0.34874,-0.16713 0.37941,-0.17268 0.86134,-0.1561 0.33609,0.0115 0.51283,0.0384 0.53974,0.0819 0.027,0.0438 0.051,0.0147 0.0739,-0.0896 0.0333,-0.15143 0.31575,-0.62545 0.39246,-0.65853 0.0215,-0.009 0.039,-0.038 0.039,-0.064 0,-0.16965 0.67142,-0.61421 1.08547,-0.71872 0.25783,-0.0651 0.89118,-0.0543 1.12924,0.0192 0.23917,0.0738 0.61257,0.2648 0.61257,0.31325 0,0.0208 0.029,0.0379 0.0645,0.0379 0.0355,0 0.10342,0.0455 0.15097,0.10097 0.12116,0.14151 0.30781,0.12569 0.50221,-0.0426 0.93959,-0.81314 2.44838,-0.86987 3.55816,-0.1338 0.34645,0.22978 0.76559,0.68173 0.9127,0.98414 0.0337,0.0694 0.0827,0.1603 0.10868,0.20195 0.14398,0.23063 0.25189,0.57236 0.28229,0.89405 0.0189,0.20016 0.0606,0.38445 0.0926,0.40954 0.032,0.0251 0.1671,0.0598 0.3002,0.0772 0.78861,0.10282 1.53253,0.6567 1.88439,1.403 0.1442,0.30586 0.2253,1.04109 0.15569,1.41146 -0.0572,0.30426 -0.25697,0.76504 -0.37371,0.86193 -0.0419,0.0348 -0.095,0.11272 -0.11798,0.1733 -0.055,0.14457 -0.55596,0.52672 -0.90897,0.69334 -0.15388,0.0726 -0.44701,0.15578 -0.65141,0.18477 -0.41693,0.0591 -12.16873,0.0616 -12.4796,0.003 z"
       id="path1580-3-7-7-7" />
    <path
       style="fill:#00ffff;stroke-width:0.0504872;opacity:0.3"
       d="m 149.43943,14.898216 c -0.29881,-0.0567 -0.75684,-0.30754 -0.96628,-0.5292 -0.10756,-0.11383 -0.26151,-0.35421 -0.34209,-0.53417 -0.12347,-0.27573 -0.14673,-0.39393 -0.14793,-0.75148 -10e-4,-0.39609 0.011,-0.44644 0.18431,-0.75732 0.22093,-0.39614 0.39379,-0.56978 0.79436,-0.79789 0.25894,-0.14747 0.35962,-0.17401 0.75972,-0.20029 l 0.46122,-0.0303 -0.0237,-0.15714 c -0.0131,-0.0864 -0.0255,-0.35025 -0.0277,-0.58628 -0.003,-0.37801 0.0135,-0.46363 0.14273,-0.7185602 0.20944,-0.41333 0.52574,-0.72092 0.95088,-0.92466 0.34875,-0.16714 0.37942,-0.17269 0.86135,-0.15611 0.33608,0.0115 0.51282,0.0384 0.53974,0.082 0.027,0.0438 0.051,0.0147 0.0739,-0.0896 0.0333,-0.15144 0.31575,-0.62545 0.39245,-0.65853 0.0215,-0.009 0.039,-0.038 0.039,-0.064 0,-0.16965 0.67141,-0.61421 1.08547,-0.71871 0.25782,-0.0651 0.89118,-0.0543 1.12924,0.0192 0.23916,0.0739 0.61257,0.26479 0.61257,0.31324 0,0.0208 0.029,0.0379 0.0645,0.0379 0.0355,0 0.10342,0.0455 0.15097,0.10097 0.12116,0.14151 0.3078,0.1257 0.50221,-0.0426 0.93959,-0.81313 2.44837,-0.86987 3.55816,-0.1338 0.34645,0.22979 0.76559,0.68174 0.91269,0.98415 0.0337,0.0694 0.0827,0.1603 0.10868,0.20195 0.14399,0.23063 0.25189,0.57236 0.2823,0.89404 0.0189,0.20016 0.0606,0.3844602 0.0926,0.4095502 0.032,0.0251 0.1671,0.0598 0.30021,0.0772 0.78861,0.10282 1.53253,0.6567 1.88439,1.40299 0.1442,0.30587 0.2253,1.0411 0.15569,1.41147 -0.0572,0.30425 -0.25697,0.76503 -0.37371,0.86192 -0.0419,0.0348 -0.095,0.11272 -0.11799,0.1733 -0.055,0.14458 -0.55595,0.52673 -0.90896,0.69335 -0.15388,0.0726 -0.44702,0.15578 -0.65141,0.18477 -0.41693,0.0591 -12.16873,0.0615 -12.4796,0.003 z"
       id="path1580-5-0-5" />
    <path
       style="fill:#00ffff;stroke-width:0.0504872;opacity:0.3"
       d="m 160.97768,15.639524 c -0.2988,-0.0567 -0.75684,-0.30754 -0.96627,-0.5292 -0.10757,-0.11384 -0.26151,-0.35421 -0.34209,-0.53417 -0.12347,-0.27573 -0.14674,-0.39394 -0.14793,-0.75149 -0.001,-0.39608 0.011,-0.44643 0.18431,-0.75731 0.22092,-0.39615 0.39379,-0.56978 0.79435,-0.7979 0.25894,-0.14746 0.35962,-0.174 0.75972,-0.20029 l 0.46123,-0.0303 -0.0238,-0.15714 c -0.0131,-0.0864 -0.0255,-0.35025 -0.0277,-0.58628 -0.003,-0.37801 0.0135,-0.46363 0.14273,-0.71856 0.20944,-0.41333 0.52575,-0.7209164 0.95089,-0.9246604 0.34874,-0.167133 0.37941,-0.17269 0.86134,-0.156102 0.33609,0.01156 0.51283,0.0384 0.53974,0.08194 0.027,0.04376 0.051,0.01473 0.0739,-0.08955 0.0333,-0.151431 0.31575,-0.62545 0.39246,-0.658532 0.0215,-0.0093 0.039,-0.03806 0.039,-0.064 0,-0.169651 0.67142,-0.614213 1.08548,-0.71872 0.25782,-0.06508 0.89117,-0.0543 1.12924,0.01921 0.23917,0.07385 0.61257,0.264794 0.61257,0.313243 0,0.02087 0.029,0.03795 0.0645,0.03795 0.0355,0 0.10342,0.04544 0.15097,0.100975 0.12116,0.141505 0.3078,0.125691 0.50221,-0.04254 0.93959,-0.81314 2.44837,-0.869876 3.55816,-0.133804 0.34644,0.229785 0.76558,0.681737 0.91269,0.984146 0.0337,0.06942 0.0827,0.160296 0.10868,0.201948 0.14398,0.230632 0.25189,0.5723664 0.2823,0.8940464 0.0189,0.20016 0.0606,0.38445 0.0926,0.40954 0.032,0.0251 0.1671,0.0598 0.30021,0.0772 0.7886,0.10282 1.53253,0.6567 1.88439,1.403 0.14419,0.30587 0.2253,1.04109 0.15568,1.41146 -0.0572,0.30426 -0.25696,0.76504 -0.37371,0.86193 -0.0418,0.0347 -0.0949,0.11272 -0.11798,0.1733 -0.055,0.14458 -0.55596,0.52672 -0.90896,0.69335 -0.15389,0.0726 -0.44702,0.15577 -0.65142,0.18476 -0.41692,0.0591 -12.16872,0.0615 -12.47959,0.003 z"
       id="path1580-3-3-9-9" />
    <path
       style="fill:#00ffff;stroke-width:0.0504872;opacity:0.3"
       d="m 52.761143,53.986053 c -0.29881,-0.0567 -0.75684,-0.30754 -0.96628,-0.52919 -0.10756,-0.11384 -0.2615,-0.35422 -0.34208,-0.53418 -0.12347,-0.27573 -0.14674,-0.39393 -0.14793,-0.75149 -0.001,-0.39608 0.011,-0.44642 0.1843,-0.7573 0.22093,-0.39615 0.3938,-0.56979 0.79436,-0.7979 0.25894,-0.14747 0.35962,-0.17401 0.75972,-0.20029 l 0.46122,-0.0303 -0.0237,-0.15714 c -0.0131,-0.0864 -0.0255,-0.35025 -0.0277,-0.58628 -0.003,-0.37801 0.0135,-0.46363 0.14273,-0.71856 0.20944,-0.41333 0.52574,-0.72091 0.95088,-0.92466 0.34875,-0.16713 0.37942,-0.17269 0.86135,-0.1561 0.33608,0.0115 0.51282,0.0384 0.53974,0.0819 0.027,0.0438 0.051,0.0147 0.0739,-0.0896 0.0333,-0.15143 0.31575,-0.62545 0.39245,-0.65853 0.0215,-0.009 0.039,-0.038 0.039,-0.064 0,-0.16965 0.67141,-0.61422 1.08547,-0.71872 0.25782,-0.0651 0.89118,-0.0543 1.12924,0.0192 0.23917,0.0738 0.61257,0.26479 0.61257,0.31324 0,0.0208 0.029,0.0379 0.0645,0.0379 0.0355,0 0.10342,0.0455 0.15097,0.10098 0.12116,0.1415 0.3078,0.12569 0.50221,-0.0425 0.93959,-0.81314 2.44837,-0.86988 3.55816,-0.1338 0.34645,0.22978 0.76559,0.68173 0.91269,0.98414 0.0337,0.0694 0.0827,0.1603 0.10868,0.20195 0.14399,0.23063 0.25189,0.57236 0.2823,0.89404 0.0189,0.20016 0.0606,0.38446 0.0926,0.40955 0.032,0.0251 0.1671,0.0598 0.30021,0.0772 0.78861,0.10282 1.53253,0.6567 1.88439,1.40299 0.1442,0.30587 0.2253,1.0411 0.15569,1.41147 -0.0572,0.30425 -0.25697,0.76504 -0.37371,0.86192 -0.0419,0.0348 -0.095,0.11273 -0.11798,0.17331 -0.055,0.14457 -0.55596,0.52672 -0.90897,0.69334 -0.15388,0.0726 -0.44702,0.15578 -0.65141,0.18477 -0.41693,0.0591 -12.16873,0.0615 -12.4796,0.003 z"
       id="path1580-56-3-2" />
    <path
       style="fill:#00ffff;stroke-width:0.0504872;opacity:0.3"
       d="m 195.61517,31.544064 c -0.2988,-0.0567 -0.75684,-0.30755 -0.96627,-0.5292 -0.10756,-0.11384 -0.2615,-0.35421 -0.34209,-0.53418 -0.12346,-0.27573 -0.14673,-0.39393 -0.14793,-0.75148 -0.001,-0.39608 0.011,-0.44643 0.18431,-0.75731 0.22093,-0.39615 0.3938,-0.56978 0.79435,-0.7979 0.25894,-0.14746 0.35963,-0.17401 0.75973,-0.20029 l 0.46122,-0.0303 -0.0237,-0.15714 c -0.0131,-0.0864 -0.0255,-0.35025 -0.0277,-0.58628 -0.003,-0.37801 0.0135,-0.46363 0.14273,-0.71856 0.20943,-0.41333 0.52574,-0.72091 0.95088,-0.92466 0.34875,-0.16713 0.37941,-0.17269 0.86135,-0.1561 0.33608,0.0115 0.51283,0.0384 0.53974,0.0819 0.027,0.0438 0.051,0.0147 0.0739,-0.0896 0.0333,-0.15143 0.31576,-0.62545 0.39246,-0.65853 0.0215,-0.009 0.039,-0.038 0.039,-0.064 0,-0.16965 0.67142,-0.61421 1.08548,-0.71872 0.25782,-0.0651 0.89117,-0.0543 1.12924,0.0192 0.23916,0.0739 0.61257,0.2648 0.61257,0.31325 0,0.0208 0.029,0.0379 0.0645,0.0379 0.0355,0 0.10341,0.0455 0.15096,0.10097 0.12117,0.14151 0.30781,0.1257 0.50221,-0.0426 0.93959,-0.81314 2.44837,-0.86987 3.55816,-0.1338 0.34645,0.22978 0.76559,0.68174 0.91269,0.98414 0.0337,0.0694 0.0827,0.1603 0.10868,0.20195 0.14399,0.23064 0.2519,0.57236 0.2823,0.89405 0.0189,0.20016 0.0606,0.38445 0.0926,0.40954 0.032,0.0251 0.16709,0.0598 0.3002,0.0772 0.78861,0.10282 1.53253,0.6567 1.88439,1.403 0.1442,0.30586 0.2253,1.04109 0.15569,1.41146 -0.0572,0.30425 -0.25697,0.76504 -0.37371,0.86192 -0.0419,0.0348 -0.095,0.11273 -0.11798,0.17331 -0.055,0.14457 -0.55596,0.52672 -0.90897,0.69334 -0.15388,0.0726 -0.44702,0.15578 -0.65141,0.18477 -0.41693,0.0591 -12.16872,0.0615 -12.47959,0.003 z"
       id="path1580-3-2-6-2" />
    <path
       style="fill:#00ffff;stroke-width:0.0504872;opacity:0.3"
       d="m 61.496569,63.436967 c -0.29881,-0.0567 -0.75684,-0.30754 -0.96628,-0.5292 -0.10756,-0.11384 -0.2615,-0.35421 -0.34208,-0.53418 -0.12347,-0.27573 -0.14674,-0.39393 -0.14793,-0.75148 -10e-4,-0.39608 0.011,-0.44643 0.1843,-0.75731 0.22093,-0.39615 0.3938,-0.56978 0.79436,-0.7979 0.25894,-0.14746 0.35962,-0.17401 0.75972,-0.20029 l 0.46123,-0.0303 -0.0238,-0.15714 c -0.013,-0.0864 -0.0255,-0.35026 -0.0277,-0.58628 -0.003,-0.37801 0.0135,-0.46363 0.14273,-0.71857 0.20944,-0.41333 0.52575,-0.72091 0.95089,-0.92465 0.34874,-0.16714 0.37941,-0.17269 0.86134,-0.15611 0.33608,0.0116 0.51283,0.0384 0.53974,0.0819 0.027,0.0438 0.051,0.0147 0.0739,-0.0896 0.0333,-0.15143 0.31575,-0.62545 0.39245,-0.65854 0.0215,-0.009 0.039,-0.0381 0.039,-0.064 0,-0.16965 0.67142,-0.61421 1.08547,-0.71872 0.25783,-0.0651 0.89118,-0.0543 1.12924,0.0192 0.23917,0.0738 0.61257,0.2648 0.61257,0.31325 0,0.0209 0.029,0.0379 0.0645,0.0379 0.0355,0 0.10342,0.0454 0.15097,0.10098 0.12116,0.1415 0.30781,0.12569 0.50221,-0.0425 0.93959,-0.81315 2.44838,-0.86988 3.55816,-0.1338 0.34645,0.22978 0.76559,0.68174 0.9127,0.98414 0.0337,0.0694 0.0827,0.1603 0.10868,0.20195 0.14398,0.23063 0.25189,0.57236 0.28229,0.89405 0.0189,0.20016 0.0606,0.38445 0.0926,0.40954 0.032,0.0251 0.1671,0.0598 0.3002,0.0772 0.7886,0.10282 1.53253,0.6567 1.88439,1.403 0.1442,0.30586 0.2253,1.04109 0.15569,1.41146 -0.0572,0.30426 -0.25697,0.76504 -0.37371,0.86192 -0.0419,0.0347 -0.095,0.11273 -0.11799,0.17331 -0.055,0.14457 -0.55596,0.52672 -0.90896,0.69334 -0.15388,0.0726 -0.44702,0.15578 -0.65141,0.18477 -0.41693,0.0591 -12.16873,0.0615 -12.4796,0.003 z"
       id="path1580-0-7" />
    <path
       style="fill:#00ffff;stroke-width:0.0504872;opacity:0.3"
       d="m 100.22016,16.269674 c -0.298814,-0.0567 -0.756844,-0.30754 -0.966274,-0.52919 -0.10757,-0.11384 -0.26151,-0.35422 -0.3421,-0.53418 -0.12346,-0.27573 -0.14673,-0.39393 -0.14793,-0.75148 -0.001,-0.39609 0.011,-0.44643 0.18433,-0.75731 0.22091,-0.39615 0.39378,-0.56978 0.79435,-0.7979 0.258944,-0.14747 0.359624,-0.17401 0.759714,-0.20029 l 0.46122,-0.0303 -0.0237,-0.15714 c -0.0131,-0.0864 -0.0255,-0.35026 -0.0277,-0.58629 -0.003,-0.378 0.0135,-0.46362 0.14273,-0.71856 0.20944,-0.41333 0.52575,-0.72091 0.95089,-0.92465 0.34875,-0.16714 0.37941,-0.1727 0.86134,-0.15611 0.33609,0.0116 0.51283,0.0384 0.53974,0.082 0.027,0.0438 0.051,0.0147 0.0739,-0.0896 0.0333,-0.1514304 0.31575,-0.6254504 0.39246,-0.6585304 0.0215,-0.009 0.039,-0.0381 0.039,-0.064 0,-0.16965 0.67142,-0.61421 1.08548,-0.71872 0.25782,-0.0651 0.89117,-0.0543 1.12924,0.0192 0.23916,0.0738 0.61257,0.26479 0.61257,0.31324 0,0.0209 0.029,0.0379 0.0645,0.0379 0.0355,0 0.10342,0.0454 0.15097,0.10098 0.12116,0.1415 0.3078,0.12569 0.50221,-0.0425 0.93959,-0.81314 2.44838,-0.86988 3.55816,-0.13381 0.34645,0.22979 0.76558,0.68174 0.91269,0.98415 0.0337,0.0694 0.0827,0.1602904 0.10868,0.2019504 0.14398,0.23063 0.25189,0.57236 0.2823,0.89405 0.0189,0.20016 0.0606,0.38445 0.0926,0.40954 0.032,0.0251 0.1671,0.0598 0.3002,0.0772 0.78861,0.10282 1.53254,0.6567 1.8844,1.403 0.14419,0.30586 0.22529,1.04109 0.15568,1.41146 -0.0572,0.30426 -0.25696,0.76504 -0.37371,0.86192 -0.0419,0.0347 -0.095,0.11273 -0.11798,0.17331 -0.055,0.14457 -0.55596,0.52672 -0.90897,0.69334 -0.15388,0.0726 -0.44701,0.15578 -0.65141,0.18477 -0.41692,0.0591 -12.16872,0.0615 -12.47959,0.003 z"
       id="path1580-3-3-7-3" />
    <path
       style="fill:#00ffff;stroke-width:0.0504872;opacity:0.3"
       d="m 15.115133,54.50737 c -0.29881,-0.0567 -0.75684,-0.30754 -0.96628,-0.52919 -0.10756,-0.11384 -0.2615,-0.35422 -0.34208,-0.53418 -0.12347,-0.27573 -0.14674,-0.39393 -0.14793,-0.75148 -10e-4,-0.39609 0.011,-0.44643 0.18431,-0.75731 0.22093,-0.39615 0.39379,-0.56979 0.79435,-0.7979 0.25894,-0.14747 0.35963,-0.17401 0.75973,-0.20029 l 0.46122,-0.0303 -0.0238,-0.15714 c -0.013,-0.0864 -0.0255,-0.35025 -0.0277,-0.58628 -0.003,-0.37801 0.0135,-0.46363 0.14272,-0.71856 0.20944,-0.41333 0.52575,-0.72092 0.95089,-0.92466 0.34875,-0.16713 0.37941,-0.17269 0.86134,-0.1561 0.33609,0.0116 0.51283,0.0384 0.53974,0.0819 0.027,0.0438 0.051,0.0147 0.0739,-0.0896 0.0333,-0.15143 0.31576,-0.62545 0.39246,-0.65853 0.0215,-0.009 0.039,-0.0381 0.039,-0.064 0,-0.16965 0.67142,-0.61422 1.08548,-0.71872 0.25782,-0.0651 0.89117,-0.0543 1.12924,0.0192 0.239155,0.0739 0.612565,0.26479 0.612565,0.31324 0,0.0209 0.029,0.038 0.0645,0.038 0.0355,0 0.10341,0.0454 0.15096,0.10098 0.12118,0.1415 0.30781,0.12569 0.50221,-0.0425 0.93959,-0.81314 2.44838,-0.86987 3.55817,-0.1338 0.34644,0.22979 0.76558,0.68174 0.91269,0.98415 0.0337,0.0694 0.0827,0.16029 0.10868,0.20194 0.14398,0.23064 0.25189,0.57237 0.28229,0.89405 0.0189,0.20016 0.0606,0.38445 0.0926,0.40954 0.032,0.0251 0.1671,0.0598 0.3002,0.0772 0.78861,0.10282 1.53254,0.65671 1.88439,1.403 0.1442,0.30587 0.2253,1.04109 0.15569,1.41146 -0.0572,0.30426 -0.25697,0.76504 -0.37371,0.86193 -0.0419,0.0348 -0.095,0.11272 -0.11798,0.1733 -0.055,0.14458 -0.55596,0.52672 -0.90897,0.69334 -0.15388,0.0726 -0.44702,0.15578 -0.65141,0.18477 -0.41693,0.0591 -12.168725,0.0615 -12.479595,0.003 z"
       id="path1580-3-1-2-5" />
    <path
       style="fill:#00ffff;stroke-width:0.0504872;opacity:0.3"
       d="m 56.081869,14.814585 c -0.2988,-0.0567 -0.75685,-0.30754 -0.96628,-0.5292 -0.10757,-0.11383 -0.2615,-0.35421 -0.34209,-0.53417 -0.12347,-0.27573 -0.14674,-0.39394 -0.14793,-0.75149 -10e-4,-0.39608 0.011,-0.44642 0.18431,-0.75731 0.22092,-0.39614 0.39379,-0.56978 0.79435,-0.7979 0.25894,-0.14746 0.35963,-0.174 0.75972,-0.20029 l 0.46123,-0.0303 -0.0238,-0.15713 c -0.013,-0.0864 -0.0255,-0.35026 -0.0277,-0.58629 -0.003,-0.378 0.0135,-0.46362 0.14273,-0.7185598 0.20944,-0.41333 0.52575,-0.72091 0.95089,-0.92465 0.34874,-0.16714 0.37941,-0.1727 0.86134,-0.15611 0.33609,0.0116 0.51283,0.0384 0.53974,0.0819 0.027,0.0438 0.051,0.0147 0.0739,-0.0895 0.0333,-0.15144 0.31575,-0.62545 0.39246,-0.65854 0.0215,-0.009 0.039,-0.038 0.039,-0.064 0,-0.16965 0.671419,-0.61422 1.085469,-0.71873 0.25783,-0.0651 0.89118,-0.0543 1.12924,0.0192 0.23917,0.0738 0.61257,0.26479 0.61257,0.31324 0,0.0209 0.029,0.0379 0.0645,0.0379 0.0355,0 0.10342,0.0455 0.15097,0.10097 0.12116,0.14151 0.30781,0.1257 0.50221,-0.0425 0.93959,-0.81314 2.44838,-0.86988 3.55816,-0.13381 0.34645,0.22979 0.76558,0.68174 0.91269,0.98415 0.0337,0.0694 0.0827,0.16029 0.10868,0.20195 0.14399,0.23063 0.25189,0.57236 0.28229,0.89404 0.0189,0.20016 0.0606,0.38446 0.0926,0.4095498 0.032,0.0251 0.1671,0.0598 0.3002,0.0772 0.78861,0.10281 1.53254,0.65669 1.88439,1.40299 0.14421,0.30587 0.2253,1.04109 0.15569,1.41147 -0.0572,0.30425 -0.25696,0.76503 -0.37371,0.86192 -0.0418,0.0348 -0.0949,0.11272 -0.11798,0.1733 -0.055,0.14458 -0.55596,0.52673 -0.90897,0.69335 -0.15388,0.0726 -0.44702,0.15578 -0.65141,0.18476 -0.41693,0.0591 -12.168709,0.0615 -12.479579,0.003 z"
       id="path1580-6-2-3-2" />
    <path
       style="fill:#00ffff;stroke-width:0.0320536;opacity:0.3"
       d="m 194.51118,48.994225 c -0.18971,-0.036 -0.48051,-0.19526 -0.61348,-0.33598 -0.0683,-0.0723 -0.16602,-0.22489 -0.21718,-0.33915 -0.0784,-0.17505 -0.0932,-0.2501 -0.0939,-0.4771 -6.3e-4,-0.25147 0.007,-0.28343 0.11701,-0.48081 0.14027,-0.25151 0.25002,-0.36174 0.50433,-0.50657 0.1644,-0.0936 0.22832,-0.11048 0.48234,-0.12716 l 0.29282,-0.0192 -0.0151,-0.0998 c -0.008,-0.0549 -0.0162,-0.22237 -0.0176,-0.37222 -0.002,-0.23999 0.009,-0.29435 0.0906,-0.45621 0.13297,-0.26242 0.3338,-0.4577 0.60371,-0.58705 0.22141,-0.10611 0.24088,-0.10964 0.54685,-0.0991 0.21338,0.007 0.32559,0.0244 0.34268,0.052 0.0171,0.0278 0.0324,0.009 0.0469,-0.0569 0.0211,-0.0961 0.20046,-0.39709 0.24916,-0.4181 0.0136,-0.006 0.0248,-0.0242 0.0248,-0.0406 0,-0.10771 0.42627,-0.38995 0.68915,-0.4563 0.16369,-0.0413 0.5658,-0.0345 0.71694,0.0122 0.15184,0.0469 0.38891,0.16811 0.38891,0.19887 0,0.0133 0.0184,0.0241 0.0409,0.0241 0.0225,0 0.0657,0.0288 0.0959,0.0641 0.0769,0.0898 0.19542,0.0798 0.31885,-0.027 0.59653,-0.51625 1.55444,-0.55226 2.25902,-0.0849 0.21996,0.14588 0.48607,0.43282 0.57946,0.62481 0.0214,0.0441 0.0525,0.10178 0.069,0.12822 0.0914,0.14642 0.15993,0.36338 0.17923,0.56762 0.012,0.12708 0.0385,0.24408 0.0588,0.26001 0.0203,0.0159 0.10608,0.038 0.19059,0.049 0.50067,0.0653 0.97298,0.41693 1.19637,0.89075 0.0916,0.19419 0.14304,0.66097 0.0989,0.89612 -0.0363,0.19317 -0.16314,0.48571 -0.23726,0.54722 -0.0266,0.022 -0.0603,0.0716 -0.0749,0.11003 -0.0349,0.0918 -0.35297,0.33441 -0.57709,0.44019 -0.0977,0.0461 -0.2838,0.0989 -0.41357,0.11731 -0.2647,0.0375 -7.72576,0.039 -7.92313,0.002 z"
       id="path1580-0-8" />
    <path
       style="fill:#00ffff;stroke-width:0.0320536;opacity:0.3"
       d="m 81.845095,63.846974 c -0.18971,-0.036 -0.480507,-0.19526 -0.613478,-0.33599 -0.06829,-0.0723 -0.166022,-0.22488 -0.217181,-0.33913 -0.07839,-0.17506 -0.09316,-0.2501 -0.09392,-0.47711 -6.35e-4,-0.25147 0.007,-0.28344 0.117016,-0.48081 0.140265,-0.2515 0.250012,-0.36174 0.504322,-0.50658 0.164397,-0.0936 0.228324,-0.11047 0.482342,-0.12716 l 0.292822,-0.0192 -0.01511,-0.0998 c -0.0083,-0.0549 -0.01619,-0.22237 -0.01759,-0.37222 -0.0019,-0.23999 0.0086,-0.29435 0.09062,-0.4562 0.13297,-0.26242 0.333791,-0.4577 0.603707,-0.58705 0.221416,-0.10612 0.240882,-0.10964 0.546853,-0.0991 0.213378,0.007 0.325588,0.0244 0.342673,0.052 0.01714,0.0278 0.03238,0.009 0.04692,-0.0569 0.02114,-0.0961 0.200465,-0.39709 0.249168,-0.4181 0.01365,-0.006 0.02476,-0.0242 0.02476,-0.0406 0,-0.10771 0.426275,-0.38996 0.689156,-0.45631 0.163687,-0.0413 0.565792,-0.0345 0.716939,0.0122 0.15184,0.0469 0.388913,0.16811 0.388913,0.19887 0,0.0133 0.01841,0.0241 0.04095,0.0241 0.02254,0 0.06565,0.0288 0.09584,0.0641 0.07693,0.0898 0.195425,0.0798 0.318846,-0.027 0.596533,-0.51625 1.554443,-0.55227 2.259034,-0.085 0.21995,0.14589 0.486056,0.43282 0.579454,0.62482 0.0214,0.0441 0.05251,0.10177 0.069,0.12821 0.09141,0.14643 0.159922,0.36339 0.179222,0.56762 0.012,0.12708 0.03848,0.24409 0.05879,0.26002 0.02032,0.0159 0.106089,0.038 0.190593,0.049 0.500677,0.0653 0.972988,0.41693 1.196373,0.89074 0.09155,0.19419 0.14304,0.66098 0.09885,0.89612 -0.03631,0.19317 -0.163146,0.48571 -0.237263,0.54722 -0.02654,0.0221 -0.06025,0.0716 -0.0749,0.11003 -0.03492,0.0918 -0.352971,0.33441 -0.577092,0.4402 -0.0977,0.0461 -0.283807,0.0989 -0.413572,0.1173 -0.264703,0.0375 -7.725759,0.0391 -7.923126,0.002 z"
       id="path1580-3-6-9" />
    <path
       style="fill:#00ffff;stroke-width:0.0320536;opacity:0.3"
       d="m 71.374488,42.550397 c -0.18971,-0.036 -0.480507,-0.19526 -0.613478,-0.33598 -0.06829,-0.0723 -0.166023,-0.22488 -0.217182,-0.33914 -0.07839,-0.17506 -0.09316,-0.25011 -0.09392,-0.47711 -6.35e-4,-0.25146 0.007,-0.28343 0.117009,-0.4808 0.140265,-0.25151 0.250018,-0.36175 0.504328,-0.50658 0.164398,-0.0936 0.228318,-0.11048 0.482336,-0.12716 l 0.292829,-0.0192 -0.01511,-0.0998 c -0.0083,-0.0549 -0.01619,-0.22237 -0.01759,-0.37223 -0.0019,-0.23999 0.0086,-0.29435 0.09062,-0.4562 0.132971,-0.26242 0.333792,-0.4577 0.603707,-0.58705 0.221411,-0.10611 0.240882,-0.10964 0.546853,-0.0991 0.213373,0.007 0.325583,0.0244 0.342674,0.052 0.01714,0.0278 0.03238,0.009 0.04692,-0.0569 0.02114,-0.0961 0.200465,-0.39709 0.249161,-0.41809 0.01365,-0.006 0.02476,-0.0241 0.02476,-0.0406 0,-0.10771 0.426276,-0.38996 0.68915,-0.45631 0.163693,-0.0413 0.565798,-0.0345 0.716939,0.0122 0.151846,0.0469 0.388913,0.16812 0.388913,0.19888 0,0.0133 0.01841,0.0241 0.04095,0.0241 0.02254,0 0.06566,0.0289 0.09585,0.0641 0.07692,0.0898 0.195424,0.0798 0.318846,-0.0271 0.596533,-0.51625 1.554443,-0.55227 2.259027,-0.085 0.219956,0.14589 0.486056,0.43283 0.579454,0.62482 0.0214,0.0441 0.05251,0.10177 0.069,0.12821 0.09142,0.14644 0.159922,0.36339 0.179222,0.56762 0.012,0.12708 0.03847,0.24409 0.05879,0.26002 0.02032,0.0159 0.106089,0.038 0.190593,0.049 0.500677,0.0653 0.972988,0.41693 1.196373,0.89074 0.09155,0.19419 0.14304,0.66098 0.09884,0.89612 -0.03631,0.19317 -0.163146,0.48571 -0.237263,0.54722 -0.0266,0.0221 -0.06031,0.0716 -0.0749,0.11003 -0.03492,0.0918 -0.352971,0.33441 -0.577092,0.4402 -0.0977,0.0461 -0.283807,0.0989 -0.413572,0.1173 -0.264703,0.0375 -7.725752,0.039 -7.92312,0.002 z"
       id="path1580-6-26-7" />
    <path
       style="fill:#00ffff;stroke-width:0.0320536;opacity:0.3"
       d="m 6.6801967,44.709974 c -0.18971,-0.036 -0.480507,-0.19525 -0.613478,-0.33598 -0.06829,-0.0723 -0.166022,-0.22489 -0.217182,-0.33914 -0.07839,-0.17506 -0.09316,-0.2501 -0.09392,-0.4771 -6.35e-4,-0.25148 0.007,-0.28344 0.117009,-0.48081 0.140266,-0.25151 0.250018,-0.36174 0.504329,-0.50658 0.164397,-0.0936 0.228317,-0.11047 0.482335,-0.12716 l 0.292829,-0.0192 -0.01505,-0.0998 c -0.0083,-0.0549 -0.01619,-0.22237 -0.01759,-0.37222 -0.0019,-0.23999 0.0086,-0.29435 0.09062,-0.4562 0.132971,-0.26243 0.333791,-0.45771 0.603707,-0.58706 0.22141,-0.10611 0.240882,-0.10964 0.546853,-0.0991 0.213372,0.007 0.325582,0.0244 0.342673,0.052 0.01714,0.0278 0.03238,0.009 0.04692,-0.0568 0.02114,-0.0961 0.200465,-0.39709 0.249161,-0.41809 0.01365,-0.006 0.02476,-0.0241 0.02476,-0.0406 0,-0.10771 0.426275,-0.38996 0.68915,-0.45631 0.163693,-0.0413 0.5657983,-0.0345 0.7169393,0.0122 0.151846,0.0469 0.388912,0.16812 0.388912,0.19887 0,0.0133 0.01841,0.0241 0.04095,0.0241 0.02254,0 0.06566,0.0289 0.09585,0.0641 0.07692,0.0898 0.195425,0.0798 0.318846,-0.0271 0.596533,-0.51625 1.554443,-0.55228 2.259027,-0.085 0.219957,0.14589 0.486063,0.43282 0.579461,0.62482 0.0214,0.0441 0.05251,0.10177 0.06899,0.12821 0.09142,0.14643 0.159928,0.36339 0.179228,0.56762 0.012,0.12708 0.03847,0.24409 0.05879,0.26002 0.02032,0.0159 0.106083,0.038 0.190593,0.049 0.500671,0.0653 0.972982,0.41693 1.196373,0.89075 0.09155,0.19419 0.14304,0.66097 0.09884,0.89612 -0.03631,0.19316 -0.163146,0.4857 -0.237263,0.54722 -0.0266,0.0221 -0.06031,0.0716 -0.07491,0.11002 -0.03492,0.0918 -0.352971,0.33442 -0.577086,0.4402 -0.0977,0.0461 -0.283807,0.0989 -0.413572,0.1173 -0.264703,0.0375 -7.7257593,0.0391 -7.9231263,0.002 z"
       id="path1580-3-7-1-3" />
    <path
       style="fill:#00ffff;stroke-width:0.0320536;opacity:0.3"
       d="m 135.09782,10.23469 c -0.1897,-0.036 -0.4805,-0.19525 -0.61347,-0.33598 -0.0683,-0.0723 -0.16603,-0.22488 -0.21719,-0.33914 -0.0784,-0.17506 -0.0932,-0.25011 -0.0939,-0.47711 -6.3e-4,-0.25147 0.007,-0.28343 0.11702,-0.48081 0.14026,-0.2515 0.25001,-0.36174 0.50433,-0.50657 0.16439,-0.0936 0.22831,-0.11048 0.48233,-0.12716 l 0.29282,-0.0192 -0.0151,-0.0998 c -0.008,-0.0549 -0.0162,-0.22236 -0.0176,-0.37222 -0.002,-0.23998 0.009,-0.29435 0.0906,-0.4562 0.13297,-0.26242 0.33379,-0.4577 0.6037,-0.58705 0.22142,-0.10611 0.24089,-0.10964 0.54686,-0.0991 0.21338,0.007 0.32559,0.0244 0.34268,0.0521 0.0171,0.0278 0.0324,0.009 0.0469,-0.0569 0.0211,-0.0962 0.20046,-0.39709 0.24916,-0.4181 0.0137,-0.006 0.0248,-0.0241 0.0248,-0.0406 0,-0.10771 0.42627,-0.38995 0.68915,-0.4563 0.16369,-0.0413 0.5658,-0.0345 0.71694,0.0122 0.15184,0.0469 0.38891,0.16811 0.38891,0.19887 0,0.0132 0.0184,0.0241 0.041,0.0241 0.0225,0 0.0657,0.0289 0.0959,0.0641 0.0769,0.0898 0.19542,0.0798 0.31884,-0.0271 0.59654,-0.51625 1.55445,-0.55226 2.25904,-0.0849 0.21995,0.14589 0.48605,0.43282 0.57945,0.62481 0.0214,0.0441 0.0525,0.10178 0.069,0.12822 0.0914,0.14643 0.15992,0.36338 0.17923,0.56762 0.012,0.12708 0.0385,0.24408 0.0588,0.26001 0.0203,0.0159 0.10609,0.038 0.1906,0.049 0.50068,0.0653 0.97298,0.41693 1.19637,0.89075 0.0916,0.19418 0.14304,0.66097 0.0988,0.89611 -0.0363,0.19318 -0.16314,0.48572 -0.23726,0.54723 -0.0265,0.0221 -0.0602,0.0716 -0.0749,0.11003 -0.0349,0.0918 -0.35297,0.33441 -0.57709,0.44019 -0.0977,0.0461 -0.2838,0.0989 -0.41357,0.11731 -0.2647,0.0375 -7.72576,0.039 -7.92312,0.002 z"
       id="path1580-5-8-6" />
    <path
       style="fill:#00ffff;stroke-width:0.0320536;opacity:0.3"
       d="m 174.00807,60.569108 c -0.18971,-0.036 -0.4805,-0.19525 -0.61347,-0.33598 -0.0683,-0.0723 -0.16603,-0.22489 -0.21719,-0.33914 -0.0784,-0.17506 -0.0932,-0.2501 -0.0939,-0.4771 -6.4e-4,-0.25148 0.007,-0.28344 0.11702,-0.48081 0.14026,-0.25151 0.25001,-0.36175 0.50432,-0.50658 0.1644,-0.0936 0.22832,-0.11047 0.48234,-0.12716 l 0.29282,-0.0192 -0.015,-0.0998 c -0.008,-0.0549 -0.0162,-0.22238 -0.0176,-0.37223 -0.002,-0.23999 0.009,-0.29434 0.0906,-0.4562 0.13297,-0.26242 0.33378,-0.4577 0.6037,-0.58705 0.22141,-0.10611 0.24088,-0.10964 0.54686,-0.0991 0.21337,0.007 0.32558,0.0244 0.34267,0.0521 0.0171,0.0278 0.0324,0.009 0.0469,-0.0569 0.0211,-0.0961 0.20046,-0.39709 0.24916,-0.4181 0.0136,-0.006 0.0248,-0.0242 0.0248,-0.0406 0,-0.10771 0.42627,-0.38995 0.68915,-0.45631 0.16369,-0.0413 0.56579,-0.0345 0.71694,0.0122 0.15184,0.0469 0.38891,0.16812 0.38891,0.19888 0,0.0133 0.0184,0.0241 0.0409,0.0241 0.0225,0 0.0657,0.0288 0.0959,0.0641 0.0769,0.0898 0.19542,0.0798 0.31885,-0.027 0.59653,-0.51626 1.55443,-0.55227 2.25902,-0.0849 0.21996,0.14588 0.48606,0.43282 0.57946,0.62481 0.0214,0.0441 0.0525,0.10178 0.069,0.12822 0.0914,0.14642 0.15992,0.36338 0.17923,0.56762 0.012,0.12708 0.0385,0.24408 0.0588,0.26001 0.0203,0.0159 0.10609,0.038 0.19059,0.049 0.50068,0.0653 0.97299,0.41693 1.19638,0.89075 0.0915,0.19419 0.14303,0.66097 0.0988,0.89612 -0.0363,0.19317 -0.16314,0.48571 -0.23726,0.54722 -0.0266,0.022 -0.0603,0.0716 -0.0749,0.11003 -0.0349,0.0918 -0.35297,0.33441 -0.57709,0.44019 -0.0977,0.0461 -0.2838,0.0989 -0.41357,0.11731 -0.2647,0.0375 -7.72576,0.039 -7.92312,0.002 z"
       id="path1580-3-3-7-1" />
    <path
       style="fill:#00ffff;stroke-width:0.0320536;opacity:0.3"
       d="m 128.04224,51.880695 c -0.18971,-0.036 -0.48051,-0.19525 -0.61348,-0.33598 -0.0683,-0.0723 -0.16603,-0.22488 -0.21719,-0.33914 -0.0784,-0.17505 -0.0931,-0.2501 -0.0939,-0.47711 -6.4e-4,-0.25146 0.007,-0.28343 0.11701,-0.4808 0.14027,-0.25151 0.25001,-0.36175 0.50433,-0.50658 0.1644,-0.0936 0.22832,-0.11047 0.48234,-0.12716 l 0.29282,-0.0192 -0.0151,-0.0998 c -0.008,-0.0549 -0.0162,-0.22237 -0.0176,-0.37222 -0.002,-0.23999 0.009,-0.29435 0.0906,-0.45621 0.13297,-0.26241 0.33379,-0.45769 0.6037,-0.58705 0.22142,-0.10611 0.24089,-0.10964 0.54686,-0.0991 0.21337,0.007 0.32558,0.0244 0.34268,0.052 0.0171,0.0278 0.0324,0.009 0.0469,-0.0568 0.0211,-0.0962 0.20047,-0.3971 0.24916,-0.4181 0.0137,-0.006 0.0248,-0.0241 0.0248,-0.0406 0,-0.10772 0.42627,-0.38996 0.68915,-0.45632 0.16369,-0.0413 0.5658,-0.0345 0.71694,0.0122 0.15184,0.0469 0.38891,0.16812 0.38891,0.19888 0,0.0133 0.0184,0.0241 0.041,0.0241 0.0225,0 0.0657,0.0289 0.0958,0.0641 0.0769,0.0898 0.19542,0.0798 0.31884,-0.027 0.59654,-0.51625 1.55444,-0.55227 2.25903,-0.085 0.21996,0.14589 0.48607,0.43283 0.57946,0.62482 0.0214,0.0441 0.0525,0.10177 0.069,0.12822 0.0914,0.14642 0.15992,0.36338 0.17923,0.56761 0.012,0.12708 0.0385,0.24409 0.0588,0.26002 0.0203,0.0159 0.10609,0.038 0.1906,0.049 0.50068,0.0653 0.97298,0.41693 1.19637,0.89074 0.0915,0.19419 0.14304,0.66098 0.0988,0.89612 -0.0363,0.19317 -0.16315,0.48571 -0.23726,0.54723 -0.0265,0.0221 -0.0603,0.0716 -0.0749,0.11002 -0.0349,0.0918 -0.35297,0.33441 -0.57709,0.4402 -0.0977,0.0461 -0.28381,0.0989 -0.41357,0.1173 -0.2647,0.0375 -7.72576,0.039 -7.92313,0.002 z"
       id="path1580-56-9-2" />
    <path
       style="fill:#00ffff;stroke-width:0.0320536;opacity:0.3"
       d="m 17.179353,28.890576 c -0.189704,-0.036 -0.480507,-0.19526 -0.613472,-0.33599 -0.06829,-0.0723 -0.166022,-0.22488 -0.217188,-0.33913 -0.07838,-0.17506 -0.09316,-0.2501 -0.09392,-0.47711 -6.35e-4,-0.25147 0.007,-0.28344 0.117016,-0.48081 0.140265,-0.2515 0.250012,-0.36174 0.504322,-0.50657 0.164397,-0.0936 0.228324,-0.11048 0.482342,-0.12716 l 0.292822,-0.0192 -0.01511,-0.0998 c -0.0083,-0.0549 -0.01619,-0.22237 -0.01759,-0.37222 -0.0019,-0.24 0.0086,-0.29436 0.09062,-0.45621 0.132971,-0.26242 0.333792,-0.4577 0.603707,-0.58705 0.22141,-0.10612 0.240882,-0.10964 0.546853,-0.0991 0.213379,0.007 0.325589,0.0244 0.342674,0.0521 0.01714,0.0277 0.03238,0.009 0.04692,-0.0569 0.02114,-0.0961 0.200465,-0.39709 0.249167,-0.41809 0.01365,-0.006 0.02476,-0.0241 0.02476,-0.0406 0,-0.10772 0.426275,-0.38996 0.689156,-0.45631 0.16368,-0.0413 0.565791,-0.0345 0.716939,0.0122 0.151839,0.0469 0.388912,0.16811 0.388912,0.19887 0,0.0133 0.01841,0.0241 0.04095,0.0241 0.02254,0 0.06565,0.0288 0.09584,0.0641 0.07693,0.0898 0.195424,0.0798 0.318846,-0.0271 0.596533,-0.51625 1.554437,-0.55228 2.259027,-0.0849 0.219956,0.14589 0.486063,0.43282 0.579454,0.62482 0.0214,0.0441 0.05251,0.10177 0.069,0.12821 0.09142,0.14643 0.159928,0.36339 0.179229,0.56762 0.012,0.12708 0.03847,0.24409 0.05879,0.26002 0.02032,0.0159 0.106089,0.038 0.190599,0.049 0.500678,0.0653 0.972982,0.41693 1.196373,0.89074 0.09155,0.19419 0.14304,0.66098 0.09885,0.89612 -0.03632,0.19316 -0.163147,0.48571 -0.237263,0.54722 -0.02654,0.0221 -0.06025,0.0716 -0.0749,0.11003 -0.03492,0.0918 -0.352972,0.33441 -0.577093,0.4402 -0.0977,0.0461 -0.283807,0.0989 -0.413571,0.1173 -0.264703,0.0375 -7.725759,0.0391 -7.923126,0.002 z"
       id="path1580-3-2-2-9" />
    <path
       style="fill:#00ffff;stroke-width:0.0320536;opacity:0.3"
       d="m 14.390208,63.799287 c -0.189704,-0.036 -0.480501,-0.19525 -0.613471,-0.33598 -0.06829,-0.0723 -0.166029,-0.22488 -0.217188,-0.33914 -0.07839,-0.17505 -0.09316,-0.2501 -0.09392,-0.47711 -6.35e-4,-0.25146 0.007,-0.28343 0.117016,-0.4808 0.140259,-0.25151 0.250012,-0.36175 0.504328,-0.50658 0.164391,-0.0936 0.228311,-0.11047 0.482336,-0.12715 l 0.292822,-0.0192 -0.01511,-0.0998 c -0.0083,-0.0549 -0.01619,-0.22237 -0.01759,-0.37222 -0.0019,-0.23999 0.0086,-0.29435 0.09062,-0.4562 0.13297,-0.26242 0.333791,-0.4577 0.603707,-0.58706 0.22141,-0.1061 0.240882,-0.10963 0.546853,-0.0991 0.213378,0.007 0.325588,0.0244 0.342673,0.052 0.01714,0.0278 0.03238,0.009 0.04692,-0.0569 0.02108,-0.0961 0.200459,-0.39709 0.249161,-0.41809 0.01365,-0.006 0.02476,-0.0242 0.02476,-0.0406 0,-0.10771 0.426275,-0.38996 0.689156,-0.45631 0.163686,-0.0413 0.565792,-0.0345 0.716939,0.0122 0.151839,0.0469 0.388912,0.16811 0.388912,0.19887 0,0.0133 0.01841,0.0241 0.04095,0.0241 0.02254,0 0.06565,0.0288 0.09585,0.0641 0.07692,0.0898 0.195418,0.0798 0.31884,-0.027 0.59654,-0.51625 1.554443,-0.55227 2.259034,-0.085 0.219956,0.14589 0.486063,0.43283 0.579454,0.62482 0.0214,0.0441 0.05251,0.10177 0.069,0.12822 0.09142,0.14642 0.159922,0.36338 0.179229,0.56761 0.012,0.12708 0.03847,0.24409 0.05879,0.26002 0.02032,0.0159 0.106089,0.038 0.190593,0.049 0.500677,0.0653 0.972988,0.41694 1.196373,0.89075 0.09156,0.19419 0.14304,0.66097 0.09884,0.89612 -0.03631,0.19316 -0.16314,0.48571 -0.237263,0.54722 -0.02654,0.022 -0.06025,0.0716 -0.0749,0.11003 -0.03492,0.0918 -0.352972,0.33441 -0.577093,0.44019 -0.0977,0.0461 -0.2838,0.0989 -0.413571,0.11731 -0.264697,0.0375 -7.725753,0.039 -7.92312,0.002 z"
       id="path1580-9-0-3" />
    <path
       style="fill:#00ffff;stroke-width:0.0320536;opacity:0.3"
       d="m 142.37119,55.454849 c -0.18971,-0.036 -0.48051,-0.19525 -0.61348,-0.33597 -0.0683,-0.0723 -0.16602,-0.22489 -0.21718,-0.33915 -0.0784,-0.17506 -0.0932,-0.2501 -0.0939,-0.4771 -6.4e-4,-0.25147 0.007,-0.28343 0.11701,-0.48081 0.14027,-0.25151 0.25001,-0.36175 0.50432,-0.50657 0.1644,-0.0936 0.22833,-0.11048 0.48235,-0.12717 l 0.29282,-0.0192 -0.0151,-0.0998 c -0.008,-0.0549 -0.0162,-0.22237 -0.0176,-0.37222 -0.002,-0.23999 0.009,-0.29435 0.0906,-0.4562 0.13297,-0.26242 0.33379,-0.45771 0.6037,-0.58706 0.22142,-0.10611 0.24089,-0.10964 0.54686,-0.0991 0.21338,0.007 0.32559,0.0244 0.34267,0.052 0.0171,0.0278 0.0324,0.009 0.0469,-0.0569 0.0211,-0.0961 0.20047,-0.39709 0.24917,-0.41809 0.0137,-0.006 0.0248,-0.0242 0.0248,-0.0406 0,-0.1077 0.42627,-0.38996 0.68915,-0.4563 0.16369,-0.0413 0.5658,-0.0345 0.71694,0.0122 0.15184,0.0469 0.38892,0.16811 0.38892,0.19887 0,0.0133 0.0184,0.0241 0.041,0.0241 0.0225,0 0.0657,0.0288 0.0958,0.0641 0.0769,0.0898 0.19542,0.0798 0.31884,-0.027 0.59653,-0.51625 1.55444,-0.55226 2.25903,-0.0849 0.21995,0.14589 0.48606,0.43282 0.57946,0.62482 0.0214,0.0441 0.0525,0.10177 0.069,0.12821 0.0914,0.14643 0.15992,0.36339 0.17922,0.56762 0.012,0.12708 0.0385,0.24408 0.0588,0.26001 0.0203,0.0159 0.10609,0.038 0.19059,0.049 0.50068,0.0653 0.97299,0.41694 1.19638,0.89075 0.0916,0.19419 0.14304,0.66097 0.0988,0.89611 -0.0363,0.19318 -0.16315,0.48572 -0.23727,0.54723 -0.0266,0.0221 -0.0603,0.0716 -0.0749,0.11003 -0.0349,0.0918 -0.35297,0.33441 -0.57709,0.44019 -0.0977,0.0461 -0.28381,0.0989 -0.41357,0.11731 -0.2647,0.0375 -7.72576,0.039 -7.92313,0.002 z"
       id="path1580-3-1-2-1" />
    <path
       style="fill:#00ffff;stroke-width:0.0320536;opacity:0.3"
       d="M 6.598906,62.6321 C 6.409202,62.5961 6.118399,62.43684 5.985434,62.29611 5.917144,62.22381 5.819405,62.07123 5.768246,61.95698 5.689856,61.78192 5.675086,61.70687 5.674326,61.47987 5.673691,61.2284 5.681326,61.19644 5.791342,60.99906 5.931601,60.74756 6.041354,60.63731 6.295664,60.49248 6.460062,60.39888 6.523982,60.38201 6.778,60.36532 l 0.292828,-0.0192 -0.01511,-0.0998 c -0.0083,-0.0549 -0.01619,-0.22238 -0.01759,-0.37223 -0.0019,-0.23999 0.0086,-0.29435 0.09062,-0.4562 0.132971,-0.26242 0.333792,-0.4577 0.603707,-0.58705 0.22141,-0.10612 0.240882,-0.10965 0.546853,-0.0991 0.213379,0.007 0.325589,0.0244 0.342674,0.052 0.01714,0.0278 0.03238,0.009 0.04692,-0.0568 0.02114,-0.0961 0.200465,-0.39709 0.249167,-0.4181 0.01365,-0.006 0.02476,-0.0241 0.02476,-0.0406 0,-0.10771 0.426275,-0.38996 0.68915,-0.45631 0.163692,-0.0413 0.565798,-0.0345 0.716939,0.0122 0.151845,0.0469 0.388912,0.16811 0.388912,0.19887 0,0.0133 0.01841,0.0241 0.04095,0.0241 0.02254,0 0.06566,0.0289 0.09585,0.0641 0.07692,0.0898 0.195424,0.0798 0.318846,-0.027 0.596533,-0.51625 1.554443,-0.55227 2.259027,-0.085 0.219956,0.14589 0.486056,0.43283 0.579454,0.62482 0.0214,0.0441 0.05251,0.10177 0.069,0.12822 0.09142,0.14642 0.159922,0.36338 0.179222,0.56761 0.012,0.12708 0.03847,0.24409 0.05879,0.26002 0.02032,0.0159 0.10609,0.038 0.190593,0.049 0.500678,0.0653 0.972989,0.41693 1.196374,0.89074 0.09156,0.19419 0.143039,0.66098 0.09885,0.89612 -0.03632,0.19317 -0.163141,0.48571 -0.237264,0.54723 -0.02654,0.0221 -0.06025,0.0716 -0.0749,0.11002 -0.03492,0.0918 -0.352971,0.33441 -0.577092,0.4402 -0.0977,0.0461 -0.283807,0.0989 -0.413572,0.1173 -0.264703,0.0375 -7.725747,0.0391 -7.923114,0.002 z"
       id="path1580-6-2-3-9" />
    <path
       style="fill:#00ffff;stroke-width:0.0320536;opacity:0.3"
       d="m 89.370817,35.969231 c -0.18971,-0.036 -0.480507,-0.19525 -0.613478,-0.33598 -0.06829,-0.0723 -0.166023,-0.22488 -0.217182,-0.33914 -0.07839,-0.17506 -0.09316,-0.25011 -0.09392,-0.47711 -6.35e-4,-0.25146 0.007,-0.28343 0.117009,-0.4808 0.140266,-0.25151 0.250018,-0.36175 0.504328,-0.50658 0.164398,-0.0936 0.228318,-0.11048 0.482336,-0.12716 l 0.292829,-0.0192 -0.01511,-0.0998 c -0.0083,-0.0549 -0.01619,-0.22237 -0.01759,-0.37223 -0.0019,-0.23998 0.0086,-0.29435 0.09062,-0.4562 0.132971,-0.26242 0.333792,-0.4577 0.603707,-0.58705 0.221411,-0.10611 0.240883,-0.10964 0.546853,-0.0991 0.213379,0.007 0.325589,0.0244 0.342674,0.052 0.01714,0.0278 0.03238,0.009 0.04692,-0.0569 0.02114,-0.0961 0.200465,-0.39709 0.249167,-0.41809 0.01365,-0.006 0.02476,-0.0241 0.02476,-0.0406 0,-0.10771 0.426275,-0.38996 0.68915,-0.45631 0.163693,-0.0413 0.565798,-0.0345 0.716939,0.0122 0.151846,0.0469 0.388912,0.16812 0.388912,0.19888 0,0.0132 0.01841,0.0241 0.04095,0.0241 0.02254,0 0.06566,0.0289 0.09585,0.0641 0.07692,0.0898 0.195424,0.0798 0.318846,-0.0271 0.596533,-0.51625 1.554443,-0.55227 2.259027,-0.085 0.219956,0.14589 0.486062,0.43282 0.57946,0.62482 0.0214,0.0441 0.0525,0.10177 0.069,0.12822 0.09141,0.14642 0.159922,0.36338 0.179222,0.56762 0.012,0.12707 0.03847,0.24408 0.05879,0.26001 0.02032,0.0159 0.10609,0.038 0.190593,0.049 0.500678,0.0653 0.972983,0.41693 1.196374,0.89075 0.09155,0.19418 0.14304,0.66097 0.09884,0.89611 -0.03632,0.19317 -0.163147,0.48572 -0.237264,0.54723 -0.0266,0.0221 -0.06031,0.0716 -0.0749,0.11002 -0.03492,0.0918 -0.352971,0.33441 -0.577092,0.4402 -0.0977,0.0461 -0.283801,0.0989 -0.413572,0.1173 -0.264703,0.0375 -7.725758,0.0391 -7.923125,0.002 z"
       id="path1580-3-7-7-7-4" />
    <path
       style="fill:#00ffff;stroke-width:0.0320536;opacity:0.3"
       d="m 179.24254,58.283138 c -0.18971,-0.036 -0.48051,-0.19526 -0.61348,-0.33599 -0.0683,-0.0723 -0.16603,-0.22488 -0.21719,-0.33913 -0.0784,-0.17506 -0.0932,-0.2501 -0.0939,-0.47711 -6.3e-4,-0.25147 0.007,-0.28344 0.11702,-0.48081 0.14027,-0.2515 0.25001,-0.36175 0.50433,-0.50657 0.1644,-0.0936 0.22832,-0.11048 0.48233,-0.12716 l 0.29283,-0.0192 -0.0151,-0.0998 c -0.008,-0.0549 -0.0162,-0.22237 -0.0176,-0.37223 -0.002,-0.23999 0.009,-0.29435 0.0906,-0.4562 0.13297,-0.26242 0.33378,-0.4577 0.6037,-0.58705 0.22141,-0.10612 0.24089,-0.10964 0.54686,-0.0991 0.21337,0.007 0.32558,0.0244 0.34267,0.0521 0.0171,0.0278 0.0324,0.009 0.0469,-0.0569 0.0211,-0.0961 0.20046,-0.39709 0.24916,-0.41809 0.0137,-0.006 0.0248,-0.0241 0.0248,-0.0406 0,-0.10771 0.42627,-0.38996 0.68915,-0.4563 0.16369,-0.0413 0.5658,-0.0345 0.71694,0.0122 0.15184,0.0469 0.38891,0.16811 0.38891,0.19887 0,0.0132 0.0184,0.0241 0.041,0.0241 0.0225,0 0.0657,0.0289 0.0958,0.0641 0.0769,0.0898 0.19542,0.0798 0.31885,-0.027 0.59653,-0.51625 1.55443,-0.55227 2.25902,-0.085 0.21996,0.14589 0.48607,0.43283 0.57946,0.62482 0.0214,0.0441 0.0525,0.10178 0.069,0.12822 0.0914,0.14642 0.15992,0.36338 0.17923,0.56761 0.012,0.12708 0.0385,0.24409 0.0588,0.26002 0.0203,0.0159 0.10609,0.038 0.1906,0.049 0.50067,0.0653 0.97298,0.41693 1.19637,0.89074 0.0915,0.1942 0.14304,0.66098 0.0988,0.89613 -0.0363,0.19316 -0.16315,0.4857 -0.23726,0.54722 -0.0266,0.0221 -0.0603,0.0716 -0.0749,0.11002 -0.0349,0.0918 -0.35297,0.33442 -0.57709,0.4402 -0.0977,0.0461 -0.28381,0.0989 -0.41357,0.11731 -0.2647,0.0375 -7.72576,0.039 -7.92313,0.002 z"
       id="path1580-5-0-5-7" />
    <path
       style="fill:#00ffff;stroke-width:0.0320536;opacity:0.3"
       d="m 30.02474,14.311466 c -0.189704,-0.036 -0.480507,-0.19525 -0.613472,-0.33598 -0.06829,-0.0723 -0.166029,-0.22489 -0.217188,-0.33914 -0.07839,-0.17506 -0.09316,-0.25011 -0.09392,-0.47711 -6.35e-4,-0.25147 0.007,-0.28343 0.117016,-0.48081 0.140259,-0.25151 0.250012,-0.36174 0.504322,-0.50657 0.164398,-0.0936 0.228318,-0.11047 0.482336,-0.12716 l 0.292828,-0.0192 -0.01511,-0.0998 c -0.0083,-0.0549 -0.01619,-0.22236 -0.01759,-0.37222 -0.0019,-0.23999 0.0086,-0.29435 0.09062,-0.4562 0.132971,-0.26242 0.333792,-0.4577 0.603707,-0.58705 0.22141,-0.10611 0.240882,-0.10964 0.546853,-0.0991 0.213379,0.007 0.325589,0.0244 0.342674,0.052 0.01714,0.0278 0.03238,0.009 0.04692,-0.0569 0.02114,-0.0961 0.200465,-0.39709 0.249167,-0.4180901 0.01365,-0.006 0.02476,-0.0242 0.02476,-0.0406 0,-0.10771 0.426275,-0.38996 0.689156,-0.45631 0.163686,-0.0413 0.565792,-0.0345 0.716939,0.0122 0.151846,0.0469 0.388912,0.16811 0.388912,0.19887 0,0.0133 0.01841,0.0241 0.04095,0.0241 0.02254,0 0.06566,0.0288 0.09585,0.0641 0.07692,0.0898 0.195418,0.0798 0.318846,-0.027 0.596533,-0.51625 1.554437,-0.55227 2.259027,-0.0849 0.21995,0.14589 0.486056,0.4328301 0.579454,0.6248201 0.0214,0.0441 0.05251,0.10177 0.069,0.12822 0.09141,0.14642 0.159921,0.36338 0.179228,0.56761 0.012,0.12708 0.03847,0.24408 0.05879,0.26001 0.02032,0.0159 0.106089,0.038 0.190599,0.049 0.500671,0.0653 0.972982,0.41693 1.196373,0.89074 0.09154,0.19419 0.14304,0.66097 0.09884,0.89612 -0.03631,0.19317 -0.16314,0.48571 -0.237263,0.54723 -0.02654,0.022 -0.06025,0.0716 -0.0749,0.11002 -0.03492,0.0918 -0.352971,0.33441 -0.577086,0.4402 -0.0977,0.0461 -0.283807,0.0989 -0.413578,0.1173 -0.264696,0.0375 -7.725753,0.0391 -7.92312,0.002 z"
       id="path1580-3-3-9-9-8" />
    <path
       style="fill:#00ffff;stroke-width:0.0320536;opacity:0.3"
       d="m 174.99831,7.1164373 c -0.18971,-0.036 -0.48051,-0.19526 -0.61348,-0.33598 -0.0683,-0.0723 -0.16602,-0.22489 -0.21718,-0.33914 -0.0784,-0.17506 -0.0932,-0.2501 -0.0939,-0.47711 -6.4e-4,-0.25147 0.007,-0.28343 0.11701,-0.4808 0.14026,-0.25151 0.25001,-0.36175 0.50432,-0.50658 0.1644,-0.0936 0.22832,-0.11047 0.48234,-0.12716 l 0.29282,-0.0192 -0.0151,-0.0998 c -0.008,-0.0549 -0.0162,-0.22237 -0.0176,-0.37222 -0.002,-0.24 0.009,-0.29435 0.0906,-0.45621 0.13297,-0.26241 0.33379,-0.45769 0.6037,-0.58705 0.22142,-0.10611 0.24089,-0.10964 0.54686,-0.0991 0.21337,0.007 0.32558,0.0244 0.34267,0.052 0.0171,0.0278 0.0324,0.009 0.0469,-0.0569 0.0211,-0.0961 0.20047,-0.39709 0.24917,-0.4181 0.0136,-0.006 0.0248,-0.0241 0.0248,-0.0406 0,-0.10771 0.42626,-0.38996 0.68915,-0.4563 0.16368,-0.0413 0.56579,-0.0345 0.71693,0.0122 0.15185,0.0469 0.38892,0.16811 0.38892,0.19887 0,0.0132 0.0184,0.0241 0.041,0.0241 0.0225,0 0.0657,0.0289 0.0958,0.0641 0.0769,0.0898 0.19541,0.0798 0.31884,-0.027 0.59654,-0.51625 1.55444,-0.55228 2.25903,-0.085 0.21996,0.14588 0.48606,0.43282 0.57945,0.62482 0.0214,0.0441 0.0525,0.10177 0.069,0.12821 0.0914,0.14643 0.15992,0.36339 0.17923,0.56762 0.012,0.12707 0.0385,0.24408 0.0588,0.26001 0.0203,0.0159 0.10609,0.038 0.1906,0.049 0.50068,0.0653 0.97298,0.41693 1.19637,0.89074 0.0915,0.19419 0.14304,0.66098 0.0988,0.89612 -0.0363,0.19316 -0.16314,0.48571 -0.23726,0.54722 -0.0266,0.0221 -0.0603,0.0716 -0.0749,0.11003 -0.0349,0.0918 -0.35297,0.33441 -0.57709,0.44019 -0.0977,0.0461 -0.28381,0.0989 -0.41357,0.11731 -0.26471,0.0375 -7.72576,0.039 -7.92313,0.002 z"
       id="path1580-56-3-2-4" />
    <path
       style="fill:#00ffff;stroke-width:0.0320536;opacity:0.3"
       d="m 4.8402163,26.372413 c -0.189704,-0.036 -0.480508,-0.19526 -0.613472,-0.33598 -0.06829,-0.0723 -0.166023,-0.22489 -0.217188,-0.33915 -0.07838,-0.17506 -0.09316,-0.2501 -0.09392,-0.4771 -6.35e-4,-0.25147 0.007,-0.28343 0.117016,-0.48081 0.140265,-0.25151 0.250018,-0.36174 0.504322,-0.50657 0.164397,-0.0936 0.228324,-0.11048 0.482342,-0.12717 l 0.292822,-0.0192 -0.01505,-0.0998 c -0.0083,-0.0549 -0.01619,-0.22237 -0.01759,-0.37222 -0.0019,-0.23999 0.0086,-0.29435 0.09062,-0.4562 0.132965,-0.26242 0.333785,-0.4577 0.603701,-0.58706 0.221417,-0.10611 0.240882,-0.10964 0.546859,-0.0991 0.213373,0.007 0.325589,0.0244 0.342674,0.052 0.01714,0.0278 0.03238,0.009 0.04692,-0.0569 0.02114,-0.0961 0.200472,-0.39709 0.249167,-0.41809 0.01365,-0.006 0.02476,-0.0241 0.02476,-0.0406 0,-0.1077 0.426275,-0.38995 0.689156,-0.4563 0.163687,-0.0413 0.565792,-0.0345 0.716939,0.0122 0.151839,0.0469 0.388912,0.16812 0.388912,0.19888 0,0.0132 0.01841,0.0241 0.04095,0.0241 0.02254,0 0.06565,0.0289 0.09584,0.0641 0.07693,0.0898 0.195424,0.0798 0.318846,-0.027 0.5965327,-0.51625 1.5544367,-0.55227 2.2590267,-0.0849 0.219956,0.14588 0.486063,0.43283 0.579454,0.62482 0.0214,0.0441 0.05251,0.10177 0.069,0.12821 0.09142,0.14643 0.159928,0.36339 0.179228,0.56762 0.012,0.12708 0.03847,0.24408 0.05879,0.26001 0.02032,0.0159 0.106083,0.038 0.190592,0.049 0.500678,0.0653 0.972983,0.41693 1.196374,0.89074 0.09155,0.19419 0.14304,0.66098 0.09885,0.89612 -0.03631,0.19316 -0.163147,0.48571 -0.237263,0.54722 -0.0266,0.0221 -0.06031,0.0716 -0.0749,0.11003 -0.03492,0.0918 -0.352971,0.33441 -0.577093,0.44019 -0.0977,0.0461 -0.283806,0.0989 -0.413571,0.11731 -0.264703,0.0375 -7.7257527,0.0391 -7.9231197,0.002 z"
       id="path1580-3-2-6-2-5" />
    <path
       style="fill:#00ffff;stroke-width:0.0320536;opacity:0.3"
       d="m 75.737036,30.825058 c -0.18971,-0.036 -0.480507,-0.19526 -0.613478,-0.33599 -0.06829,-0.0723 -0.166022,-0.22488 -0.217181,-0.33913 -0.07839,-0.17506 -0.09316,-0.2501 -0.09392,-0.47711 -6.35e-4,-0.25147 0.007,-0.28344 0.117016,-0.48081 0.140265,-0.2515 0.250012,-0.36174 0.504322,-0.50658 0.164397,-0.0936 0.228324,-0.11047 0.482342,-0.12716 l 0.292822,-0.0192 -0.01511,-0.0998 c -0.0083,-0.0549 -0.01619,-0.22237 -0.01759,-0.37222 -0.0019,-0.23999 0.0086,-0.29435 0.09062,-0.4562 0.13297,-0.26242 0.333791,-0.4577 0.603707,-0.58705 0.221416,-0.10612 0.240882,-0.10964 0.546853,-0.0991 0.213378,0.007 0.325588,0.0244 0.342673,0.052 0.01714,0.0278 0.03238,0.009 0.04692,-0.0569 0.02114,-0.0961 0.200465,-0.39709 0.249168,-0.4181 0.01365,-0.006 0.02476,-0.0242 0.02476,-0.0406 0,-0.10771 0.426272,-0.38996 0.689152,-0.45631 0.16369,-0.0413 0.5658,-0.0345 0.71694,0.0122 0.15184,0.0469 0.38892,0.16811 0.38892,0.19887 0,0.0133 0.0184,0.0241 0.041,0.0241 0.0225,0 0.0656,0.0288 0.0958,0.0641 0.0769,0.0898 0.19542,0.0798 0.31884,-0.027 0.59653,-0.51625 1.55444,-0.55227 2.25904,-0.085 0.21995,0.14589 0.48605,0.43282 0.57945,0.62482 0.0214,0.0441 0.0525,0.10177 0.069,0.12821 0.0914,0.14643 0.15992,0.36339 0.17922,0.56762 0.012,0.12708 0.0385,0.24409 0.0588,0.26002 0.0203,0.0159 0.10609,0.038 0.19059,0.049 0.50068,0.0653 0.97299,0.41693 1.19638,0.89074 0.0915,0.19419 0.14304,0.66098 0.0988,0.89612 -0.0363,0.19317 -0.16315,0.48571 -0.23727,0.54722 -0.0265,0.0221 -0.0602,0.0716 -0.0749,0.11003 -0.0349,0.0918 -0.35297,0.33441 -0.57709,0.4402 -0.0977,0.0461 -0.2838,0.0989 -0.41357,0.1173 -0.2647,0.0375 -7.725758,0.0391 -7.923125,0.002 z"
       id="path1580-3-6-9-0" />
    <path
       style="fill:#00ffff;stroke-width:0.0320536;opacity:0.3"
       d="m 61.431395,27.980023 c -0.18971,-0.036 -0.48051,-0.19526 -0.61348,-0.33598 -0.0683,-0.0723 -0.16602,-0.22488 -0.21718,-0.33914 -0.0784,-0.17506 -0.0932,-0.25011 -0.0939,-0.47711 -6.4e-4,-0.25146 0.007,-0.28343 0.11701,-0.4808 0.14026,-0.25151 0.25001,-0.36175 0.50432,-0.50658 0.1644,-0.0936 0.22832,-0.11048 0.48234,-0.12716 l 0.29283,-0.0192 -0.0151,-0.0998 c -0.008,-0.0549 -0.0162,-0.22237 -0.0176,-0.37223 -0.002,-0.23999 0.009,-0.29435 0.0906,-0.4562 0.13297,-0.26242 0.33379,-0.4577 0.60371,-0.58705 0.22141,-0.10611 0.24088,-0.10964 0.54685,-0.0991 0.21337,0.007 0.32558,0.0244 0.34267,0.052 0.0171,0.0278 0.0324,0.009 0.0469,-0.0569 0.0211,-0.0961 0.20047,-0.39709 0.24916,-0.41809 0.0136,-0.006 0.0248,-0.0241 0.0248,-0.0406 0,-0.10771 0.42628,-0.38996 0.68915,-0.45631 0.1637,-0.0413 0.5658,-0.0345 0.71694,0.0122 0.15185,0.0469 0.38892,0.16812 0.38892,0.19888 0,0.0133 0.0184,0.0241 0.0409,0.0241 0.0225,0 0.0657,0.0289 0.0958,0.0641 0.0769,0.0898 0.19542,0.0798 0.31884,-0.0271 0.59653,-0.51625 1.55444,-0.55227 2.25903,-0.085 0.21995,0.14589 0.48605,0.43283 0.57945,0.62482 0.0214,0.0441 0.0525,0.10177 0.069,0.12821 0.0914,0.14644 0.15992,0.36339 0.17922,0.56762 0.012,0.12708 0.0385,0.24409 0.0588,0.26002 0.0203,0.0159 0.10609,0.038 0.1906,0.049 0.50067,0.0653 0.97299,0.41693 1.19637,0.89074 0.0916,0.19419 0.14304,0.66098 0.0988,0.89612 -0.0363,0.19317 -0.16315,0.48571 -0.23726,0.54722 -0.0266,0.0221 -0.0603,0.0716 -0.0749,0.11003 -0.0349,0.0918 -0.35297,0.33441 -0.57709,0.4402 -0.0977,0.0461 -0.28381,0.0989 -0.41358,0.1173 -0.2647,0.0375 -7.72575,0.039 -7.92312,0.002 z"
       id="path1580-6-26-7-3" />
    <path
       style="fill:#00ffff;stroke-width:0.0320536;opacity:0.3"
       d="m 73.5483,46.424079 c -0.18971,-0.036 -0.48051,-0.19525 -0.61348,-0.335981 -0.0683,-0.0723 -0.16602,-0.22489 -0.21718,-0.33914 -0.0784,-0.17506 -0.0932,-0.2501 -0.0939,-0.4771 -6.4e-4,-0.25148 0.007,-0.28344 0.11701,-0.48081 0.14026,-0.25151 0.25002,-0.36174 0.50433,-0.50658 0.16439,-0.0936 0.22831,-0.11047 0.48233,-0.12716 l 0.29283,-0.0192 -0.0151,-0.0998 c -0.008,-0.0549 -0.0162,-0.22237 -0.0176,-0.37222 -0.002,-0.23999 0.009,-0.29435 0.0906,-0.4562 0.13297,-0.26243 0.33379,-0.45771 0.60371,-0.58706 0.22141,-0.10611 0.24088,-0.10964 0.54685,-0.0991 0.21337,0.007 0.32558,0.0244 0.34268,0.052 0.0171,0.0278 0.0324,0.009 0.0469,-0.0568 0.0211,-0.0961 0.20046,-0.39709 0.24916,-0.41809 0.0136,-0.006 0.0248,-0.0241 0.0248,-0.0406 0,-0.10771 0.42627,-0.38996 0.68915,-0.45631 0.16369,-0.0413 0.56579,-0.0345 0.71693,0.0122 0.15185,0.0469 0.38892,0.16812 0.38892,0.19887 0,0.0133 0.0184,0.0241 0.041,0.0241 0.0225,0 0.0657,0.0289 0.0958,0.0641 0.0769,0.0898 0.19542,0.0798 0.31884,-0.0271 0.59654,-0.51625 1.55445,-0.55228 2.25903,-0.085 0.21996,0.14589 0.48606,0.43282 0.57946,0.62482 0.0214,0.0441 0.0525,0.10177 0.069,0.12821 0.0914,0.14643 0.15993,0.36339 0.17923,0.56762 0.012,0.12708 0.0385,0.24409 0.0588,0.26002 0.0203,0.0159 0.10608,0.038 0.19059,0.049 0.50067,0.0653 0.97298,0.41693 1.19637,0.89075 0.0915,0.19419 0.14304,0.66097 0.0988,0.89612 -0.0363,0.19316 -0.16314,0.4857 -0.23726,0.54722 -0.0266,0.0221 -0.0603,0.0716 -0.0749,0.11002 -0.0349,0.0918 -0.35297,0.334421 -0.57708,0.440201 -0.0977,0.0461 -0.28381,0.0989 -0.41358,0.1173 -0.2647,0.0375 -7.72576,0.0391 -7.92312,0.002 z"
       id="path1580-3-7-1-3-6" />
    <path
       style="fill:#00ffff;stroke-width:0.0320536;opacity:0.3"
       d="m 94.17968,7.2795284 c -0.189704,-0.036 -0.480501,-0.19525 -0.613472,-0.33598 -0.06829,-0.0723 -0.166029,-0.22488 -0.217188,-0.33914 -0.07839,-0.17506 -0.09316,-0.25011 -0.09392,-0.47711 -6.35e-4,-0.25147 0.007,-0.28343 0.117016,-0.48081 0.140265,-0.2515 0.250012,-0.36174 0.504329,-0.50657 0.164397,-0.0936 0.228317,-0.11048 0.482335,-0.12716 l 0.292823,-0.0192 -0.01505,-0.0998 c -0.0083,-0.0549 -0.01619,-0.22236 -0.01759,-0.37222 -0.0019,-0.23998 0.0086,-0.29435 0.09062,-0.4562 0.13297,-0.26242 0.333785,-0.4577 0.6037,-0.58705 0.221417,-0.10611 0.240883,-0.10964 0.54686,-0.0991 0.213372,0.007 0.325582,0.0244 0.342673,0.0521 0.01714,0.0278 0.03238,0.009 0.04692,-0.0569 0.02108,-0.0962 0.200466,-0.39709 0.249161,-0.4181 0.01365,-0.006 0.02476,-0.0241 0.02476,-0.0406 0,-0.10771 0.426275,-0.38995 0.689156,-0.4563 0.163687,-0.0413 0.565798,-0.0345 0.716939,0.0122 0.15184,0.0469 0.38891,0.16811 0.38891,0.19887 0,0.0132 0.0184,0.0241 0.041,0.0241 0.0225,0 0.0656,0.0289 0.0958,0.0641 0.0769,0.0898 0.19542,0.0798 0.31884,-0.0271 0.59654,-0.51625 1.554448,-0.55226 2.259038,-0.0849 0.21995,0.14589 0.48605,0.43282 0.57945,0.62481 0.0214,0.0441 0.0525,0.10178 0.069,0.12822 0.0914,0.14643 0.15992,0.36338 0.17923,0.56762 0.012,0.12708 0.0385,0.24408 0.0588,0.26001 0.0203,0.0159 0.10609,0.038 0.1906,0.049 0.50068,0.0653 0.97298,0.41693 1.19637,0.89075 0.0915,0.19418 0.14304,0.66097 0.0988,0.89611 -0.0363,0.19318 -0.16315,0.48572 -0.23726,0.54723 -0.0265,0.0221 -0.0602,0.0716 -0.0749,0.11003 -0.0349,0.0918 -0.35297,0.33441 -0.57709,0.44019 -0.0977,0.0461 -0.2838,0.0989 -0.41357,0.11731 -0.2647,0.0375 -7.725756,0.039 -7.923123,0.002 z"
       id="path1580-5-8-6-1" />
    <path
       style="fill:#00ffff;stroke-width:0.0320536;opacity:0.3"
       d="m 198.86862,38.244983 c -0.18971,-0.036 -0.4805,-0.19525 -0.61347,-0.33598 -0.0683,-0.0723 -0.16603,-0.22488 -0.21719,-0.33914 -0.0784,-0.175051 -0.0932,-0.250101 -0.0939,-0.477111 -6.4e-4,-0.25146 0.007,-0.28343 0.11701,-0.4808 0.14027,-0.25151 0.25002,-0.36175 0.50433,-0.50658 0.1644,-0.0936 0.22832,-0.11047 0.48234,-0.12716 l 0.29282,-0.0192 -0.0151,-0.0998 c -0.008,-0.0549 -0.0162,-0.22237 -0.0176,-0.37222 -0.002,-0.23999 0.009,-0.29435 0.0906,-0.45621 0.13297,-0.26241 0.33378,-0.45769 0.6037,-0.58705 0.22142,-0.10611 0.24089,-0.10964 0.54686,-0.0991 0.21337,0.007 0.32558,0.0244 0.34267,0.052 0.0171,0.0278 0.0324,0.009 0.0469,-0.0568 0.0211,-0.0962 0.20047,-0.3971 0.24916,-0.4181 0.0137,-0.006 0.0248,-0.0241 0.0248,-0.0406 0,-0.10772 0.42628,-0.38996 0.68916,-0.45632 0.16369,-0.0413 0.5658,-0.0345 0.71694,0.0122 0.15184,0.0469 0.38891,0.16812 0.38891,0.19888 0,0.0133 0.0184,0.0241 0.041,0.0241 0.0225,0 0.0657,0.0289 0.0958,0.0641 0.0769,0.0898 0.19542,0.0798 0.31884,-0.027 0.59654,-0.51625 1.55444,-0.55227 2.25903,-0.085 0.21996,0.14589 0.48607,0.43283 0.57946,0.62482 0.0214,0.0441 0.0525,0.10177 0.069,0.12822 0.0914,0.14642 0.15992,0.36338 0.17923,0.56761 0.012,0.12708 0.0385,0.24409 0.0588,0.26002 0.0203,0.0159 0.10609,0.038 0.1906,0.049 0.50067,0.0653 0.97298,0.41693 1.19637,0.89074 0.0915,0.19419 0.14304,0.66098 0.0988,0.89612 -0.0363,0.19317 -0.16315,0.485711 -0.23726,0.547231 -0.0265,0.0221 -0.0602,0.0716 -0.0749,0.11002 -0.0349,0.0918 -0.35297,0.33441 -0.57709,0.4402 -0.0977,0.0461 -0.28381,0.0989 -0.41357,0.1173 -0.2647,0.0375 -7.72576,0.039 -7.92313,0.002 z"
       id="path1580-56-9-2-0" />
    <path
       style="fill:#00ffff;stroke-width:0.0320536;opacity:0.3"
       d="m 73.672073,58.446496 c -0.189704,-0.036 -0.480507,-0.19526 -0.613472,-0.33599 -0.06829,-0.0723 -0.166022,-0.22488 -0.217188,-0.33913 -0.07838,-0.17506 -0.09316,-0.2501 -0.09392,-0.47711 -6.35e-4,-0.25147 0.007,-0.28344 0.117016,-0.48081 0.140265,-0.2515 0.250012,-0.36174 0.504322,-0.50657 0.164397,-0.0936 0.228324,-0.11048 0.482342,-0.12716 l 0.292822,-0.0192 -0.01511,-0.0998 c -0.0083,-0.0549 -0.01619,-0.22237 -0.01759,-0.37222 -0.0019,-0.24 0.0086,-0.29436 0.09062,-0.45621 0.132971,-0.26242 0.333792,-0.4577 0.603707,-0.58705 0.22141,-0.10612 0.240882,-0.10964 0.546853,-0.0991 0.213379,0.007 0.325589,0.0244 0.342674,0.0521 0.01714,0.0277 0.03238,0.009 0.04692,-0.0569 0.02114,-0.0961 0.200465,-0.39709 0.249167,-0.41809 0.01365,-0.006 0.02476,-0.0241 0.02476,-0.0406 0,-0.10772 0.426275,-0.38996 0.689156,-0.45631 0.16368,-0.0413 0.565791,-0.0345 0.716939,0.0122 0.151839,0.0469 0.388912,0.16811 0.388912,0.19887 0,0.0133 0.01841,0.0241 0.04095,0.0241 0.02254,0 0.06565,0.0288 0.09584,0.0641 0.07693,0.0898 0.195424,0.0798 0.318846,-0.0271 0.596533,-0.51625 1.554437,-0.55228 2.259027,-0.0849 0.219956,0.14589 0.486063,0.43282 0.579454,0.62482 0.0214,0.0441 0.0525,0.10177 0.069,0.12821 0.09142,0.14643 0.159928,0.36339 0.179229,0.56762 0.012,0.12708 0.03847,0.24409 0.05879,0.26002 0.02032,0.0159 0.106089,0.038 0.190599,0.049 0.500678,0.0653 0.972982,0.41693 1.196373,0.89074 0.09155,0.19419 0.14304,0.66098 0.09884,0.89612 -0.03631,0.19316 -0.163147,0.48571 -0.237263,0.54722 -0.02654,0.0221 -0.06025,0.0716 -0.0749,0.11003 -0.03492,0.0918 -0.352972,0.33441 -0.577093,0.4402 -0.0977,0.0461 -0.283807,0.0989 -0.413571,0.1173 -0.264703,0.0375 -7.725759,0.0391 -7.923126,0.002 z"
       id="path1580-3-2-2-9-6" />
    <path
       style="fill:#00ffff;stroke-width:0.0320536;opacity:0.3"
       d="m 163.30517,25.699864 c -0.1897,-0.036 -0.4805,-0.19525 -0.61347,-0.33598 -0.0683,-0.0723 -0.16603,-0.22488 -0.21719,-0.33914 -0.0784,-0.17505 -0.0932,-0.2501 -0.0939,-0.47711 -6.3e-4,-0.25146 0.007,-0.28343 0.11702,-0.4808 0.14026,-0.25151 0.25001,-0.36175 0.50433,-0.50658 0.16439,-0.0936 0.22831,-0.11047 0.48233,-0.12715 l 0.29283,-0.0192 -0.0151,-0.0998 c -0.008,-0.0549 -0.0162,-0.22237 -0.0176,-0.37222 -0.002,-0.23999 0.009,-0.29435 0.0906,-0.4562 0.13297,-0.26242 0.33379,-0.4577 0.6037,-0.58706 0.22141,-0.1061 0.24088,-0.10963 0.54686,-0.0991 0.21337,0.007 0.32558,0.0244 0.34267,0.052 0.0171,0.0278 0.0324,0.009 0.0469,-0.0569 0.0211,-0.0961 0.20046,-0.39709 0.24916,-0.41809 0.0137,-0.006 0.0248,-0.0242 0.0248,-0.0406 0,-0.10771 0.42627,-0.38996 0.68916,-0.45631 0.16368,-0.0413 0.56579,-0.0345 0.71693,0.0122 0.15184,0.0469 0.38892,0.16811 0.38892,0.19887 0,0.0133 0.0184,0.0241 0.041,0.0241 0.0225,0 0.0657,0.0288 0.0959,0.0641 0.0769,0.0898 0.19541,0.0798 0.31884,-0.027 0.59654,-0.51625 1.55444,-0.55227 2.25903,-0.085 0.21996,0.14589 0.48606,0.43283 0.57945,0.62482 0.0214,0.0441 0.0525,0.10177 0.069,0.12822 0.0914,0.14642 0.15993,0.36338 0.17923,0.56761 0.012,0.12708 0.0385,0.24409 0.0588,0.26002 0.0203,0.0159 0.10609,0.038 0.1906,0.049 0.50067,0.0653 0.97298,0.41694 1.19637,0.89075 0.0916,0.19419 0.14304,0.66097 0.0988,0.89612 -0.0363,0.19316 -0.16314,0.48571 -0.23726,0.54722 -0.0265,0.022 -0.0602,0.0716 -0.0749,0.11003 -0.0349,0.0918 -0.35298,0.33441 -0.5771,0.44019 -0.0977,0.0461 -0.2838,0.0989 -0.41357,0.11731 -0.26469,0.0375 -7.72575,0.039 -7.92312,0.002 z"
       id="path1580-9-0-3-3" />
    <path
       style="fill:#00ffff;stroke-width:0.0320536;opacity:0.3"
       d="m 128.29809,64.280798 c -0.18971,-0.036 -0.4805,-0.19525 -0.61347,-0.33597 -0.0683,-0.0723 -0.16603,-0.22489 -0.21719,-0.33915 -0.0784,-0.17506 -0.0932,-0.2501 -0.0939,-0.4771 -6.3e-4,-0.25147 0.007,-0.28343 0.11702,-0.48081 0.14026,-0.25151 0.25001,-0.36175 0.50432,-0.50657 0.1644,-0.0936 0.22833,-0.11048 0.48234,-0.12717 l 0.29283,-0.0192 -0.0151,-0.0998 c -0.008,-0.0549 -0.0162,-0.22237 -0.0176,-0.37222 -0.002,-0.23999 0.009,-0.29435 0.0906,-0.4562 0.13297,-0.26242 0.33379,-0.45771 0.6037,-0.58706 0.22142,-0.10611 0.24088,-0.10964 0.54686,-0.0991 0.21337,0.007 0.32558,0.0244 0.34267,0.052 0.0171,0.0278 0.0324,0.009 0.0469,-0.0569 0.0211,-0.0961 0.20047,-0.39709 0.24917,-0.41809 0.0136,-0.006 0.0248,-0.0242 0.0248,-0.0406 0,-0.1077 0.42627,-0.38996 0.68915,-0.4563 0.16369,-0.0413 0.56579,-0.0345 0.71694,0.0122 0.15184,0.0469 0.38891,0.16811 0.38891,0.19887 0,0.0133 0.0184,0.0241 0.041,0.0241 0.0225,0 0.0657,0.0288 0.0958,0.0641 0.0769,0.0898 0.19543,0.0798 0.31885,-0.027 0.59653,-0.51625 1.55444,-0.55226 2.25903,-0.0849 0.21995,0.14589 0.48606,0.43282 0.57946,0.62482 0.0214,0.0441 0.0525,0.10177 0.069,0.12821 0.0914,0.14643 0.15992,0.36339 0.17922,0.56762 0.012,0.12708 0.0385,0.24408 0.0588,0.26001 0.0203,0.0159 0.10609,0.038 0.19059,0.049 0.50068,0.0653 0.97299,0.41694 1.19637,0.89075 0.0916,0.19419 0.14304,0.66097 0.0988,0.89611 -0.0363,0.19318 -0.16314,0.48572 -0.23726,0.54723 -0.0266,0.0221 -0.0603,0.0716 -0.0749,0.11003 -0.0349,0.0918 -0.35297,0.33441 -0.57709,0.44019 -0.0977,0.0461 -0.28381,0.0989 -0.41357,0.11731 -0.26471,0.0375 -7.72576,0.039 -7.92313,0.002 z"
       id="path1580-3-1-2-1-2" />
    <path
       style="fill:#00ffff;stroke-width:0.0320536;opacity:0.3"
       d="m 198.28897,61.601725 c -0.1897,-0.036 -0.4805,-0.19526 -0.61347,-0.33599 -0.0683,-0.0723 -0.16603,-0.22488 -0.21719,-0.33913 -0.0784,-0.17506 -0.0932,-0.25011 -0.0939,-0.47711 -6.3e-4,-0.25147 0.007,-0.28343 0.11702,-0.48081 0.14026,-0.2515 0.25001,-0.36175 0.50432,-0.50658 0.1644,-0.0936 0.22832,-0.11047 0.48234,-0.12716 l 0.29283,-0.0192 -0.0151,-0.0998 c -0.008,-0.0549 -0.0162,-0.22238 -0.0176,-0.37223 -0.002,-0.23999 0.009,-0.29435 0.0906,-0.4562 0.13297,-0.26242 0.33379,-0.4577 0.6037,-0.58705 0.22141,-0.10612 0.24088,-0.10965 0.54686,-0.0991 0.21337,0.007 0.32558,0.0244 0.34267,0.052 0.0171,0.0278 0.0324,0.009 0.0469,-0.0568 0.0211,-0.0961 0.20046,-0.39709 0.24917,-0.4181 0.0137,-0.006 0.0248,-0.0241 0.0248,-0.0406 0,-0.10771 0.42627,-0.38996 0.68915,-0.45631 0.16369,-0.0413 0.56579,-0.0345 0.71694,0.0122 0.15184,0.0469 0.38891,0.16811 0.38891,0.19887 0,0.0133 0.0184,0.0241 0.041,0.0241 0.0225,0 0.0657,0.0289 0.0958,0.0641 0.0769,0.0898 0.19542,0.0798 0.31884,-0.027 0.59654,-0.51625 1.55445,-0.55227 2.25903,-0.085 0.21996,0.14589 0.48606,0.43283 0.57945,0.62482 0.0214,0.0441 0.0525,0.10177 0.069,0.12822 0.0914,0.14642 0.15993,0.36338 0.17923,0.56761 0.012,0.12708 0.0385,0.24409 0.0588,0.26002 0.0203,0.0159 0.10609,0.038 0.19059,0.049 0.50068,0.0653 0.97299,0.41693 1.19637,0.89074 0.0916,0.19419 0.14304,0.66098 0.0988,0.89612 -0.0363,0.19317 -0.16314,0.48571 -0.23726,0.54723 -0.0265,0.0221 -0.0602,0.0716 -0.0749,0.11002 -0.0349,0.0918 -0.35297,0.33441 -0.57709,0.4402 -0.0977,0.0461 -0.28381,0.0989 -0.41357,0.1173 -0.26471,0.0375 -7.72575,0.0391 -7.92312,0.002 z"
       id="path1580-6-2-3-9-0" />
    <path
       style="fill:#00ffff;stroke-width:0.0320536;opacity:0.3"
       d="m 133.52096,26.094881 c -0.18971,-0.036 -0.4805,-0.195251 -0.61347,-0.335981 -0.0683,-0.0723 -0.16603,-0.22488 -0.21719,-0.33914 -0.0784,-0.17506 -0.0932,-0.25011 -0.0939,-0.47711 -6.3e-4,-0.25146 0.007,-0.28343 0.11701,-0.4808 0.14027,-0.25151 0.25002,-0.36175 0.50433,-0.50658 0.1644,-0.0936 0.22832,-0.11048 0.48234,-0.12716 l 0.29283,-0.0192 -0.0151,-0.0998 c -0.008,-0.0549 -0.0162,-0.22237 -0.0176,-0.37223 -0.002,-0.23998 0.009,-0.29435 0.0906,-0.4562 0.13297,-0.26242 0.33379,-0.4577 0.6037,-0.58705 0.22141,-0.10611 0.24089,-0.10964 0.54686,-0.0991 0.21337,0.007 0.32558,0.0244 0.34267,0.052 0.0171,0.0278 0.0324,0.009 0.0469,-0.0569 0.0211,-0.0961 0.20046,-0.39709 0.24917,-0.41809 0.0137,-0.006 0.0248,-0.0241 0.0248,-0.0406 0,-0.10771 0.42627,-0.38996 0.68915,-0.45631 0.16369,-0.0413 0.56579,-0.0345 0.71694,0.0122 0.15184,0.0469 0.38891,0.16812 0.38891,0.19888 0,0.0132 0.0184,0.0241 0.041,0.0241 0.0225,0 0.0657,0.0289 0.0959,0.0641 0.0769,0.0898 0.19542,0.0798 0.31884,-0.0271 0.59654,-0.51625 1.55445,-0.55227 2.25903,-0.085 0.21996,0.14589 0.48606,0.43282 0.57946,0.62482 0.0214,0.0441 0.0525,0.10177 0.069,0.12822 0.0914,0.14642 0.15992,0.36338 0.17922,0.56762 0.012,0.12707 0.0385,0.24408 0.0588,0.26001 0.0203,0.0159 0.10609,0.038 0.1906,0.049 0.50067,0.0653 0.97298,0.41693 1.19637,0.89075 0.0916,0.19418 0.14304,0.66097 0.0988,0.89611 -0.0363,0.19317 -0.16315,0.48572 -0.23726,0.54723 -0.0266,0.0221 -0.0603,0.0716 -0.0749,0.11002 -0.0349,0.0918 -0.35297,0.33441 -0.5771,0.4402 -0.0977,0.0461 -0.2838,0.0989 -0.41357,0.117301 -0.2647,0.0375 -7.72576,0.0391 -7.92312,0.002 z"
       id="path1580-3-7-7-7-4-6" />
    <path
       style="fill:#00ffff;stroke-width:0.0320536;opacity:0.3"
       d="m 51.160412,35.790519 c -0.18971,-0.036 -0.480507,-0.19526 -0.613478,-0.33599 -0.06829,-0.0723 -0.166029,-0.22488 -0.217188,-0.33913 -0.07839,-0.17506 -0.09316,-0.2501 -0.09392,-0.47711 -6.35e-4,-0.25147 0.007,-0.28344 0.117016,-0.48081 0.140266,-0.2515 0.250012,-0.36175 0.504328,-0.50657 0.164398,-0.0936 0.228318,-0.11048 0.482336,-0.12716 l 0.292822,-0.0192 -0.01505,-0.0998 c -0.0083,-0.0549 -0.01619,-0.22237 -0.01759,-0.37223 -0.0019,-0.23999 0.0086,-0.29435 0.09062,-0.4562 0.13297,-0.26242 0.333785,-0.4577 0.6037,-0.58705 0.221417,-0.10612 0.240889,-0.10964 0.546859,-0.0991 0.213373,0.007 0.325583,0.0244 0.342674,0.0521 0.01714,0.0278 0.03238,0.009 0.04692,-0.0569 0.02114,-0.0961 0.200465,-0.39709 0.249161,-0.41809 0.01365,-0.006 0.02476,-0.0241 0.02476,-0.0406 0,-0.10771 0.426269,-0.38996 0.68915,-0.4563 0.163686,-0.0413 0.565798,-0.0345 0.716939,0.0122 0.151839,0.0469 0.388912,0.16811 0.388912,0.19887 0,0.0132 0.01841,0.0241 0.04095,0.0241 0.02254,0 0.06566,0.0289 0.09585,0.0641 0.07692,0.0898 0.195418,0.0798 0.318846,-0.027 0.596533,-0.51625 1.554436,-0.55227 2.259027,-0.085 0.219956,0.14589 0.486062,0.43283 0.579454,0.62482 0.0214,0.0441 0.05251,0.10178 0.069,0.12822 0.09142,0.14642 0.159921,0.36338 0.179228,0.56761 0.012,0.12708 0.03847,0.24409 0.05879,0.26002 0.02032,0.0159 0.10609,0.038 0.1906,0.049 0.500677,0.0653 0.972982,0.41693 1.196373,0.89074 0.09155,0.1942 0.14304,0.66098 0.09884,0.89613 -0.03631,0.19316 -0.163146,0.4857 -0.237263,0.54722 -0.0266,0.0221 -0.06031,0.0716 -0.07491,0.11002 -0.03492,0.0918 -0.352965,0.33442 -0.577086,0.4402 -0.0977,0.0461 -0.283807,0.0989 -0.413572,0.11731 -0.264703,0.0375 -7.725759,0.039 -7.923126,0.002 z"
       id="path1580-5-0-5-7-1" />
    <path
       style="fill:#00ffff;stroke-width:0.0320536;opacity:0.3"
       d="m 89.775639,29.442792 c -0.189704,-0.036 -0.480507,-0.19525 -0.613472,-0.33598 -0.06829,-0.0723 -0.166029,-0.22489 -0.217188,-0.33914 -0.07839,-0.17506 -0.09316,-0.25011 -0.09392,-0.47711 -6.35e-4,-0.25147 0.007,-0.28343 0.117016,-0.48081 0.140259,-0.25151 0.250012,-0.36174 0.504322,-0.50657 0.164398,-0.0936 0.228318,-0.11047 0.482336,-0.12716 l 0.292828,-0.0192 -0.01511,-0.0998 c -0.0083,-0.0549 -0.01619,-0.22236 -0.01759,-0.37222 -0.0019,-0.23999 0.0086,-0.29435 0.09062,-0.4562 0.132971,-0.26242 0.333792,-0.4577 0.603707,-0.58705 0.22141,-0.10611 0.240882,-0.10964 0.546853,-0.0991 0.213379,0.007 0.325589,0.0244 0.342674,0.052 0.01714,0.0278 0.03238,0.009 0.04692,-0.0569 0.02114,-0.0961 0.200465,-0.39709 0.249167,-0.41809 0.01365,-0.006 0.02476,-0.0242 0.02476,-0.0406 0,-0.10771 0.426275,-0.38996 0.689156,-0.45631 0.163686,-0.0413 0.565792,-0.0345 0.716939,0.0122 0.151846,0.0469 0.388912,0.16811 0.388912,0.19887 0,0.0133 0.01841,0.0241 0.04095,0.0241 0.02254,0 0.06566,0.0288 0.09585,0.0641 0.07692,0.0898 0.195418,0.0798 0.318846,-0.027 0.596533,-0.51625 1.554437,-0.55227 2.259027,-0.0849 0.21995,0.14589 0.486056,0.43283 0.579454,0.62482 0.0214,0.0441 0.05251,0.10177 0.069,0.12822 0.09141,0.14642 0.159921,0.36338 0.179228,0.56761 0.012,0.12708 0.03847,0.24408 0.05879,0.26001 0.02032,0.0159 0.106089,0.038 0.190599,0.049 0.500671,0.0653 0.972982,0.41693 1.196373,0.89074 0.09154,0.19419 0.14304,0.66097 0.09884,0.89612 -0.03631,0.19317 -0.16314,0.48571 -0.237263,0.54723 -0.02654,0.022 -0.06025,0.0716 -0.0749,0.11002 -0.03492,0.0918 -0.352971,0.33441 -0.577086,0.4402 -0.0977,0.0461 -0.283807,0.0989 -0.413578,0.1173 -0.264696,0.0375 -7.725753,0.0391 -7.92312,0.002 z"
       id="path1580-3-3-9-9-8-5" />
    <path
       style="fill:#00ffff;stroke-width:0.0320536;opacity:0.3"
       d="m 47.128579,46.739243 c -0.18971,-0.036 -0.480507,-0.19526 -0.613478,-0.33598 -0.06829,-0.0723 -0.166022,-0.22489 -0.217182,-0.339141 -0.07839,-0.17506 -0.09316,-0.2501 -0.09392,-0.47711 -6.35e-4,-0.25147 0.007,-0.28343 0.117009,-0.4808 0.140266,-0.25151 0.250018,-0.36175 0.504328,-0.50658 0.164398,-0.0936 0.228318,-0.11047 0.482336,-0.12716 l 0.292822,-0.0192 -0.01505,-0.0998 c -0.0083,-0.0549 -0.01619,-0.22237 -0.01759,-0.37222 -0.0019,-0.24 0.0086,-0.29435 0.09062,-0.45621 0.13297,-0.26241 0.333785,-0.45769 0.6037,-0.58705 0.221417,-0.10611 0.240889,-0.10964 0.54686,-0.0991 0.213372,0.007 0.325582,0.0244 0.342673,0.052 0.01714,0.0278 0.03238,0.009 0.04692,-0.0569 0.02114,-0.0961 0.200465,-0.39709 0.249161,-0.4181 0.01365,-0.006 0.02476,-0.0241 0.02476,-0.0406 0,-0.10771 0.426269,-0.38996 0.68915,-0.4563 0.163686,-0.0413 0.565798,-0.0345 0.716939,0.0122 0.151845,0.0469 0.388912,0.16811 0.388912,0.19887 0,0.0132 0.01841,0.0241 0.04095,0.0241 0.02254,0 0.06566,0.0289 0.09585,0.0641 0.07692,0.0898 0.195418,0.0798 0.318846,-0.027 0.596533,-0.51625 1.554436,-0.55228 2.259027,-0.085 0.219956,0.14588 0.486062,0.43282 0.579454,0.62482 0.0214,0.0441 0.05251,0.10177 0.069,0.12821 0.09142,0.14643 0.159921,0.36339 0.179228,0.56762 0.012,0.12707 0.03847,0.24408 0.05879,0.26001 0.02032,0.0159 0.106089,0.038 0.190599,0.049 0.500677,0.0653 0.972982,0.41693 1.196373,0.89074 0.09155,0.19419 0.14304,0.66098 0.09885,0.89612 -0.03632,0.19316 -0.163146,0.48571 -0.237263,0.54722 -0.0266,0.0221 -0.06031,0.0716 -0.0749,0.110031 -0.03492,0.0918 -0.352971,0.33441 -0.577092,0.44019 -0.0977,0.0461 -0.283807,0.0989 -0.413572,0.11731 -0.264703,0.0375 -7.725759,0.039 -7.923126,0.002 z"
       id="path1580-56-3-2-4-5" />
    <path
       style="fill:#00ffff;stroke-width:0.0320536;opacity:0.3"
       d="m 148.15014,27.996956 c -0.18971,-0.036 -0.48051,-0.19526 -0.61348,-0.33598 -0.0683,-0.0723 -0.16602,-0.22489 -0.21718,-0.33915 -0.0784,-0.17506 -0.0932,-0.2501 -0.0939,-0.4771 -6.4e-4,-0.25147 0.007,-0.28343 0.11701,-0.48081 0.14027,-0.25151 0.25002,-0.36174 0.50432,-0.50657 0.1644,-0.0936 0.22833,-0.11048 0.48235,-0.12717 l 0.29282,-0.0192 -0.0151,-0.0998 c -0.008,-0.0549 -0.0162,-0.22237 -0.0176,-0.37222 -0.002,-0.23999 0.009,-0.29435 0.0906,-0.4562 0.13296,-0.26242 0.33378,-0.4577 0.6037,-0.58706 0.22142,-0.10611 0.24088,-0.10964 0.54686,-0.0991 0.21337,0.007 0.32559,0.0244 0.34267,0.052 0.0171,0.0278 0.0324,0.009 0.0469,-0.0569 0.0211,-0.0961 0.20047,-0.39709 0.24917,-0.41809 0.0137,-0.006 0.0248,-0.0241 0.0248,-0.0406 0,-0.1077 0.42627,-0.38995 0.68916,-0.4563 0.16368,-0.0413 0.56579,-0.0345 0.71693,0.0122 0.15184,0.0469 0.38892,0.16812 0.38892,0.19888 0,0.0132 0.0184,0.0241 0.041,0.0241 0.0225,0 0.0656,0.0289 0.0958,0.0641 0.0769,0.0898 0.19542,0.0798 0.31884,-0.027 0.59654,-0.51625 1.55444,-0.55227 2.25903,-0.0849 0.21996,0.14588 0.48606,0.43283 0.57945,0.62482 0.0214,0.0441 0.0525,0.10177 0.069,0.12821 0.0914,0.14643 0.15993,0.36339 0.17923,0.56762 0.012,0.12708 0.0385,0.24408 0.0588,0.26001 0.0203,0.0159 0.10608,0.038 0.19059,0.049 0.50068,0.0653 0.97299,0.41693 1.19638,0.89074 0.0915,0.19419 0.14304,0.66098 0.0988,0.89612 -0.0363,0.19316 -0.16315,0.48571 -0.23727,0.54722 -0.0266,0.0221 -0.0603,0.0716 -0.0749,0.11003 -0.0349,0.0918 -0.35297,0.33441 -0.57709,0.44019 -0.0977,0.0461 -0.2838,0.0989 -0.41357,0.11731 -0.2647,0.0375 -7.72575,0.0391 -7.92312,0.002 z"
       id="path1580-3-2-6-2-5-4" />
  </g>
</svg>
