<?xml version="1.0" encoding="UTF-8" standalone="no"?>
<!-- Created with Inkscape (http://www.inkscape.org/) -->

<svg
   width="800"
   height="250"
   viewBox="0 0 211.66666 66.145835"
   version="1.1"
   id="svg5"
   inkscape:version="1.1.2 (1:1.1+202202050950+0a00cf5339)"
   sodipodi:docname="clouds.svg"
   xmlns:inkscape="http://www.inkscape.org/namespaces/inkscape"
   xmlns:sodipodi="http://sodipodi.sourceforge.net/DTD/sodipodi-0.dtd"
   xmlns="http://www.w3.org/2000/svg"
   xmlns:svg="http://www.w3.org/2000/svg">
  <sodipodi:namedview
     id="namedview7"
     pagecolor="#505050"
     bordercolor="#ffffff"
     borderopacity="1"
     inkscape:pageshadow="0"
     inkscape:pageopacity="0"
     inkscape:pagecheckerboard="1"
     inkscape:document-units="px"
     showgrid="false"
     units="px"
     inkscape:zoom="1.102876"
     inkscape:cx="487.36213"
     inkscape:cy="194.03813"
     inkscape:window-width="1600"
     inkscape:window-height="875"
     inkscape:window-x="0"
     inkscape:window-y="0"
     inkscape:window-maximized="1"
     inkscape:current-layer="layer1" />
  <defs
     id="defs2">
    <clipPath
       clipPathUnits="userSpaceOnUse"
       id="clipPath976">
      <path
         d="M 7500,0 H 0 v 5000 h 7500 z"
         id="path974" />
    </clipPath>
    <clipPath
       clipPathUnits="userSpaceOnUse"
       id="clipPath982">
      <path
         d="m 4942.3,4853.5 c -13.4,-215.8 -141.3,-434.1 -345.9,-519 -260.6,-108 -537,38.7 -800.6,53 -127.1,6.8 -246.5,-22.9 -354.3,-90.5 -267.93,-166.26 -433.35,-499.55 -761.8,-562.5 -271.5,-47.8 -528.6,130.4 -799.1,80.8 C 1332.47,3680.68 1306.76,2603.6 67.2773,2929.71 -526.52,3140.09 -786.117,3848.25 -694.207,4433.9 c 93.508,465.4 471.906,858.6 928.309,982.5 C 821.301,5575.8 1389.1,5225.7 1975.6,5242 c 881.73,22.55 1819.21,825.49 2656.01,227.9 187.09,-145.9 325.69,-372.8 310.69,-616.4 z"
         id="path980" />
    </clipPath>
    <clipPath
       clipPathUnits="userSpaceOnUse"
       id="clipPath1034">
      <path
         d="M 7500,0 H 0 v 5000 h 7500 z"
         id="path1032" />
    </clipPath>
    <clipPath
       clipPathUnits="userSpaceOnUse"
       id="clipPath1040">
      <path
         d="m 7133.59,845.281 c 0,-621.789 -504.07,-1125.871 -1125.87,-1125.871 -621.8,0 -1125.86,504.082 -1125.86,1125.871 0,621.799 504.06,1125.869 1125.86,1125.869 621.8,0 1125.87,-504.07 1125.87,-1125.869 z"
         id="path1038" />
    </clipPath>
  </defs>
  <g
     inkscape:label="Layer 1"
     inkscape:groupmode="layer"
     id="layer1">
    <path
       d="m 85.378371,13.901835 c -0.17574,2.830208 -1.853144,5.693204 -4.536465,6.806665 -3.417759,1.416416 -7.042734,-0.507549 -10.499838,-0.695093 -1.666912,-0.08918 -3.232838,0.300332 -4.646631,1.186904 -3.513892,2.180493 -5.683368,6.551579 -9.990978,7.377166 C 52.143747,29.204372 48.771891,26.867286 45.224294,27.517788 38.03559,29.283324 37.698404,43.409187 21.442636,39.132266 13.655008,36.373141 10.250403,27.08565 11.455799,19.404872 12.682153,13.301169 17.644828,8.1443662 23.630536,6.5194225 31.331628,4.4288976 38.77829,9.0204458 46.470215,8.8066718 58.03407,8.5109298 70.329084,-2.0195976 81.303684,5.8177721 c 2.453679,1.9134728 4.271412,4.8892579 4.074687,8.0840629"
       style="fill:#c2c3e8;fill-opacity:1;fill-rule:nonzero;stroke:none;stroke-width:0.013115;opacity:0.2"
       id="path968" />
    <g
       id="g970"
       transform="matrix(0.01311496,0,0,-0.01311496,20.560297,77.5553)"
       style="opacity:0.2">
      <g
         id="g972"
         clip-path="url(#clipPath976)">
        <g
           id="g978"
           clip-path="url(#clipPath982)">
          <path
             d="m 3594.4,3981.95 3.6,-3.5 -11.9,-12.2 -3.6,3.5 c -92.5,90.1 -237.5,90.1 -330.1,0 -49.6,-48.3 -113.3,-72.4 -176.9,-72.4 -63.7,0 -127.3,24.1 -176.9,72.4 -92.6,90.1 -237.6,90.1 -330.2,0 -47.9,-46.7 -110.8,-72.4 -176.9,-72.4 -66.1,0 -128.9,25.7 -176.9,72.4 -92.6,90.2 -237.6,90.2 -330.1,0 -99.2,-96.6 -254.7,-96.6 -353.9,0 -92.5,90.1 -237.6,90.1 -330.1,0 -99.2,-96.6 -254.699,-96.6 -353.902,0 -92.5,90.1 -237.5,90.1 -330.098,0 -99.199,-96.6 -254.602,-96.6 -353.801,0 -92.6013,90.1 -237.6013,90.1 -330.199,0 l -3.5,-3.5 -11.898,12.2 3.597,3.5 c 99.1994,96.6 254.5979,96.6 353.797,0 92.606,-90.1 237.606,-90.1 330.199,0 99.207,96.6 254.602,96.6 353.805,0 92.598,-90.1 237.6,-90.1 330.1,0 99.2,96.6 254.7,96.6 353.9,0 92.5,-90.1 237.6,-90.1 330.1,0 99.2,96.6 254.7,96.6 353.9,0 92.5,-90.1 237.5,-90.1 330.1,0 99.2,96.6 254.6,96.6 353.8,0 92.6,-90.1 237.6,-90.1 330.2,0 99.1,96.6 254.6,96.6 353.8,0"
             style="fill:#fef3e8;fill-opacity:1;fill-rule:nonzero;stroke:none"
             id="path984" />
          <path
             d="m 3594.4,4183.65 3.6,-3.5 -11.9,-12.2 -3.6,3.5 c -92.5,90.1 -237.5,90.1 -330.1,0 -99.2,-96.6 -254.6,-96.6 -353.8,0 -92.6,90.1 -237.6,90.1 -330.2,0 -47.9,-46.7 -110.8,-72.5 -176.9,-72.5 -66.1,0 -128.9,25.8 -176.9,72.5 -92.6,90.1 -237.6,90.1 -330.1,0 -49.6,-48.3 -113.3,-72.5 -177,-72.5 -63.6,0 -127.3,24.2 -176.9,72.5 -92.5,90.1 -237.5,90.1 -330.1,0 -99.2,-96.6 -254.699,-96.6 -353.902,0 -92.5,90.1 -237.5,90.1 -330.098,0 -99.199,-96.6 -254.602,-96.6 -353.801,0 -92.6013,90.1 -237.6013,90.1 -330.199,0 l -3.5,-3.5 -11.898,12.2 3.597,3.5 c 99.1994,96.6 254.5979,96.6 353.797,0 92.606,-90.2 237.606,-90.2 330.199,0 99.207,96.5 254.602,96.5 353.805,0 92.598,-90.2 237.6,-90.1 330.1,0 99.2,96.6 254.7,96.6 353.9,0 92.5,-90.2 237.6,-90.2 330.1,0 99.2,96.6 254.7,96.6 353.9,0 92.5,-90.2 237.5,-90.2 330.1,0 99.2,96.6 254.6,96.6 353.8,0 92.6,-90.2 237.6,-90.2 330.2,0 99.1,96.6 254.6,96.6 353.8,0"
             style="fill:#fef3e8;fill-opacity:1;fill-rule:nonzero;stroke:none"
             id="path986" />
          <path
             d="m 3594.4,4385.25 3.6,-3.5 -11.9,-12.2 -3.6,3.5 c -92.5,90.1 -237.5,90.1 -330.1,0 -49.6,-48.3 -113.2,-72.4 -176.9,-72.4 -63.7,0 -127.3,24.1 -176.9,72.4 -92.6,90.1 -237.6,90.1 -330.2,0 -47.9,-46.7 -110.8,-72.4 -176.9,-72.4 -66.1,0 -128.9,25.7 -176.9,72.4 -92.6,90.1 -237.6,90.1 -330.1,0 -99.3,-96.6 -254.7,-96.6 -353.9,0 -92.5,90.1 -237.5,90.1 -330.1,0 -99.2,-96.6 -254.602,-96.6 -353.902,0 -92.5,90.1 -237.5,90.1 -330.098,0 -99.199,-96.6 -254.602,-96.6 -353.801,0 -92.6013,90.1 -237.6013,90.1 -330.199,0 l -3.5,-3.5 -11.898,12.2 3.597,3.5 c 99.1994,96.6 254.5979,96.6 353.797,0 92.606,-90.1 237.606,-90.1 330.199,0 99.207,96.6 254.602,96.6 353.805,0 92.598,-90.1 237.6,-90.1 330.1,0 99.2,96.6 254.7,96.6 353.9,0 92.5,-90.1 237.6,-90.1 330.1,0 99.2,96.6 254.7,96.6 353.9,0 92.5,-90.1 237.5,-90.1 330.1,0 99.2,96.6 254.6,96.6 353.8,0 92.6,-90.1 237.6,-90.1 330.2,0 99.1,96.6 254.6,96.6 353.8,0"
             style="fill:#fef3e8;fill-opacity:1;fill-rule:nonzero;stroke:none"
             id="path988" />
          <path
             d="m -171,4974.55 -11.898,12.2 3.597,3.5 c 99.1994,96.5 254.5979,96.6 353.797,0 92.606,-90.2 237.606,-90.2 330.199,0 99.207,96.5 254.602,96.5 353.805,0 92.598,-90.2 237.6,-90.2 330.1,0 99.2,96.5 254.7,96.5 353.9,0 92.5,-90.2 237.6,-90.2 330.1,0 99.2,96.6 254.7,96.6 353.9,0 92.5,-90.2 237.5,-90.2 330.1,0 99.2,96.6 254.6,96.6 353.8,0 92.6,-90.2 237.6,-90.2 330.2,0 99.1,96.6 254.6,96.6 353.8,0 l 3.6,-3.5 -11.9,-12.2 -3.6,3.5 c -92.5,90.1 -237.5,90.1 -330.1,0 -99.2,-96.6 -254.6,-96.6 -353.8,0 -92.6,90.1 -237.6,90.1 -330.2,0 -47.9,-46.8 -110.8,-72.5 -176.9,-72.5 -66.1,0 -128.9,25.7 -176.9,72.5 -92.6,90.1 -237.6,90.1 -330.1,0 -49.6,-48.3 -113.3,-72.5 -177,-72.5 -63.6,0 -127.3,24.2 -176.9,72.5 -92.5,90.1 -237.5,90.1 -330.1,0 -99.2,-96.6 -254.602,-96.6 -353.902,0 -92.5,90.1 -237.5,90.1 -330.098,0 -99.199,-96.6 -254.602,-96.6 -353.801,0 -92.6013,90.1 -237.6013,90.1 -330.199,0 l -3.5,-3.5"
             style="fill:#fef3e8;fill-opacity:1;fill-rule:nonzero;stroke:none"
             id="path990" />
          <path
             d="m 3594.4,4788.55 3.6,-3.5 -11.9,-12.2 -3.6,3.5 c -92.5,90.1 -237.5,90.1 -330.1,0 -99.2,-96.6 -254.6,-96.6 -353.8,0 -92.6,90.1 -237.6,90.1 -330.2,0 -47.9,-46.7 -110.8,-72.4 -176.9,-72.4 -66.1,0 -128.9,25.7 -176.9,72.4 -92.6,90.1 -237.6,90.1 -330.1,0 -49.6,-48.3 -113.3,-72.4 -177,-72.4 -63.6,0 -127.3,24.1 -176.9,72.4 -92.5,90.1 -237.5,90.1 -330.1,0 -99.2,-96.6 -254.699,-96.6 -353.902,0 -92.5,90.1 -237.5,90.1 -330.098,0 -99.199,-96.6 -254.602,-96.6 -353.801,0 -92.6013,90.1 -237.6013,90.1 -330.199,0 l -3.5,-3.5 -11.898,12.2 3.597,3.5 c 99.1994,96.6 254.5979,96.6 353.797,0 92.606,-90.1 237.606,-90.1 330.199,0 99.207,96.6 254.602,96.6 353.805,0 92.598,-90.1 237.6,-90.1 330.1,0 99.2,96.6 254.7,96.6 353.9,0 92.5,-90.1 237.6,-90.1 330.1,0 99.2,96.6 254.7,96.6 353.9,0 92.5,-90.1 237.5,-90.1 330.1,0 99.2,96.6 254.6,96.6 353.8,0 92.6,-90.1 237.6,-90.1 330.2,0 99.1,96.6 254.6,96.6 353.8,0"
             style="fill:#fef3e8;fill-opacity:1;fill-rule:nonzero;stroke:none"
             id="path992" />
          <path
             d="m 3594.4,4586.85 3.6,-3.4 -11.9,-12.2 -3.6,3.5 c -92.5,90.1 -237.5,90.1 -330.1,0 -49.6,-48.3 -113.2,-72.5 -176.9,-72.5 -63.7,0 -127.3,24.2 -176.9,72.5 -92.6,90.1 -237.6,90.1 -330.2,0 -47.9,-46.7 -110.8,-72.5 -176.9,-72.5 -66.1,0 -128.9,25.7 -176.9,72.5 -92.6,90.1 -237.6,90.1 -330.1,0 -99.2,-96.6 -254.7,-96.6 -353.9,0 -92.5,90.1 -237.6,90.1 -330.1,0 -99.2,-96.6 -254.602,-96.6 -353.902,0 -92.5,90.1 -237.5,90.1 -330.098,0 -99.199,-96.6 -254.602,-96.6 -353.801,0 -92.6013,90.1 -237.6013,90.1 -330.199,0 l -3.5,-3.5 -11.898,12.2 3.597,3.4 c 99.1994,96.7 254.5979,96.7 353.797,0 92.606,-90.1 237.606,-90.1 330.199,0 99.207,96.6 254.602,96.6 353.805,0 92.598,-90.1 237.6,-90.1 330.1,0 99.2,96.7 254.7,96.7 353.9,0 92.5,-90.1 237.6,-90.1 330.1,0 99.2,96.7 254.6,96.6 353.9,0 92.5,-90.1 237.5,-90.1 330.1,0 99.2,96.7 254.6,96.6 353.8,0 92.6,-90.1 237.6,-90.1 330.2,0 99.2,96.7 254.6,96.7 353.8,0"
             style="fill:#fef3e8;fill-opacity:1;fill-rule:nonzero;stroke:none"
             id="path994" />
          <path
             d="m 3594.4,2955.33 3.6,-3.5 -11.9,-12.2 -3.6,3.5 c -92.5,90.1 -237.5,90.1 -330.1,0 -99.2,-96.6 -254.6,-96.6 -353.8,0 -92.6,90.1 -237.6,90.1 -330.2,0 -47.9,-46.7 -110.8,-72.5 -176.9,-72.5 -66.1,0 -128.9,25.8 -176.9,72.5 -92.6,90.1 -237.6,90.1 -330.1,0 -49.6,-48.3 -113.3,-72.5 -177,-72.5 -63.6,0 -127.3,24.2 -176.9,72.5 -92.5,90.1 -237.5,90.1 -330.1,0 -99.2,-96.6 -254.699,-96.6 -353.902,0 -92.5,90.1 -237.5,90.1 -330.098,0 -99.199,-96.6 -254.602,-96.6 -353.801,0 -92.6013,90.1 -237.6013,90.1 -330.199,0 l -3.5,-3.5 -11.898,12.2 3.597,3.5 c 99.1994,96.6 254.5979,96.6 353.797,0 92.606,-90.2 237.606,-90.2 330.199,0 99.207,96.5 254.602,96.5 353.805,0 92.598,-90.2 237.6,-90.1 330.1,0 99.2,96.6 254.7,96.6 353.9,0 92.5,-90.2 237.6,-90.2 330.1,0 99.2,96.6 254.7,96.6 353.9,0 92.5,-90.2 237.5,-90.2 330.1,0 99.2,96.6 254.6,96.6 353.8,0 92.6,-90.2 237.6,-90.2 330.2,0 99.1,96.6 254.6,96.6 353.8,0"
             style="fill:#fef3e8;fill-opacity:1;fill-rule:nonzero;stroke:none"
             id="path996" />
          <path
             d="m 3594.4,3156.93 3.6,-3.5 -11.9,-12.2 -3.6,3.5 c -92.5,90.1 -237.5,90.1 -330.1,0 -49.6,-48.3 -113.2,-72.4 -176.9,-72.4 -63.7,0 -127.3,24.1 -176.9,72.4 -92.6,90.1 -237.6,90.1 -330.2,0 -47.9,-46.7 -110.8,-72.4 -176.9,-72.4 -66.1,0 -128.9,25.7 -176.9,72.4 -92.6,90.1 -237.6,90.1 -330.1,0 -99.3,-96.6 -254.7,-96.6 -353.9,0 -92.5,90.1 -237.5,90.1 -330.1,0 -99.2,-96.6 -254.602,-96.6 -353.902,0 -92.5,90.1 -237.5,90.1 -330.098,0 -99.199,-96.6 -254.602,-96.6 -353.801,0 -92.6013,90.1 -237.6013,90.1 -330.199,0 l -3.5,-3.5 -11.898,12.2 3.597,3.5 c 99.1994,96.6 254.5979,96.6 353.797,0 92.606,-90.1 237.606,-90.1 330.199,0 99.207,96.6 254.602,96.6 353.805,0 92.598,-90.1 237.6,-90.1 330.1,0 99.2,96.6 254.7,96.6 353.9,0 92.5,-90.1 237.6,-90.1 330.1,0 99.2,96.6 254.7,96.6 353.9,0 92.5,-90.1 237.5,-90.1 330.1,0 99.2,96.6 254.6,96.6 353.8,0 92.6,-90.1 237.6,-90.1 330.2,0 99.1,96.6 254.6,96.6 353.8,0"
             style="fill:#fef3e8;fill-opacity:1;fill-rule:nonzero;stroke:none"
             id="path998" />
          <path
             d="m -171,3746.23 -11.898,12.2 3.597,3.5 c 99.1994,96.5 254.5979,96.6 353.797,0 92.606,-90.2 237.606,-90.2 330.199,0 99.207,96.5 254.602,96.5 353.805,0 92.598,-90.2 237.6,-90.2 330.1,0 99.2,96.5 254.7,96.5 353.9,0 92.5,-90.2 237.6,-90.2 330.1,0 99.2,96.6 254.7,96.6 353.9,0 92.5,-90.2 237.5,-90.2 330.1,0 99.2,96.6 254.6,96.6 353.8,0 92.6,-90.2 237.6,-90.2 330.2,0 99.1,96.6 254.6,96.6 353.8,0 l 3.6,-3.5 -11.9,-12.2 -3.6,3.5 c -92.5,90.1 -237.5,90.1 -330.1,0 -99.2,-96.6 -254.6,-96.6 -353.8,0 -92.6,90.1 -237.6,90.1 -330.2,0 -47.9,-46.8 -110.8,-72.5 -176.9,-72.5 -66.1,0 -128.9,25.7 -176.9,72.5 -92.6,90.1 -237.6,90.1 -330.1,0 -49.6,-48.3 -113.3,-72.5 -177,-72.5 -63.6,0 -127.3,24.2 -176.9,72.5 -92.5,90.1 -237.5,90.1 -330.1,0 -99.2,-96.6 -254.602,-96.6 -353.902,0 -92.5,90.1 -237.5,90.1 -330.098,0 -99.199,-96.6 -254.602,-96.6 -353.801,0 -92.6013,90.1 -237.6013,90.1 -330.199,0 l -3.5,-3.5"
             style="fill:#fef3e8;fill-opacity:1;fill-rule:nonzero;stroke:none"
             id="path1000" />
          <path
             d="m 3594.4,3560.23 3.6,-3.5 -11.9,-12.2 -3.6,3.5 c -92.5,90.1 -237.5,90.1 -330.1,0 -99.2,-96.6 -254.6,-96.6 -353.8,0 -92.6,90.1 -237.6,90.1 -330.2,0 -47.9,-46.7 -110.8,-72.4 -176.9,-72.4 -66.1,0 -128.9,25.7 -176.9,72.4 -92.6,90.1 -237.6,90.1 -330.1,0 -49.6,-48.3 -113.3,-72.4 -177,-72.4 -63.6,0 -127.3,24.1 -176.9,72.4 -92.5,90.1 -237.5,90.1 -330.1,0 -99.2,-96.6 -254.699,-96.6 -353.902,0 -92.5,90.1 -237.5,90.1 -330.098,0 -99.199,-96.6 -254.602,-96.6 -353.801,0 -92.6013,90.1 -237.6013,90.1 -330.199,0 l -3.5,-3.5 -11.898,12.2 3.597,3.5 c 99.1994,96.6 254.5979,96.6 353.797,0 92.606,-90.1 237.606,-90.1 330.199,0 99.207,96.6 254.602,96.6 353.805,0 92.598,-90.1 237.6,-90.1 330.1,0 99.2,96.6 254.7,96.6 353.9,0 92.5,-90.1 237.6,-90.1 330.1,0 99.2,96.6 254.7,96.6 353.9,0 92.5,-90.1 237.5,-90.1 330.1,0 99.2,96.6 254.6,96.6 353.8,0 92.6,-90.1 237.6,-90.1 330.2,0 99.1,96.6 254.6,96.6 353.8,0"
             style="fill:#fef3e8;fill-opacity:1;fill-rule:nonzero;stroke:none"
             id="path1002" />
          <path
             d="m 3594.4,3358.53 3.6,-3.4 -11.9,-12.2 -3.6,3.5 c -92.5,90.1 -237.5,90.1 -330.1,0 -49.6,-48.3 -113.2,-72.5 -176.9,-72.5 -63.7,0 -127.3,24.2 -176.9,72.5 -92.6,90.1 -237.6,90.1 -330.2,0 -47.9,-46.7 -110.8,-72.5 -176.9,-72.5 -66.1,0 -128.9,25.7 -176.9,72.5 -92.6,90.1 -237.6,90.1 -330.1,0 -99.2,-96.6 -254.7,-96.6 -353.9,0 -92.5,90.1 -237.6,90.1 -330.1,0 -99.2,-96.6 -254.602,-96.6 -353.902,0 -92.5,90.1 -237.5,90.1 -330.098,0 -99.199,-96.6 -254.602,-96.6 -353.801,0 -92.6013,90.1 -237.6013,90.1 -330.199,0 l -3.5,-3.5 -11.898,12.2 3.597,3.4 c 99.1994,96.7 254.5979,96.7 353.797,0 92.606,-90.1 237.606,-90.1 330.199,0 99.207,96.6 254.602,96.6 353.805,0 92.598,-90.1 237.6,-90.1 330.1,0 99.2,96.7 254.7,96.7 353.9,0 92.5,-90.1 237.6,-90.1 330.1,0 99.2,96.7 254.6,96.6 353.9,0 92.5,-90.1 237.5,-90.1 330.1,0 99.2,96.7 254.6,96.6 353.8,0 92.6,-90.1 237.6,-90.1 330.2,0 99.2,96.7 254.6,96.7 353.8,0"
             style="fill:#fef3e8;fill-opacity:1;fill-rule:nonzero;stroke:none"
             id="path1004" />
        </g>
      </g>
    </g>
    <path
       d="m 141.52653,38.81135 c 0.0866,0.31737 0.0866,0.651801 -0.004,0.969171 -0.0918,0.32921 -0.26754,0.628245 -0.46427,0.903658 -0.21639,0.302916 -0.45509,0.590173 -0.68722,0.881316 -0.25574,0.321314 -0.5128,0.642632 -0.76854,0.963947 -0.50755,0.637361 -1.01116,1.276101 -1.52658,1.905618 -0.24525,0.300306 -0.49312,0.600627 -0.75018,0.891818 -0.12721,0.141652 -0.25705,0.280632 -0.39344,0.413121 -0.004,0.0026 -0.005,0.0078 -0.008,0.01179 -0.35411,0.462971 -0.89445,0.782951 -1.47019,0.870872 -0.63345,0.09702 -1.28265,-0.07742 -1.82036,-0.414459 -1.17772,-0.742332 -1.68003,-2.163967 -1.68658,-3.504306 -0.008,-1.293161 0.43279,-2.583646 1.21051,-3.613172 0.79345,-1.050535 1.93052,-1.792801 3.20398,-2.120675 0.63739,-0.163937 1.30363,-0.22563 1.95938,-0.174442 0.66624,0.05112 1.34428,0.208501 1.93577,0.52587 0.59148,0.317435 1.08854,0.830189 1.26953,1.489886"
       style="fill:#acdde0;fill-opacity:1;fill-rule:nonzero;stroke:none;stroke-width:0.013115;opacity:0.2"
       id="path1006" />
    <path
       d="m 161.90062,54.360476 c 0.0374,0.09754 0.13928,0.606657 -0.0577,0.356714 -1.74652,6.730428 -10.54456,6.444153 -16.00012,5.200186 -10.20908,-2.515461 -10.69748,-16.681667 -0.52197,-19.667326 4.97437,-1.383222 10.22035,1.461912 13.03482,5.537122 2.02128,2.351421 3.88885,5.351981 3.54498,8.573304"
       style="fill:#c2c3e8;fill-opacity:1;fill-rule:nonzero;stroke:none;stroke-width:0.013115;opacity:0.2"
       id="path1008" />
    <path
       d="m 29.958505,32.570983 c 0.07904,6.406658 -7.110264,11.304703 -4.798542,17.957005 2.293833,7.133358 -1.086902,13.976496 -9.066897,14.092013 C 5.5638633,64.213844 1.2931058,52.106242 2.8253294,43.069509 3.76003,36.109268 5.494221,28.089338 11.832238,24.060684 c 3.900114,-2.645812 9.090002,-2.138395 12.813369,0.581124 2.687754,1.793733 5.202391,4.537645 5.312898,7.929175"
       style="fill:#fad0cf;fill-opacity:1;fill-rule:nonzero;stroke:none;stroke-width:0.013115;opacity:0.2"
       id="path1010" />
    <path
       d="m 209.28892,41.954994 c -4.16544,13.573226 -17.9052,22.711453 -31.9049,22.69388 -9.81734,0.278956 -24.52642,-3.878105 -23.88641,-15.989624 0.31253,-3.136316 2.27479,-6.09584 5.25424,-7.265588 6.66319,-2.768687 14.89703,1.947728 20.86315,-3.049231 4.91458,-4.280303 4.77923,-11.603829 8.64395,-16.552366 4.21187,-5.214377 12.56807,-4.846502 17.1242,-0.273971 5.51249,5.153786 6.16259,13.577657 3.90577,20.4369"
       style="fill:#fad0cf;fill-opacity:1;fill-rule:nonzero;stroke:none;stroke-width:0.013115;opacity:0.2"
       id="path1012" />
    <path
       d="m 194.21839,38.427331 c 0,8.15474 -6.61086,14.765755 -14.76575,14.765755 -8.15488,0 -14.76561,-6.611015 -14.76561,-14.765755 0,-8.154869 6.61073,-14.765728 14.76561,-14.765728 8.15489,0 14.76575,6.610859 14.76575,14.765728"
       style="fill:#fddeca;fill-opacity:1;fill-rule:nonzero;stroke:none;stroke-width:0.013115;opacity:0.2"
       id="path1014" />
    <path
       d="m 145.68306,36.99165 c 0,0.792944 -0.64277,1.435681 -1.4357,1.435681 -0.7928,0 -1.43556,-0.642737 -1.43556,-1.435681 0,-0.792799 0.64276,-1.435564 1.43556,-1.435564 0.79293,0 1.4357,0.642765 1.4357,1.435564"
       style="fill:#acdde0;fill-opacity:1;fill-rule:nonzero;stroke:none;stroke-width:0.013115;opacity:0.2"
       id="path1016" />
    <path
       d="m 99.092294,30.580262 c 0,2.738536 -2.21997,4.958374 -4.958374,4.958374 -2.738537,0 -4.958373,-2.219838 -4.958373,-4.958374 0,-2.738404 2.219836,-4.958242 4.958373,-4.958242 2.738404,0 4.958374,2.219838 4.958374,4.958242"
       style="fill:#acdde0;fill-opacity:1;fill-rule:nonzero;stroke:none;stroke-width:0.013115;opacity:0.2"
       id="path1018" />
    <path
       d="m 31.515801,43.580206 c -1.753719,0 -3.180483,1.426645 -3.180483,3.180509 0,1.753602 1.426764,3.180509 3.180483,3.180509 1.75372,0 3.180457,-1.426907 3.180457,-3.180509 0,-1.753864 -1.426737,-3.180509 -3.180457,-3.180509 z m 0,7.82714 c -2.56223,0 -4.646801,-2.084492 -4.646801,-4.646631 0,-2.56227 2.084571,-4.646762 4.646801,-4.646762 2.562218,0 4.64671,2.084492 4.64671,4.646762 0,2.562139 -2.084492,4.646631 -4.64671,4.646631"
       style="fill:#f5a7b7;fill-opacity:1;fill-rule:nonzero;stroke:none;stroke-width:0.013115;opacity:0.2"
       id="path1020" />
    <path
       d="m 113.45777,8.7999838 c -1.7536,0 -3.18051,1.4269072 -3.18051,3.1805092 0,1.753601 1.42691,3.180509 3.18051,3.180509 1.7536,0 3.18051,-1.426908 3.18051,-3.180509 0,-1.753602 -1.42691,-3.1805092 -3.18051,-3.1805092 z m 0,7.8272712 c -2.56227,0 -4.64663,-2.084492 -4.64663,-4.646762 0,-2.5622702 2.08436,-4.6467623 4.64663,-4.6467623 2.56214,0 4.64663,2.0844921 4.64663,4.6467623 0,2.56227 -2.08449,4.646762 -4.64663,4.646762"
       style="fill:#f5a7b7;fill-opacity:1;fill-rule:nonzero;stroke:none;stroke-width:0.013115;opacity:0.2"
       id="path1022" />
    <path
       d="m 147.38157,46.332626 c -1.75373,0 -3.1805,1.426918 -3.1805,3.180533 0,1.753616 1.42677,3.180482 3.1805,3.180482 1.75374,0 3.18051,-1.426866 3.18051,-3.180482 0,-1.753615 -1.42677,-3.180533 -3.18051,-3.180533 z m 0,7.827176 c -2.56213,0 -4.64676,-2.084358 -4.64676,-4.646643 0,-2.562284 2.08463,-4.646642 4.64676,-4.646642 2.56227,0 4.64677,2.084358 4.64677,4.646642 0,2.562285 -2.0845,4.646643 -4.64677,4.646643"
       style="fill:#fef3e8;fill-opacity:1;fill-rule:nonzero;stroke:none;stroke-width:0.013115;opacity:0.2"
       id="path1024" />
    <path
       d="m 142.49031,6.8691116 c 0.0866,0.31737 0.0866,0.651801 -0.004,0.969171 -0.0918,0.32921 -0.26754,0.628245 -0.46427,0.903658 -0.21639,0.302916 -0.45509,0.590173 -0.68722,0.881316 -0.25574,0.321314 -0.5128,0.6426324 -0.76854,0.9639474 -0.50755,0.637361 -1.01116,1.276101 -1.52658,1.905618 -0.24525,0.300306 -0.49312,0.600627 -0.75018,0.891818 -0.12721,0.141652 -0.25705,0.280632 -0.39344,0.413121 -0.004,0.0026 -0.005,0.0078 -0.008,0.01179 -0.35411,0.462971 -0.89445,0.782951 -1.47019,0.870872 -0.63345,0.09702 -1.28265,-0.07742 -1.82036,-0.414459 -1.17772,-0.742332 -1.68003,-2.163967 -1.68658,-3.504306 -0.008,-1.2931614 0.43279,-2.5836464 1.21051,-3.6131724 0.79345,-1.050535 1.93052,-1.792801 3.20398,-2.120675 0.63739,-0.163937 1.30363,-0.22563 1.95938,-0.174442 0.66624,0.05112 1.34428,0.208501 1.93577,0.52587 0.59148,0.317435 1.08854,0.830189 1.26953,1.489886"
       style="fill:#acdde0;fill-opacity:1;fill-rule:nonzero;stroke:none;stroke-width:0.013115;opacity:0.2"
       id="path1006-1" />
    <path
       d="m 162.8644,22.418238 c 0.0374,0.09754 0.13928,0.606657 -0.0577,0.356714 -1.74652,6.730428 -10.54456,6.444153 -16.00012,5.200186 -10.20908,-2.515461 -10.69748,-16.681667 -0.52197,-19.6673264 4.97437,-1.383222 10.22035,1.461912 13.03482,5.5371224 2.02128,2.351421 3.88885,5.351981 3.54498,8.573304"
       style="fill:#c2c3e8;fill-opacity:1;fill-rule:nonzero;stroke:none;stroke-width:0.013115;opacity:0.2"
       id="path1008-2" />
    <path
       d="m 146.64684,5.0494116 c 0,0.792944 -0.64277,1.435681 -1.4357,1.435681 -0.7928,0 -1.43556,-0.642737 -1.43556,-1.435681 0,-0.792799 0.64276,-1.435564 1.43556,-1.435564 0.79293,0 1.4357,0.642765 1.4357,1.435564"
       style="fill:#acdde0;fill-opacity:1;fill-rule:nonzero;stroke:none;stroke-width:0.013115;opacity:0.2"
       id="path1016-7" />
    <path
       d="m 148.34535,14.390388 c -1.75373,0 -3.1805,1.426918 -3.1805,3.180533 0,1.753616 1.42677,3.180482 3.1805,3.180482 1.75374,0 3.18051,-1.426866 3.18051,-3.180482 0,-1.753615 -1.42677,-3.180533 -3.18051,-3.180533 z m 0,7.827176 c -2.56213,0 -4.64676,-2.084358 -4.64676,-4.646643 0,-2.562284 2.08463,-4.646642 4.64676,-4.646642 2.56227,0 4.64677,2.084358 4.64677,4.646642 0,2.562285 -2.0845,4.646643 -4.64677,4.646643"
       style="fill:#fef3e8;fill-opacity:1;fill-rule:nonzero;stroke:none;stroke-width:0.013115;opacity:0.2"
       id="path1024-0" />
    <path
       d="m 199.02384,23.027888 c -1.34992,0 -2.4483,1.098247 -2.4483,2.448301 0,1.349923 1.09838,2.448301 2.4483,2.448301 1.34992,0 2.4483,-1.098378 2.4483,-2.448301 0,-1.350054 -1.09838,-2.448301 -2.4483,-2.448301 z m 0,6.025276 c -1.97236,0 -3.57684,-1.604616 -3.57684,-3.576975 0,-1.972359 1.60448,-3.577106 3.57684,-3.577106 1.97236,0 3.57684,1.604747 3.57684,3.577106 0,1.972359 -1.60448,3.576975 -3.57684,3.576975"
       style="fill:#acdde0;fill-opacity:1;fill-rule:nonzero;stroke:none;stroke-width:0.013115;opacity:0.2"
       id="path1026" />
    <g
       id="g1028"
       transform="matrix(0.01311496,0,0,-0.01311496,100.66162,49.513159)"
       style="opacity:0.2">
      <g
         id="g1030"
         clip-path="url(#clipPath1034)">
        <g
           id="g1036"
           clip-path="url(#clipPath1040)">
          <path
             d="m 7965.1,405.5 3.6,-3.5 -11.9,-12.199 -3.6,3.5 c -92.5,90.097 -237.5,90.097 -330.1,0 -49.6,-48.301 -113.3,-72.403 -176.9,-72.403 -63.7,0 -127.3,24.102 -176.9,72.403 -92.6,90.097 -237.6,90.097 -330.2,0 -47.9,-46.699 -110.8,-72.403 -176.9,-72.403 -66.1,0 -128.9,25.704 -176.9,72.403 -92.6,90.199 -237.6,90.199 -330.1,0 -99.2,-96.602 -254.7,-96.602 -353.9,0 -92.5,90.097 -237.6,90.097 -330.1,0 -99.2,-96.602 -254.7,-96.602 -353.9,0 -92.5,90.097 -237.5,90.097 -330.1,0 -99.2,-96.602 -254.6,-96.602 -353.8,0 -92.6,90.097 -237.6,90.097 -330.2,0 l -3.5,-3.5 -11.9,12.199 3.6,3.5 c 99.2,96.602 254.6,96.602 353.8,0 92.6,-90.102 237.6,-90.102 330.2,0 99.2,96.602 254.6,96.602 353.8,0 92.6,-90.102 237.6,-90.102 330.1,0 99.2,96.602 254.7,96.602 353.9,0 92.5,-90.102 237.6,-90.102 330.1,0 99.2,96.602 254.7,96.602 353.9,0 92.5,-90.102 237.5,-90.102 330.1,0 99.2,96.602 254.6,96.602 353.8,0 92.6,-90.102 237.6,-90.102 330.2,0 99.1,96.602 254.6,96.602 353.8,0"
             style="fill:#fef3e8;fill-opacity:1;fill-rule:nonzero;stroke:none"
             id="path1042" />
          <path
             d="m 7965.1,607.199 3.6,-3.5 -11.9,-12.199 -3.6,3.5 c -92.5,90.102 -237.5,90.102 -330.1,0 -99.2,-96.602 -254.6,-96.602 -353.8,0 -92.6,90.102 -237.6,90.102 -330.2,0 -47.9,-46.699 -110.8,-72.5 -176.9,-72.5 -66.1,0 -128.9,25.801 -176.9,72.5 -92.6,90.102 -237.6,90.102 -330.1,0 -49.6,-48.301 -113.3,-72.5 -177,-72.5 -63.6,0 -127.3,24.199 -176.9,72.5 -92.5,90.102 -237.5,90.102 -330.1,0 -99.2,-96.602 -254.7,-96.602 -353.9,0 -92.5,90.102 -237.5,90.102 -330.1,0 -99.2,-96.602 -254.6,-96.602 -353.8,0 -92.6,90.102 -237.6,90.102 -330.2,0 l -3.5,-3.5 -11.9,12.199 3.6,3.5 c 99.2,96.602 254.6,96.602 353.8,0 92.6,-90.199 237.6,-90.199 330.2,0 99.2,96.5 254.6,96.5 353.8,0 92.6,-90.199 237.6,-90.097 330.1,0 99.2,96.602 254.7,96.602 353.9,0 92.5,-90.199 237.6,-90.199 330.1,0 99.2,96.602 254.7,96.602 353.9,0 92.5,-90.199 237.5,-90.199 330.1,0 99.2,96.602 254.6,96.602 353.8,0 92.6,-90.199 237.6,-90.199 330.2,0 99.1,96.602 254.6,96.602 353.8,0"
             style="fill:#fef3e8;fill-opacity:1;fill-rule:nonzero;stroke:none"
             id="path1044" />
          <path
             d="m 7965.1,808.801 3.6,-3.5 -11.9,-12.199 -3.6,3.5 c -92.5,90.097 -237.5,90.097 -330.1,0 -49.6,-48.301 -113.2,-72.403 -176.9,-72.403 -63.7,0 -127.3,24.102 -176.9,72.403 -92.6,90.097 -237.6,90.097 -330.2,0 -47.9,-46.704 -110.8,-72.403 -176.9,-72.403 -66.1,0 -128.9,25.699 -176.9,72.403 -92.6,90.097 -237.6,90.097 -330.1,0 -99.3,-96.602 -254.7,-96.602 -353.9,0 -92.5,90.097 -237.5,90.097 -330.1,0 -99.2,-96.602 -254.6,-96.602 -353.9,0 -92.5,90.097 -237.5,90.097 -330.1,0 -99.2,-96.602 -254.6,-96.602 -353.8,0 -92.6,90.097 -237.6,90.097 -330.2,0 l -3.5,-3.5 -11.9,12.199 3.6,3.5 c 99.2,96.597 254.6,96.597 353.8,0 92.6,-90.102 237.6,-90.102 330.2,0 99.2,96.597 254.6,96.597 353.8,0 92.6,-90.102 237.6,-90.102 330.1,0 99.2,96.597 254.7,96.597 353.9,0 92.5,-90.102 237.6,-90.102 330.1,0 99.2,96.597 254.7,96.597 353.9,0 92.5,-90.102 237.5,-90.102 330.1,0 99.2,96.597 254.6,96.597 353.8,0 92.6,-90.102 237.6,-90.102 330.2,0 99.1,96.597 254.6,96.597 353.8,0"
             style="fill:#fef3e8;fill-opacity:1;fill-rule:nonzero;stroke:none"
             id="path1046" />
          <path
             d="m 4199.7,1398.1 -11.9,12.2 3.6,3.5 c 99.2,96.5 254.6,96.6 353.8,0 92.6,-90.2 237.6,-90.2 330.2,0 99.2,96.5 254.6,96.5 353.8,0 92.6,-90.2 237.6,-90.2 330.1,0 99.2,96.5 254.7,96.5 353.9,0 92.5,-90.2 237.6,-90.2 330.1,0 99.2,96.6 254.7,96.6 353.9,0 92.5,-90.2 237.5,-90.2 330.1,0 99.2,96.6 254.6,96.6 353.8,0 92.6,-90.2 237.6,-90.2 330.2,0 99.1,96.6 254.6,96.6 353.8,0 l 3.6,-3.5 -11.9,-12.2 -3.6,3.5 c -92.5,90.1 -237.5,90.1 -330.1,0 -99.2,-96.6 -254.6,-96.6 -353.8,0 -92.6,90.1 -237.6,90.1 -330.2,0 -47.9,-46.8 -110.8,-72.5 -176.9,-72.5 -66.1,0 -128.9,25.7 -176.9,72.5 -92.6,90.1 -237.6,90.1 -330.1,0 -49.6,-48.3 -113.3,-72.5 -177,-72.5 -63.6,0 -127.3,24.2 -176.9,72.5 -92.5,90.1 -237.5,90.1 -330.1,0 -99.2,-96.6 -254.6,-96.6 -353.9,0 -92.5,90.1 -237.5,90.1 -330.1,0 -99.2,-96.6 -254.6,-96.6 -353.8,0 -92.6,90.1 -237.6,90.1 -330.2,0 l -3.5,-3.5"
             style="fill:#fef3e8;fill-opacity:1;fill-rule:nonzero;stroke:none"
             id="path1048" />
          <path
             d="m 7965.1,1212.1 3.6,-3.5 -11.9,-12.2 -3.6,3.5 c -92.5,90.1 -237.5,90.1 -330.1,0 -99.2,-96.6 -254.6,-96.6 -353.8,0 -92.6,90.1 -237.6,90.1 -330.2,0 -47.9,-46.7 -110.8,-72.4 -176.9,-72.4 -66.1,0 -128.9,25.7 -176.9,72.4 -92.6,90.1 -237.6,90.1 -330.1,0 -49.6,-48.3 -113.3,-72.4 -177,-72.4 -63.6,0 -127.3,24.1 -176.9,72.4 -92.5,90.1 -237.5,90.1 -330.1,0 -99.2,-96.6 -254.7,-96.6 -353.9,0 -92.5,90.1 -237.5,90.1 -330.1,0 -99.2,-96.6 -254.6,-96.6 -353.8,0 -92.6,90.1 -237.6,90.1 -330.2,0 l -3.5,-3.5 -11.9,12.2 3.6,3.5 c 99.2,96.6 254.6,96.6 353.8,0 92.6,-90.1 237.6,-90.1 330.2,0 99.2,96.6 254.6,96.6 353.8,0 92.6,-90.1 237.6,-90.1 330.1,0 99.2,96.6 254.7,96.6 353.9,0 92.5,-90.1 237.6,-90.1 330.1,0 99.2,96.6 254.7,96.6 353.9,0 92.5,-90.1 237.5,-90.1 330.1,0 99.2,96.6 254.6,96.6 353.8,0 92.6,-90.1 237.6,-90.1 330.2,0 99.1,96.6 254.6,96.6 353.8,0"
             style="fill:#fef3e8;fill-opacity:1;fill-rule:nonzero;stroke:none"
             id="path1050" />
          <path
             d="m 7965.1,1010.4 3.6,-3.4 -11.9,-12.199 -3.6,3.5 c -92.5,90.099 -237.5,90.099 -330.1,0 -49.6,-48.301 -113.2,-72.5 -176.9,-72.5 -63.7,0 -127.3,24.199 -176.9,72.5 -92.6,90.099 -237.6,90.099 -330.2,0 -47.9,-46.699 -110.8,-72.5 -176.9,-72.5 -66.1,0 -128.9,25.699 -176.9,72.5 -92.6,90.099 -237.6,90.099 -330.1,0 -99.2,-96.602 -254.7,-96.602 -353.9,0 -92.5,90.099 -237.6,90.099 -330.1,0 -99.2,-96.602 -254.6,-96.602 -353.9,0 -92.5,90.099 -237.5,90.099 -330.1,0 -99.2,-96.602 -254.6,-96.602 -353.8,0 -92.6,90.099 -237.6,90.099 -330.2,0 l -3.5,-3.5 -11.9,12.199 3.6,3.4 c 99.2,96.7 254.6,96.7 353.8,0 92.6,-90.099 237.6,-90.099 330.2,0 99.2,96.6 254.6,96.6 353.8,0 92.6,-90.099 237.6,-90.099 330.1,0 99.2,96.7 254.7,96.7 353.9,0 92.5,-90.099 237.6,-90.099 330.1,0 99.2,96.7 254.6,96.6 353.9,0 92.5,-90.099 237.5,-90.099 330.1,0 99.2,96.7 254.6,96.6 353.8,0 92.6,-90.099 237.6,-90.099 330.2,0 99.2,96.7 254.6,96.7 353.8,0"
             style="fill:#fef3e8;fill-opacity:1;fill-rule:nonzero;stroke:none"
             id="path1052" />
        </g>
      </g>
    </g>
    <path
       d="m 106.60192,16.408629 c -0.44853,2.213805 -1.69589,4.192853 -3.46641,5.589596 -0.83543,0.658371 -1.77315,1.184281 -2.775,1.544942 -1.142445,0.410499 -2.33184,0.553452 -3.541039,0.579682 -1.390318,0.02885 -2.793618,-0.06295 -4.173311,0.162625 -1.273332,0.208528 -2.44463,0.739684 -3.543664,1.400678 -2.160034,1.301004 -4.106294,3.063655 -6.596825,3.720715 -1.175101,0.309513 -2.401219,0.309513 -3.552844,-0.09705 -1.094968,-0.386891 -2.060361,-1.070181 -2.924505,-1.836095 -1.847898,-1.63937 -3.282806,-3.782354 -5.490054,-4.988931 -2.060361,-1.126575 -4.564007,-1.396743 -6.238787,-3.176444 -1.152806,-1.226249 -1.750848,-2.862996 -1.914785,-4.52335 -0.02872,-0.14033 -0.05508,-0.281972 -0.07738,-0.424925 -0.388203,-2.519384 0.21902,-5.1148352 1.277397,-7.4007726 0.982311,-2.1220009 2.45381,-4.086622 4.459087,-5.3338549 1.986917,-1.23805221 4.463022,-1.73773241 6.727975,-1.03214731 2.06823,0.64394461 3.745633,2.09314761 5.4873,3.31808511 0.895752,0.6295184 1.828357,1.2249376 2.850013,1.6301897 1.113329,0.4419742 2.305479,0.6164033 3.50025,0.5980424 2.490531,-0.038034 4.895817,-0.8065704 7.332576,-1.2314951 1.189659,-0.2072164 2.40004,-0.3409889 3.609239,-0.2688565 1.104411,0.066886 2.187705,0.3200051 3.206607,0.7488642 1.98692,0.8367344 3.71022,2.3174138 4.7804,4.1941648 1.16855,2.0472462 1.52921,4.5220392 1.06376,6.8263382"
       style="fill:#acdde0;fill-opacity:1;fill-rule:nonzero;stroke:none;stroke-width:0.013115;opacity:0.2"
       id="path1054" />
    <path
       d="m 68.318036,11.960558 c 0,3.040573 -2.464826,5.505399 -5.505399,5.505399 -3.040572,0 -5.505529,-2.464826 -5.505529,-5.505399 0,-3.0405732 2.464957,-5.5053988 5.505529,-5.5053988 3.040573,0 5.505399,2.4648256 5.505399,5.5053988"
       style="fill:#fad0cf;fill-opacity:1;fill-rule:nonzero;stroke:none;stroke-width:0.013115;opacity:0.2"
       id="path1056" />
    <path
       d="m 183.43568,3.523559 c 0,-0.138783 -0.11593,-0.251286 -0.25892,-0.251286 -0.14293,0 -0.25881,0.112503 -0.25881,0.251286 0,0.138726 0.11588,0.251281 0.25881,0.251281 0.14299,0 0.25892,-0.112555 0.25892,-0.251281"
       style="fill:#acdde0;fill-opacity:1;fill-rule:nonzero;stroke:none;stroke-width:0.013115;opacity:0.2"
       id="path1058" />
    <path
       d="m 185.50662,3.523559 c 0,-0.138783 -0.11588,-0.251286 -0.25888,-0.251286 -0.14298,0 -0.25891,0.112503 -0.25891,0.251286 0,0.138726 0.11593,0.251281 0.25891,0.251281 0.143,0 0.25888,-0.112555 0.25888,-0.251281"
       style="fill:#acdde0;fill-opacity:1;fill-rule:nonzero;stroke:none;stroke-width:0.013115;opacity:0.2"
       id="path1060" />
    <path
       d="m 187.5776,3.523559 c 0,-0.138783 -0.11593,-0.251286 -0.25886,-0.251286 -0.14299,0 -0.25893,0.112503 -0.25893,0.251286 0,0.138726 0.11594,0.251281 0.25893,0.251281 0.14293,0 0.25886,-0.112555 0.25886,-0.251281"
       style="fill:#acdde0;fill-opacity:1;fill-rule:nonzero;stroke:none;stroke-width:0.013115;opacity:0.2"
       id="path1062" />
    <path
       d="m 189.64859,3.523559 c 0,-0.138783 -0.11594,-0.251286 -0.25892,-0.251286 -0.14294,0 -0.25887,0.112503 -0.25887,0.251286 0,0.138726 0.11593,0.251281 0.25887,0.251281 0.14298,0 0.25892,-0.112555 0.25892,-0.251281"
       style="fill:#acdde0;fill-opacity:1;fill-rule:nonzero;stroke:none;stroke-width:0.013115;opacity:0.2"
       id="path1064" />
    <path
       d="m 191.71947,3.523559 c 0,-0.138783 -0.11589,-0.251286 -0.25881,-0.251286 -0.14298,0 -0.25892,0.112503 -0.25892,0.251286 0,0.138726 0.11594,0.251281 0.25892,0.251281 0.14292,0 0.25881,-0.112555 0.25881,-0.251281"
       style="fill:#acdde0;fill-opacity:1;fill-rule:nonzero;stroke:none;stroke-width:0.013115;opacity:0.2"
       id="path1066" />
    <path
       d="m 193.79041,3.523559 c 0,-0.138783 -0.1158,-0.251286 -0.25889,-0.251286 -0.14295,0 -0.25876,0.112503 -0.25876,0.251286 0,0.138726 0.11581,0.251281 0.25876,0.251281 0.14309,0 0.25889,-0.112555 0.25889,-0.251281"
       style="fill:#acdde0;fill-opacity:1;fill-rule:nonzero;stroke:none;stroke-width:0.013115;opacity:0.2"
       id="path1068" />
    <path
       d="m 183.43568,5.261958 c 0,-0.138783 -0.11593,-0.251297 -0.25892,-0.251297 -0.14293,0 -0.25881,0.112514 -0.25881,0.251297 0,0.138876 0.11588,0.251282 0.25881,0.251282 0.14299,0 0.25892,-0.112406 0.25892,-0.251282"
       style="fill:#acdde0;fill-opacity:1;fill-rule:nonzero;stroke:none;stroke-width:0.013115;opacity:0.2"
       id="path1070" />
    <path
       d="m 185.50662,5.261958 c 0,-0.138783 -0.11588,-0.251297 -0.25888,-0.251297 -0.14298,0 -0.25891,0.112514 -0.25891,0.251297 0,0.138876 0.11593,0.251282 0.25891,0.251282 0.143,0 0.25888,-0.112406 0.25888,-0.251282"
       style="fill:#acdde0;fill-opacity:1;fill-rule:nonzero;stroke:none;stroke-width:0.013115;opacity:0.2"
       id="path1072" />
    <path
       d="m 187.5776,5.261958 c 0,-0.138783 -0.11593,-0.251297 -0.25886,-0.251297 -0.14299,0 -0.25893,0.112514 -0.25893,0.251297 0,0.138876 0.11594,0.251282 0.25893,0.251282 0.14293,0 0.25886,-0.112406 0.25886,-0.251282"
       style="fill:#acdde0;fill-opacity:1;fill-rule:nonzero;stroke:none;stroke-width:0.013115;opacity:0.2"
       id="path1074" />
    <path
       d="m 189.64859,5.261958 c 0,-0.138783 -0.11594,-0.251297 -0.25892,-0.251297 -0.14294,0 -0.25887,0.112514 -0.25887,0.251297 0,0.138876 0.11593,0.251282 0.25887,0.251282 0.14298,0 0.25892,-0.112406 0.25892,-0.251282"
       style="fill:#acdde0;fill-opacity:1;fill-rule:nonzero;stroke:none;stroke-width:0.013115;opacity:0.2"
       id="path1076" />
    <path
       d="m 191.71947,5.261958 c 0,-0.138783 -0.11589,-0.251297 -0.25881,-0.251297 -0.14298,0 -0.25892,0.112514 -0.25892,0.251297 0,0.138876 0.11594,0.251282 0.25892,0.251282 0.14292,0 0.25881,-0.112406 0.25881,-0.251282"
       style="fill:#acdde0;fill-opacity:1;fill-rule:nonzero;stroke:none;stroke-width:0.013115;opacity:0.2"
       id="path1078" />
    <path
       d="m 193.79041,5.261958 c 0,-0.138783 -0.1158,-0.251297 -0.25889,-0.251297 -0.14295,0 -0.25876,0.112514 -0.25876,0.251297 0,0.138876 0.11581,0.251282 0.25876,0.251282 0.14309,0 0.25889,-0.112406 0.25889,-0.251282"
       style="fill:#acdde0;fill-opacity:1;fill-rule:nonzero;stroke:none;stroke-width:0.013115;opacity:0.2"
       id="path1080" />
    <path
       d="m 183.43568,6.998354 c 0,-0.138731 -0.11593,-0.251282 -0.25892,-0.251282 -0.14293,0 -0.25881,0.112551 -0.25881,0.251282 0,0.138782 0.11588,0.251281 0.25881,0.251281 0.14299,0 0.25892,-0.112499 0.25892,-0.251281"
       style="fill:#acdde0;fill-opacity:1;fill-rule:nonzero;stroke:none;stroke-width:0.013115;opacity:0.2"
       id="path1082" />
    <path
       d="m 185.50662,6.998354 c 0,-0.138731 -0.11588,-0.251282 -0.25888,-0.251282 -0.14298,0 -0.25891,0.112551 -0.25891,0.251282 0,0.138782 0.11593,0.251281 0.25891,0.251281 0.143,0 0.25888,-0.112499 0.25888,-0.251281"
       style="fill:#acdde0;fill-opacity:1;fill-rule:nonzero;stroke:none;stroke-width:0.013115;opacity:0.2"
       id="path1084" />
    <path
       d="m 187.5776,6.998354 c 0,-0.138731 -0.11593,-0.251282 -0.25886,-0.251282 -0.14299,0 -0.25893,0.112551 -0.25893,0.251282 0,0.138782 0.11594,0.251281 0.25893,0.251281 0.14293,0 0.25886,-0.112499 0.25886,-0.251281"
       style="fill:#acdde0;fill-opacity:1;fill-rule:nonzero;stroke:none;stroke-width:0.013115;opacity:0.2"
       id="path1086" />
    <path
       d="m 189.64859,6.998354 c 0,-0.138731 -0.11594,-0.251282 -0.25892,-0.251282 -0.14294,0 -0.25887,0.112551 -0.25887,0.251282 0,0.138782 0.11593,0.251281 0.25887,0.251281 0.14298,0 0.25892,-0.112499 0.25892,-0.251281"
       style="fill:#acdde0;fill-opacity:1;fill-rule:nonzero;stroke:none;stroke-width:0.013115;opacity:0.2"
       id="path1088" />
    <path
       d="m 191.71947,6.998354 c 0,-0.138731 -0.11589,-0.251282 -0.25881,-0.251282 -0.14298,0 -0.25892,0.112551 -0.25892,0.251282 0,0.138782 0.11594,0.251281 0.25892,0.251281 0.14292,0 0.25881,-0.112499 0.25881,-0.251281"
       style="fill:#acdde0;fill-opacity:1;fill-rule:nonzero;stroke:none;stroke-width:0.013115;opacity:0.2"
       id="path1090" />
    <path
       d="m 193.79041,6.998354 c 0,-0.138731 -0.1158,-0.251282 -0.25889,-0.251282 -0.14295,0 -0.25876,0.112551 -0.25876,0.251282 0,0.138782 0.11581,0.251281 0.25876,0.251281 0.14309,0 0.25889,-0.112499 0.25889,-0.251281"
       style="fill:#acdde0;fill-opacity:1;fill-rule:nonzero;stroke:none;stroke-width:0.013115;opacity:0.2"
       id="path1092" />
    <path
       d="m 183.43568,8.736753 c 0,-0.138783 -0.11593,-0.251282 -0.25892,-0.251282 -0.14293,0 -0.25881,0.112499 -0.25881,0.251282 0,0.138731 0.11588,0.251285 0.25881,0.251285 0.14299,0 0.25892,-0.112554 0.25892,-0.251285"
       style="fill:#acdde0;fill-opacity:1;fill-rule:nonzero;stroke:none;stroke-width:0.013115;opacity:0.2"
       id="path1094" />
    <path
       d="m 185.50662,8.736753 c 0,-0.138783 -0.11588,-0.251282 -0.25888,-0.251282 -0.14298,0 -0.25891,0.112499 -0.25891,0.251282 0,0.138731 0.11593,0.251285 0.25891,0.251285 0.143,0 0.25888,-0.112554 0.25888,-0.251285"
       style="fill:#acdde0;fill-opacity:1;fill-rule:nonzero;stroke:none;stroke-width:0.013115;opacity:0.2"
       id="path1096" />
    <path
       d="m 187.5776,8.736753 c 0,-0.138783 -0.11593,-0.251282 -0.25886,-0.251282 -0.14299,0 -0.25893,0.112499 -0.25893,0.251282 0,0.138731 0.11594,0.251285 0.25893,0.251285 0.14293,0 0.25886,-0.112554 0.25886,-0.251285"
       style="fill:#acdde0;fill-opacity:1;fill-rule:nonzero;stroke:none;stroke-width:0.013115;opacity:0.2"
       id="path1098" />
    <path
       d="m 189.64859,8.736753 c 0,-0.138783 -0.11594,-0.251282 -0.25892,-0.251282 -0.14294,0 -0.25887,0.112499 -0.25887,0.251282 0,0.138731 0.11593,0.251285 0.25887,0.251285 0.14298,0 0.25892,-0.112554 0.25892,-0.251285"
       style="fill:#acdde0;fill-opacity:1;fill-rule:nonzero;stroke:none;stroke-width:0.013115;opacity:0.2"
       id="path1100" />
    <path
       d="m 191.71947,8.736753 c 0,-0.138783 -0.11589,-0.251282 -0.25881,-0.251282 -0.14298,0 -0.25892,0.112499 -0.25892,0.251282 0,0.138731 0.11594,0.251285 0.25892,0.251285 0.14292,0 0.25881,-0.112554 0.25881,-0.251285"
       style="fill:#acdde0;fill-opacity:1;fill-rule:nonzero;stroke:none;stroke-width:0.013115;opacity:0.2"
       id="path1102" />
    <path
       d="m 193.79041,8.736753 c 0,-0.138783 -0.1158,-0.251282 -0.25889,-0.251282 -0.14295,0 -0.25876,0.112499 -0.25876,0.251282 0,0.138731 0.11581,0.251285 0.25876,0.251285 0.14309,0 0.25889,-0.112554 0.25889,-0.251285"
       style="fill:#acdde0;fill-opacity:1;fill-rule:nonzero;stroke:none;stroke-width:0.013115;opacity:0.2"
       id="path1104" />
    <path
       d="m 195.88644,3.438715 c 0,-0.138939 -0.1158,-0.251282 -0.25889,-0.251282 -0.14295,0 -0.25875,0.112343 -0.25875,0.251282 0,0.13889 0.1158,0.25123 0.25875,0.25123 0.14309,0 0.25889,-0.11234 0.25889,-0.25123"
       style="fill:#acdde0;fill-opacity:1;fill-rule:nonzero;stroke:none;stroke-width:0.013115;opacity:0.2"
       id="path1106" />
    <path
       d="m 197.95743,3.438715 c 0,-0.138939 -0.11594,-0.251282 -0.25889,-0.251282 -0.14296,0 -0.25889,0.112343 -0.25889,0.251282 0,0.13889 0.11593,0.25123 0.25889,0.25123 0.14295,0 0.25889,-0.11234 0.25889,-0.25123"
       style="fill:#acdde0;fill-opacity:1;fill-rule:nonzero;stroke:none;stroke-width:0.013115;opacity:0.2"
       id="path1108" />
    <path
       d="m 200.02841,3.438715 c 0,-0.138939 -0.11594,-0.251282 -0.25889,-0.251282 -0.14295,0 -0.25889,0.112343 -0.25889,0.251282 0,0.13889 0.11594,0.25123 0.25889,0.25123 0.14295,0 0.25889,-0.11234 0.25889,-0.25123"
       style="fill:#acdde0;fill-opacity:1;fill-rule:nonzero;stroke:none;stroke-width:0.013115;opacity:0.2"
       id="path1110" />
    <path
       d="m 202.09926,3.438715 c 0,-0.138939 -0.1158,-0.251282 -0.25876,-0.251282 -0.14308,0 -0.25889,0.112343 -0.25889,0.251282 0,0.13889 0.11581,0.25123 0.25889,0.25123 0.14296,0 0.25876,-0.11234 0.25876,-0.25123"
       style="fill:#acdde0;fill-opacity:1;fill-rule:nonzero;stroke:none;stroke-width:0.013115;opacity:0.2"
       id="path1112" />
    <path
       d="m 204.17025,3.438715 c 0,-0.138939 -0.11581,-0.251282 -0.25876,-0.251282 -0.14309,0 -0.25889,0.112343 -0.25889,0.251282 0,0.13889 0.1158,0.25123 0.25889,0.25123 0.14295,0 0.25876,-0.11234 0.25876,-0.25123"
       style="fill:#acdde0;fill-opacity:1;fill-rule:nonzero;stroke:none;stroke-width:0.013115;opacity:0.2"
       id="path1114" />
    <path
       d="m 206.24123,3.438715 c 0,-0.138939 -0.11581,-0.251282 -0.25889,-0.251282 -0.14282,0 -0.25876,0.112343 -0.25876,0.251282 0,0.13889 0.11594,0.25123 0.25876,0.25123 0.14308,0 0.25889,-0.11234 0.25889,-0.25123"
       style="fill:#acdde0;fill-opacity:1;fill-rule:nonzero;stroke:none;stroke-width:0.013115;opacity:0.2"
       id="path1116" />
    <path
       d="m 195.88644,5.177066 c 0,-0.138731 -0.1158,-0.251282 -0.25889,-0.251282 -0.14295,0 -0.25875,0.112551 -0.25875,0.251282 0,0.138783 0.1158,0.251282 0.25875,0.251282 0.14309,0 0.25889,-0.112499 0.25889,-0.251282"
       style="fill:#acdde0;fill-opacity:1;fill-rule:nonzero;stroke:none;stroke-width:0.013115;opacity:0.2"
       id="path1118" />
    <path
       d="m 197.95743,5.177066 c 0,-0.138731 -0.11594,-0.251282 -0.25889,-0.251282 -0.14296,0 -0.25889,0.112551 -0.25889,0.251282 0,0.138783 0.11593,0.251282 0.25889,0.251282 0.14295,0 0.25889,-0.112499 0.25889,-0.251282"
       style="fill:#acdde0;fill-opacity:1;fill-rule:nonzero;stroke:none;stroke-width:0.013115;opacity:0.2"
       id="path1120" />
    <path
       d="m 200.02841,5.177066 c 0,-0.138731 -0.11594,-0.251282 -0.25889,-0.251282 -0.14295,0 -0.25889,0.112551 -0.25889,0.251282 0,0.138783 0.11594,0.251282 0.25889,0.251282 0.14295,0 0.25889,-0.112499 0.25889,-0.251282"
       style="fill:#acdde0;fill-opacity:1;fill-rule:nonzero;stroke:none;stroke-width:0.013115;opacity:0.2"
       id="path1122" />
    <path
       d="m 202.09926,5.177066 c 0,-0.138731 -0.1158,-0.251282 -0.25876,-0.251282 -0.14308,0 -0.25889,0.112551 -0.25889,0.251282 0,0.138783 0.11581,0.251282 0.25889,0.251282 0.14296,0 0.25876,-0.112499 0.25876,-0.251282"
       style="fill:#acdde0;fill-opacity:1;fill-rule:nonzero;stroke:none;stroke-width:0.013115;opacity:0.2"
       id="path1124" />
    <path
       d="m 204.17025,5.177066 c 0,-0.138731 -0.11581,-0.251282 -0.25876,-0.251282 -0.14309,0 -0.25889,0.112551 -0.25889,0.251282 0,0.138783 0.1158,0.251282 0.25889,0.251282 0.14295,0 0.25876,-0.112499 0.25876,-0.251282"
       style="fill:#acdde0;fill-opacity:1;fill-rule:nonzero;stroke:none;stroke-width:0.013115;opacity:0.2"
       id="path1126" />
    <path
       d="m 206.24123,5.177066 c 0,-0.138731 -0.11581,-0.251282 -0.25889,-0.251282 -0.14282,0 -0.25876,0.112551 -0.25876,0.251282 0,0.138783 0.11594,0.251282 0.25876,0.251282 0.14308,0 0.25889,-0.112499 0.25889,-0.251282"
       style="fill:#acdde0;fill-opacity:1;fill-rule:nonzero;stroke:none;stroke-width:0.013115;opacity:0.2"
       id="path1128" />
    <path
       d="m 195.88644,6.913514 c 0,-0.138783 -0.1158,-0.251286 -0.25889,-0.251286 -0.14295,0 -0.25875,0.112503 -0.25875,0.251286 0,0.138727 0.1158,0.251281 0.25875,0.251281 0.14309,0 0.25889,-0.112554 0.25889,-0.251281"
       style="fill:#acdde0;fill-opacity:1;fill-rule:nonzero;stroke:none;stroke-width:0.013115;opacity:0.2"
       id="path1130" />
    <path
       d="m 197.95743,6.913514 c 0,-0.138783 -0.11594,-0.251286 -0.25889,-0.251286 -0.14296,0 -0.25889,0.112503 -0.25889,0.251286 0,0.138727 0.11593,0.251281 0.25889,0.251281 0.14295,0 0.25889,-0.112554 0.25889,-0.251281"
       style="fill:#acdde0;fill-opacity:1;fill-rule:nonzero;stroke:none;stroke-width:0.013115;opacity:0.2"
       id="path1132" />
    <path
       d="m 200.02841,6.913514 c 0,-0.138783 -0.11594,-0.251286 -0.25889,-0.251286 -0.14295,0 -0.25889,0.112503 -0.25889,0.251286 0,0.138727 0.11594,0.251281 0.25889,0.251281 0.14295,0 0.25889,-0.112554 0.25889,-0.251281"
       style="fill:#acdde0;fill-opacity:1;fill-rule:nonzero;stroke:none;stroke-width:0.013115;opacity:0.2"
       id="path1134" />
    <path
       d="m 202.09926,6.913514 c 0,-0.138783 -0.1158,-0.251286 -0.25876,-0.251286 -0.14308,0 -0.25889,0.112503 -0.25889,0.251286 0,0.138727 0.11581,0.251281 0.25889,0.251281 0.14296,0 0.25876,-0.112554 0.25876,-0.251281"
       style="fill:#acdde0;fill-opacity:1;fill-rule:nonzero;stroke:none;stroke-width:0.013115;opacity:0.2"
       id="path1136" />
    <path
       d="m 204.17025,6.913514 c 0,-0.138783 -0.11581,-0.251286 -0.25876,-0.251286 -0.14309,0 -0.25889,0.112503 -0.25889,0.251286 0,0.138727 0.1158,0.251281 0.25889,0.251281 0.14295,0 0.25876,-0.112554 0.25876,-0.251281"
       style="fill:#acdde0;fill-opacity:1;fill-rule:nonzero;stroke:none;stroke-width:0.013115;opacity:0.2"
       id="path1138" />
    <path
       d="m 206.24123,6.913514 c 0,-0.138783 -0.11581,-0.251286 -0.25889,-0.251286 -0.14282,0 -0.25876,0.112503 -0.25876,0.251286 0,0.138727 0.11594,0.251281 0.25876,0.251281 0.14308,0 0.25889,-0.112554 0.25889,-0.251281"
       style="fill:#acdde0;fill-opacity:1;fill-rule:nonzero;stroke:none;stroke-width:0.013115;opacity:0.2"
       id="path1140" />
    <path
       d="m 195.88644,8.651913 c 0,-0.138939 -0.1158,-0.251282 -0.25889,-0.251282 -0.14295,0 -0.25875,0.112343 -0.25875,0.251282 0,0.138887 0.1158,0.25123 0.25875,0.25123 0.14309,0 0.25889,-0.112343 0.25889,-0.25123"
       style="fill:#acdde0;fill-opacity:1;fill-rule:nonzero;stroke:none;stroke-width:0.013115;opacity:0.2"
       id="path1142" />
    <path
       d="m 197.95743,8.651913 c 0,-0.138939 -0.11594,-0.251282 -0.25889,-0.251282 -0.14296,0 -0.25889,0.112343 -0.25889,0.251282 0,0.138887 0.11593,0.25123 0.25889,0.25123 0.14295,0 0.25889,-0.112343 0.25889,-0.25123"
       style="fill:#acdde0;fill-opacity:1;fill-rule:nonzero;stroke:none;stroke-width:0.013115;opacity:0.2"
       id="path1144" />
    <path
       d="m 200.02841,8.651913 c 0,-0.138939 -0.11594,-0.251282 -0.25889,-0.251282 -0.14295,0 -0.25889,0.112343 -0.25889,0.251282 0,0.138887 0.11594,0.25123 0.25889,0.25123 0.14295,0 0.25889,-0.112343 0.25889,-0.25123"
       style="fill:#acdde0;fill-opacity:1;fill-rule:nonzero;stroke:none;stroke-width:0.013115;opacity:0.2"
       id="path1146" />
    <path
       d="m 202.09926,8.651913 c 0,-0.138939 -0.1158,-0.251282 -0.25876,-0.251282 -0.14308,0 -0.25889,0.112343 -0.25889,0.251282 0,0.138887 0.11581,0.25123 0.25889,0.25123 0.14296,0 0.25876,-0.112343 0.25876,-0.25123"
       style="fill:#acdde0;fill-opacity:1;fill-rule:nonzero;stroke:none;stroke-width:0.013115;opacity:0.2"
       id="path1148" />
    <path
       d="m 204.17025,8.651913 c 0,-0.138939 -0.11581,-0.251282 -0.25876,-0.251282 -0.14309,0 -0.25889,0.112343 -0.25889,0.251282 0,0.138887 0.1158,0.25123 0.25889,0.25123 0.14295,0 0.25876,-0.112343 0.25876,-0.25123"
       style="fill:#acdde0;fill-opacity:1;fill-rule:nonzero;stroke:none;stroke-width:0.013115;opacity:0.2"
       id="path1150" />
    <path
       d="m 206.24123,8.651913 c 0,-0.138939 -0.11581,-0.251282 -0.25889,-0.251282 -0.14282,0 -0.25876,0.112343 -0.25876,0.251282 0,0.138887 0.11594,0.25123 0.25876,0.25123 0.14308,0 0.25889,-0.112343 0.25889,-0.25123"
       style="fill:#acdde0;fill-opacity:1;fill-rule:nonzero;stroke:none;stroke-width:0.013115;opacity:0.2"
       id="path1152" />
    <path
       d="m 111.55295,20.743254 c -0.13889,0 -0.25128,-0.115936 -0.25128,-0.258889 0,-0.142953 0.11239,-0.258889 0.25128,-0.258889 0.13876,0 0.25128,0.115936 0.25128,0.258889 0,0.142953 -0.11252,0.258889 -0.25128,0.258889"
       style="fill:#f5a7b7;fill-opacity:1;fill-rule:nonzero;stroke:none;stroke-width:0.013115;opacity:0.2"
       id="path1154" />
    <path
       d="m 111.55295,22.814238 c -0.13889,0 -0.25128,-0.115936 -0.25128,-0.258889 0,-0.142953 0.11239,-0.25889 0.25128,-0.25889 0.13876,0 0.25128,0.115937 0.25128,0.25889 0,0.142953 -0.11252,0.258889 -0.25128,0.258889"
       style="fill:#f5a7b7;fill-opacity:1;fill-rule:nonzero;stroke:none;stroke-width:0.013115;opacity:0.2"
       id="path1156" />
    <path
       d="m 111.55295,24.88509 c -0.13889,0 -0.25128,-0.115936 -0.25128,-0.258758 0,-0.143084 0.11239,-0.258889 0.25128,-0.258889 0.13876,0 0.25128,0.115805 0.25128,0.258889 0,0.142822 -0.11252,0.258758 -0.25128,0.258758"
       style="fill:#f5a7b7;fill-opacity:1;fill-rule:nonzero;stroke:none;stroke-width:0.013115;opacity:0.2"
       id="path1158" />
    <path
       d="m 111.55295,26.956205 c -0.13889,0 -0.25128,-0.115936 -0.25128,-0.25902 0,-0.142822 0.11239,-0.258759 0.25128,-0.258759 0.13876,0 0.25128,0.115937 0.25128,0.258759 0,0.143084 -0.11252,0.25902 -0.25128,0.25902"
       style="fill:#f5a7b7;fill-opacity:1;fill-rule:nonzero;stroke:none;stroke-width:0.013115;opacity:0.2"
       id="path1160" />
    <path
       d="m 111.55295,29.027189 c -0.13889,0 -0.25128,-0.115937 -0.25128,-0.259021 0,-0.142953 0.11239,-0.258758 0.25128,-0.258758 0.13876,0 0.25128,0.115805 0.25128,0.258758 0,0.143084 -0.11252,0.259021 -0.25128,0.259021"
       style="fill:#f5a7b7;fill-opacity:1;fill-rule:nonzero;stroke:none;stroke-width:0.013115;opacity:0.2"
       id="path1162" />
    <path
       d="m 111.55295,31.098041 c -0.13889,0 -0.25128,-0.115936 -0.25128,-0.258889 0,-0.142953 0.11239,-0.25889 0.25128,-0.25889 0.13876,0 0.25128,0.115937 0.25128,0.25889 0,0.142953 -0.11252,0.258889 -0.25128,0.258889"
       style="fill:#f5a7b7;fill-opacity:1;fill-rule:nonzero;stroke:none;stroke-width:0.013115;opacity:0.2"
       id="path1164" />
    <path
       d="m 113.29134,20.743254 c -0.13876,0 -0.25142,-0.115936 -0.25142,-0.258889 0,-0.142953 0.11266,-0.258889 0.25142,-0.258889 0.13876,0 0.25128,0.115936 0.25128,0.258889 0,0.142953 -0.11252,0.258889 -0.25128,0.258889"
       style="fill:#f5a7b7;fill-opacity:1;fill-rule:nonzero;stroke:none;stroke-width:0.013115;opacity:0.2"
       id="path1166" />
    <path
       d="m 113.29134,22.814238 c -0.13876,0 -0.25142,-0.115936 -0.25142,-0.258889 0,-0.142953 0.11266,-0.25889 0.25142,-0.25889 0.13876,0 0.25128,0.115937 0.25128,0.25889 0,0.142953 -0.11252,0.258889 -0.25128,0.258889"
       style="fill:#f5a7b7;fill-opacity:1;fill-rule:nonzero;stroke:none;stroke-width:0.013115;opacity:0.2"
       id="path1168" />
    <path
       d="m 113.29134,24.88509 c -0.13876,0 -0.25142,-0.115936 -0.25142,-0.258758 0,-0.143084 0.11266,-0.258889 0.25142,-0.258889 0.13876,0 0.25128,0.115805 0.25128,0.258889 0,0.142822 -0.11252,0.258758 -0.25128,0.258758"
       style="fill:#f5a7b7;fill-opacity:1;fill-rule:nonzero;stroke:none;stroke-width:0.013115;opacity:0.2"
       id="path1170" />
    <path
       d="m 113.29134,26.956205 c -0.13876,0 -0.25142,-0.115936 -0.25142,-0.25902 0,-0.142822 0.11266,-0.258759 0.25142,-0.258759 0.13876,0 0.25128,0.115937 0.25128,0.258759 0,0.143084 -0.11252,0.25902 -0.25128,0.25902"
       style="fill:#f5a7b7;fill-opacity:1;fill-rule:nonzero;stroke:none;stroke-width:0.013115;opacity:0.2"
       id="path1172" />
    <path
       d="m 113.29134,29.027189 c -0.13876,0 -0.25142,-0.115937 -0.25142,-0.259021 0,-0.142953 0.11266,-0.258758 0.25142,-0.258758 0.13876,0 0.25128,0.115805 0.25128,0.258758 0,0.143084 -0.11252,0.259021 -0.25128,0.259021"
       style="fill:#f5a7b7;fill-opacity:1;fill-rule:nonzero;stroke:none;stroke-width:0.013115;opacity:0.2"
       id="path1174" />
    <path
       d="m 113.29134,31.098041 c -0.13876,0 -0.25142,-0.115936 -0.25142,-0.258889 0,-0.142953 0.11266,-0.25889 0.25142,-0.25889 0.13876,0 0.25128,0.115937 0.25128,0.25889 0,0.142953 -0.11252,0.258889 -0.25128,0.258889"
       style="fill:#f5a7b7;fill-opacity:1;fill-rule:nonzero;stroke:none;stroke-width:0.013115;opacity:0.2"
       id="path1176" />
    <path
       d="m 115.02776,20.743254 c -0.13889,0 -0.25128,-0.115936 -0.25128,-0.258889 0,-0.142953 0.11239,-0.258889 0.25128,-0.258889 0.13862,0 0.25128,0.115936 0.25128,0.258889 0,0.142953 -0.11266,0.258889 -0.25128,0.258889"
       style="fill:#f5a7b7;fill-opacity:1;fill-rule:nonzero;stroke:none;stroke-width:0.013115;opacity:0.2"
       id="path1178" />
    <path
       d="m 115.02776,22.814238 c -0.13889,0 -0.25128,-0.115936 -0.25128,-0.258889 0,-0.142953 0.11239,-0.25889 0.25128,-0.25889 0.13862,0 0.25128,0.115937 0.25128,0.25889 0,0.142953 -0.11266,0.258889 -0.25128,0.258889"
       style="fill:#f5a7b7;fill-opacity:1;fill-rule:nonzero;stroke:none;stroke-width:0.013115;opacity:0.2"
       id="path1180" />
    <path
       d="m 115.02776,24.88509 c -0.13889,0 -0.25128,-0.115936 -0.25128,-0.258758 0,-0.143084 0.11239,-0.258889 0.25128,-0.258889 0.13862,0 0.25128,0.115805 0.25128,0.258889 0,0.142822 -0.11266,0.258758 -0.25128,0.258758"
       style="fill:#f5a7b7;fill-opacity:1;fill-rule:nonzero;stroke:none;stroke-width:0.013115;opacity:0.2"
       id="path1182" />
    <path
       d="m 115.02776,26.956205 c -0.13889,0 -0.25128,-0.115936 -0.25128,-0.25902 0,-0.142822 0.11239,-0.258759 0.25128,-0.258759 0.13862,0 0.25128,0.115937 0.25128,0.258759 0,0.143084 -0.11266,0.25902 -0.25128,0.25902"
       style="fill:#f5a7b7;fill-opacity:1;fill-rule:nonzero;stroke:none;stroke-width:0.013115;opacity:0.2"
       id="path1184" />
    <path
       d="m 115.02776,29.027189 c -0.13889,0 -0.25128,-0.115937 -0.25128,-0.259021 0,-0.142953 0.11239,-0.258758 0.25128,-0.258758 0.13862,0 0.25128,0.115805 0.25128,0.258758 0,0.143084 -0.11266,0.259021 -0.25128,0.259021"
       style="fill:#f5a7b7;fill-opacity:1;fill-rule:nonzero;stroke:none;stroke-width:0.013115;opacity:0.2"
       id="path1186" />
    <path
       d="m 115.02776,31.098041 c -0.13889,0 -0.25128,-0.115936 -0.25128,-0.258889 0,-0.142953 0.11239,-0.25889 0.25128,-0.25889 0.13862,0 0.25128,0.115937 0.25128,0.25889 0,0.142953 -0.11266,0.258889 -0.25128,0.258889"
       style="fill:#f5a7b7;fill-opacity:1;fill-rule:nonzero;stroke:none;stroke-width:0.013115;opacity:0.2"
       id="path1188" />
    <path
       d="m 116.76615,20.743254 c -0.13889,0 -0.25128,-0.115936 -0.25128,-0.258889 0,-0.142953 0.11239,-0.258889 0.25128,-0.258889 0.13876,0 0.25128,0.115936 0.25128,0.258889 0,0.142953 -0.11252,0.258889 -0.25128,0.258889"
       style="fill:#f5a7b7;fill-opacity:1;fill-rule:nonzero;stroke:none;stroke-width:0.013115;opacity:0.2"
       id="path1190" />
    <path
       d="m 116.76615,22.814238 c -0.13889,0 -0.25128,-0.115936 -0.25128,-0.258889 0,-0.142953 0.11239,-0.25889 0.25128,-0.25889 0.13876,0 0.25128,0.115937 0.25128,0.25889 0,0.142953 -0.11252,0.258889 -0.25128,0.258889"
       style="fill:#f5a7b7;fill-opacity:1;fill-rule:nonzero;stroke:none;stroke-width:0.013115;opacity:0.2"
       id="path1192" />
    <path
       d="m 116.76615,24.88509 c -0.13889,0 -0.25128,-0.115936 -0.25128,-0.258758 0,-0.143084 0.11239,-0.258889 0.25128,-0.258889 0.13876,0 0.25128,0.115805 0.25128,0.258889 0,0.142822 -0.11252,0.258758 -0.25128,0.258758"
       style="fill:#f5a7b7;fill-opacity:1;fill-rule:nonzero;stroke:none;stroke-width:0.013115;opacity:0.2"
       id="path1194" />
    <path
       d="m 116.76615,26.956205 c -0.13889,0 -0.25128,-0.115936 -0.25128,-0.25902 0,-0.142822 0.11239,-0.258759 0.25128,-0.258759 0.13876,0 0.25128,0.115937 0.25128,0.258759 0,0.143084 -0.11252,0.25902 -0.25128,0.25902"
       style="fill:#f5a7b7;fill-opacity:1;fill-rule:nonzero;stroke:none;stroke-width:0.013115;opacity:0.2"
       id="path1196" />
    <path
       d="m 116.76615,29.027189 c -0.13889,0 -0.25128,-0.115937 -0.25128,-0.259021 0,-0.142953 0.11239,-0.258758 0.25128,-0.258758 0.13876,0 0.25128,0.115805 0.25128,0.258758 0,0.143084 -0.11252,0.259021 -0.25128,0.259021"
       style="fill:#f5a7b7;fill-opacity:1;fill-rule:nonzero;stroke:none;stroke-width:0.013115;opacity:0.2"
       id="path1198" />
    <path
       d="m 116.76615,31.098041 c -0.13889,0 -0.25128,-0.115936 -0.25128,-0.258889 0,-0.142953 0.11239,-0.25889 0.25128,-0.25889 0.13876,0 0.25128,0.115937 0.25128,0.25889 0,0.142953 -0.11252,0.258889 -0.25128,0.258889"
       style="fill:#f5a7b7;fill-opacity:1;fill-rule:nonzero;stroke:none;stroke-width:0.013115;opacity:0.2"
       id="path1200" />
    <path
       d="m 111.46797,33.194074 c -0.13863,0 -0.25129,-0.115936 -0.25129,-0.258889 0,-0.142953 0.11266,-0.25889 0.25129,-0.25889 0.13888,0 0.25128,0.115937 0.25128,0.25889 0,0.142953 -0.1124,0.258889 -0.25128,0.258889"
       style="fill:#f5a7b7;fill-opacity:1;fill-rule:nonzero;stroke:none;stroke-width:0.013115;opacity:0.2"
       id="path1202" />
    <path
       d="m 111.46797,35.265058 c -0.13863,0 -0.25129,-0.115936 -0.25129,-0.258889 0,-0.142954 0.11266,-0.25889 0.25129,-0.25889 0.13888,0 0.25128,0.115936 0.25128,0.25889 0,0.142953 -0.1124,0.258889 -0.25128,0.258889"
       style="fill:#f5a7b7;fill-opacity:1;fill-rule:nonzero;stroke:none;stroke-width:0.013115;opacity:0.2"
       id="path1204" />
    <path
       d="m 111.46797,37.336041 c -0.13863,0 -0.25129,-0.115936 -0.25129,-0.258889 0,-0.142953 0.11266,-0.258889 0.25129,-0.258889 0.13888,0 0.25128,0.115936 0.25128,0.258889 0,0.142953 -0.1124,0.258889 -0.25128,0.258889"
       style="fill:#f5a7b7;fill-opacity:1;fill-rule:nonzero;stroke:none;stroke-width:0.013115;opacity:0.2"
       id="path1206" />
    <path
       d="m 111.46797,39.407025 c -0.13863,0 -0.25129,-0.115936 -0.25129,-0.259021 0,-0.142822 0.11266,-0.258758 0.25129,-0.258758 0.13888,0 0.25128,0.115936 0.25128,0.258758 0,0.143085 -0.1124,0.259021 -0.25128,0.259021"
       style="fill:#f5a7b7;fill-opacity:1;fill-rule:nonzero;stroke:none;stroke-width:0.013115;opacity:0.2"
       id="path1208" />
    <path
       d="m 111.46797,41.477877 c -0.13863,0 -0.25129,-0.115936 -0.25129,-0.258889 0,-0.142953 0.11266,-0.258889 0.25129,-0.258889 0.13888,0 0.25128,0.115936 0.25128,0.258889 0,0.142953 -0.1124,0.258889 -0.25128,0.258889"
       style="fill:#f5a7b7;fill-opacity:1;fill-rule:nonzero;stroke:none;stroke-width:0.013115;opacity:0.2"
       id="path1210" />
    <path
       d="m 111.46797,43.548861 c -0.13863,0 -0.25129,-0.115936 -0.25129,-0.258889 0,-0.142954 0.11266,-0.25889 0.25129,-0.25889 0.13888,0 0.25128,0.115936 0.25128,0.25889 0,0.142953 -0.1124,0.258889 -0.25128,0.258889"
       style="fill:#f5a7b7;fill-opacity:1;fill-rule:nonzero;stroke:none;stroke-width:0.013115;opacity:0.2"
       id="path1212" />
    <path
       d="m 113.20648,33.194074 c -0.13888,0 -0.25128,-0.115936 -0.25128,-0.258889 0,-0.142953 0.1124,-0.25889 0.25128,-0.25889 0.13876,0 0.25129,0.115937 0.25129,0.25889 0,0.142953 -0.11253,0.258889 -0.25129,0.258889"
       style="fill:#f5a7b7;fill-opacity:1;fill-rule:nonzero;stroke:none;stroke-width:0.013115;opacity:0.2"
       id="path1214" />
    <path
       d="m 113.20648,35.265058 c -0.13888,0 -0.25128,-0.115936 -0.25128,-0.258889 0,-0.142954 0.1124,-0.25889 0.25128,-0.25889 0.13876,0 0.25129,0.115936 0.25129,0.25889 0,0.142953 -0.11253,0.258889 -0.25129,0.258889"
       style="fill:#f5a7b7;fill-opacity:1;fill-rule:nonzero;stroke:none;stroke-width:0.013115;opacity:0.2"
       id="path1216" />
    <path
       d="m 113.20648,37.336041 c -0.13888,0 -0.25128,-0.115936 -0.25128,-0.258889 0,-0.142953 0.1124,-0.258889 0.25128,-0.258889 0.13876,0 0.25129,0.115936 0.25129,0.258889 0,0.142953 -0.11253,0.258889 -0.25129,0.258889"
       style="fill:#f5a7b7;fill-opacity:1;fill-rule:nonzero;stroke:none;stroke-width:0.013115;opacity:0.2"
       id="path1218" />
    <path
       d="m 113.20648,39.407025 c -0.13888,0 -0.25128,-0.115936 -0.25128,-0.259021 0,-0.142822 0.1124,-0.258758 0.25128,-0.258758 0.13876,0 0.25129,0.115936 0.25129,0.258758 0,0.143085 -0.11253,0.259021 -0.25129,0.259021"
       style="fill:#f5a7b7;fill-opacity:1;fill-rule:nonzero;stroke:none;stroke-width:0.013115;opacity:0.2"
       id="path1220" />
    <path
       d="m 113.20648,41.477877 c -0.13888,0 -0.25128,-0.115936 -0.25128,-0.258889 0,-0.142953 0.1124,-0.258889 0.25128,-0.258889 0.13876,0 0.25129,0.115936 0.25129,0.258889 0,0.142953 -0.11253,0.258889 -0.25129,0.258889"
       style="fill:#f5a7b7;fill-opacity:1;fill-rule:nonzero;stroke:none;stroke-width:0.013115;opacity:0.2"
       id="path1222" />
    <path
       d="m 113.20648,43.548861 c -0.13888,0 -0.25128,-0.115936 -0.25128,-0.258889 0,-0.142954 0.1124,-0.25889 0.25128,-0.25889 0.13876,0 0.25129,0.115936 0.25129,0.25889 0,0.142953 -0.11253,0.258889 -0.25129,0.258889"
       style="fill:#f5a7b7;fill-opacity:1;fill-rule:nonzero;stroke:none;stroke-width:0.013115;opacity:0.2"
       id="path1224" />
    <path
       d="m 114.94278,33.194074 c -0.13876,0 -0.25129,-0.115936 -0.25129,-0.258889 0,-0.142953 0.11253,-0.25889 0.25129,-0.25889 0.13888,0 0.25128,0.115937 0.25128,0.25889 0,0.142953 -0.1124,0.258889 -0.25128,0.258889"
       style="fill:#f5a7b7;fill-opacity:1;fill-rule:nonzero;stroke:none;stroke-width:0.013115;opacity:0.2"
       id="path1226" />
    <path
       d="m 114.94278,35.265058 c -0.13876,0 -0.25129,-0.115936 -0.25129,-0.258889 0,-0.142954 0.11253,-0.25889 0.25129,-0.25889 0.13888,0 0.25128,0.115936 0.25128,0.25889 0,0.142953 -0.1124,0.258889 -0.25128,0.258889"
       style="fill:#f5a7b7;fill-opacity:1;fill-rule:nonzero;stroke:none;stroke-width:0.013115;opacity:0.2"
       id="path1228" />
    <path
       d="m 114.94278,37.336041 c -0.13876,0 -0.25129,-0.115936 -0.25129,-0.258889 0,-0.142953 0.11253,-0.258889 0.25129,-0.258889 0.13888,0 0.25128,0.115936 0.25128,0.258889 0,0.142953 -0.1124,0.258889 -0.25128,0.258889"
       style="fill:#f5a7b7;fill-opacity:1;fill-rule:nonzero;stroke:none;stroke-width:0.013115;opacity:0.2"
       id="path1230" />
    <path
       d="m 114.94278,39.407025 c -0.13876,0 -0.25129,-0.115936 -0.25129,-0.259021 0,-0.142822 0.11253,-0.258758 0.25129,-0.258758 0.13888,0 0.25128,0.115936 0.25128,0.258758 0,0.143085 -0.1124,0.259021 -0.25128,0.259021"
       style="fill:#f5a7b7;fill-opacity:1;fill-rule:nonzero;stroke:none;stroke-width:0.013115;opacity:0.2"
       id="path1232" />
    <path
       d="m 114.94278,41.477877 c -0.13876,0 -0.25129,-0.115936 -0.25129,-0.258889 0,-0.142953 0.11253,-0.258889 0.25129,-0.258889 0.13888,0 0.25128,0.115936 0.25128,0.258889 0,0.142953 -0.1124,0.258889 -0.25128,0.258889"
       style="fill:#f5a7b7;fill-opacity:1;fill-rule:nonzero;stroke:none;stroke-width:0.013115;opacity:0.2"
       id="path1234" />
    <path
       d="m 114.94278,43.548861 c -0.13876,0 -0.25129,-0.115936 -0.25129,-0.258889 0,-0.142954 0.11253,-0.25889 0.25129,-0.25889 0.13888,0 0.25128,0.115936 0.25128,0.25889 0,0.142953 -0.1124,0.258889 -0.25128,0.258889"
       style="fill:#f5a7b7;fill-opacity:1;fill-rule:nonzero;stroke:none;stroke-width:0.013115;opacity:0.2"
       id="path1236" />
    <path
       d="m 116.68116,33.194074 c -0.13862,0 -0.25128,-0.115936 -0.25128,-0.258889 0,-0.142953 0.11266,-0.25889 0.25128,-0.25889 0.13889,0 0.25129,0.115937 0.25129,0.25889 0,0.142953 -0.1124,0.258889 -0.25129,0.258889"
       style="fill:#f5a7b7;fill-opacity:1;fill-rule:nonzero;stroke:none;stroke-width:0.013115;opacity:0.2"
       id="path1238" />
    <path
       d="m 116.68116,35.265058 c -0.13862,0 -0.25128,-0.115936 -0.25128,-0.258889 0,-0.142954 0.11266,-0.25889 0.25128,-0.25889 0.13889,0 0.25129,0.115936 0.25129,0.25889 0,0.142953 -0.1124,0.258889 -0.25129,0.258889"
       style="fill:#f5a7b7;fill-opacity:1;fill-rule:nonzero;stroke:none;stroke-width:0.013115;opacity:0.2"
       id="path1240" />
    <path
       d="m 116.68116,37.336041 c -0.13862,0 -0.25128,-0.115936 -0.25128,-0.258889 0,-0.142953 0.11266,-0.258889 0.25128,-0.258889 0.13889,0 0.25129,0.115936 0.25129,0.258889 0,0.142953 -0.1124,0.258889 -0.25129,0.258889"
       style="fill:#f5a7b7;fill-opacity:1;fill-rule:nonzero;stroke:none;stroke-width:0.013115;opacity:0.2"
       id="path1242" />
    <path
       d="m 116.68116,39.407025 c -0.13862,0 -0.25128,-0.115936 -0.25128,-0.259021 0,-0.142822 0.11266,-0.258758 0.25128,-0.258758 0.13889,0 0.25129,0.115936 0.25129,0.258758 0,0.143085 -0.1124,0.259021 -0.25129,0.259021"
       style="fill:#f5a7b7;fill-opacity:1;fill-rule:nonzero;stroke:none;stroke-width:0.013115;opacity:0.2"
       id="path1244" />
    <path
       d="m 116.68116,41.477877 c -0.13862,0 -0.25128,-0.115936 -0.25128,-0.258889 0,-0.142953 0.11266,-0.258889 0.25128,-0.258889 0.13889,0 0.25129,0.115936 0.25129,0.258889 0,0.142953 -0.1124,0.258889 -0.25129,0.258889"
       style="fill:#f5a7b7;fill-opacity:1;fill-rule:nonzero;stroke:none;stroke-width:0.013115;opacity:0.2"
       id="path1246" />
    <path
       d="m 116.68116,43.548861 c -0.13862,0 -0.25128,-0.115936 -0.25128,-0.258889 0,-0.142954 0.11266,-0.25889 0.25128,-0.25889 0.13889,0 0.25129,0.115936 0.25129,0.25889 0,0.142953 -0.1124,0.258889 -0.25129,0.258889"
       style="fill:#f5a7b7;fill-opacity:1;fill-rule:nonzero;stroke:none;stroke-width:0.013115;opacity:0.2"
       id="path1248" />
    <path
       d="m 124.92599,61.292692 c -1.7536,0 -3.18051,-1.426907 -3.18051,-3.180509 0,-1.753601 1.42691,-3.180509 3.18051,-3.180509 1.7536,0 3.18051,1.426908 3.18051,3.180509 0,1.753602 -1.42691,3.180509 -3.18051,3.180509 z m 0,-7.827271 c -2.56227,0 -4.64663,2.084492 -4.64663,4.646762 0,2.56227 2.08436,4.646762 4.64663,4.646762 2.56214,0 4.64663,-2.084492 4.64663,-4.646762 0,-2.56227 -2.08449,-4.646762 -4.64663,-4.646762"
       style="fill:#f5a7b7;fill-opacity:1;fill-rule:nonzero;stroke:none;stroke-width:0.013115;opacity:0.2"
       id="path1022-9" />
    <path
       d="m 123.02117,49.349422 c -0.13889,0 -0.25128,0.115936 -0.25128,0.258889 0,0.142953 0.11239,0.258889 0.25128,0.258889 0.13876,0 0.25128,-0.115936 0.25128,-0.258889 0,-0.142953 -0.11252,-0.258889 -0.25128,-0.258889"
       style="fill:#f5a7b7;fill-opacity:1;fill-rule:nonzero;stroke:none;stroke-width:0.013115;opacity:0.2"
       id="path1154-3" />
    <path
       d="m 123.02117,47.278438 c -0.13889,0 -0.25128,0.115936 -0.25128,0.258889 0,0.142953 0.11239,0.25889 0.25128,0.25889 0.13876,0 0.25128,-0.115937 0.25128,-0.25889 0,-0.142953 -0.11252,-0.258889 -0.25128,-0.258889"
       style="fill:#f5a7b7;fill-opacity:1;fill-rule:nonzero;stroke:none;stroke-width:0.013115;opacity:0.2"
       id="path1156-6" />
    <path
       d="m 123.02117,45.207586 c -0.13889,0 -0.25128,0.115936 -0.25128,0.258758 0,0.143084 0.11239,0.258889 0.25128,0.258889 0.13876,0 0.25128,-0.115805 0.25128,-0.258889 0,-0.142822 -0.11252,-0.258758 -0.25128,-0.258758"
       style="fill:#f5a7b7;fill-opacity:1;fill-rule:nonzero;stroke:none;stroke-width:0.013115;opacity:0.2"
       id="path1158-0" />
    <path
       d="m 123.02117,43.136471 c -0.13889,0 -0.25128,0.115936 -0.25128,0.25902 0,0.142822 0.11239,0.258759 0.25128,0.258759 0.13876,0 0.25128,-0.115937 0.25128,-0.258759 0,-0.143084 -0.11252,-0.25902 -0.25128,-0.25902"
       style="fill:#f5a7b7;fill-opacity:1;fill-rule:nonzero;stroke:none;stroke-width:0.013115;opacity:0.2"
       id="path1160-6" />
    <path
       d="m 123.02117,41.065487 c -0.13889,0 -0.25128,0.115937 -0.25128,0.259021 0,0.142953 0.11239,0.258758 0.25128,0.258758 0.13876,0 0.25128,-0.115805 0.25128,-0.258758 0,-0.143084 -0.11252,-0.259021 -0.25128,-0.259021"
       style="fill:#f5a7b7;fill-opacity:1;fill-rule:nonzero;stroke:none;stroke-width:0.013115;opacity:0.2"
       id="path1162-2" />
    <path
       d="m 123.02117,38.994635 c -0.13889,0 -0.25128,0.115936 -0.25128,0.258889 0,0.142953 0.11239,0.25889 0.25128,0.25889 0.13876,0 0.25128,-0.115937 0.25128,-0.25889 0,-0.142953 -0.11252,-0.258889 -0.25128,-0.258889"
       style="fill:#f5a7b7;fill-opacity:1;fill-rule:nonzero;stroke:none;stroke-width:0.013115;opacity:0.2"
       id="path1164-6" />
    <path
       d="m 124.75956,49.349422 c -0.13876,0 -0.25142,0.115936 -0.25142,0.258889 0,0.142953 0.11266,0.258889 0.25142,0.258889 0.13876,0 0.25128,-0.115936 0.25128,-0.258889 0,-0.142953 -0.11252,-0.258889 -0.25128,-0.258889"
       style="fill:#f5a7b7;fill-opacity:1;fill-rule:nonzero;stroke:none;stroke-width:0.013115;opacity:0.2"
       id="path1166-1" />
    <path
       d="m 124.75956,47.278438 c -0.13876,0 -0.25142,0.115936 -0.25142,0.258889 0,0.142953 0.11266,0.25889 0.25142,0.25889 0.13876,0 0.25128,-0.115937 0.25128,-0.25889 0,-0.142953 -0.11252,-0.258889 -0.25128,-0.258889"
       style="fill:#f5a7b7;fill-opacity:1;fill-rule:nonzero;stroke:none;stroke-width:0.013115;opacity:0.2"
       id="path1168-8" />
    <path
       d="m 124.75956,45.207586 c -0.13876,0 -0.25142,0.115936 -0.25142,0.258758 0,0.143084 0.11266,0.258889 0.25142,0.258889 0.13876,0 0.25128,-0.115805 0.25128,-0.258889 0,-0.142822 -0.11252,-0.258758 -0.25128,-0.258758"
       style="fill:#f5a7b7;fill-opacity:1;fill-rule:nonzero;stroke:none;stroke-width:0.013115;opacity:0.2"
       id="path1170-7" />
    <path
       d="m 124.75956,43.136471 c -0.13876,0 -0.25142,0.115936 -0.25142,0.25902 0,0.142822 0.11266,0.258759 0.25142,0.258759 0.13876,0 0.25128,-0.115937 0.25128,-0.258759 0,-0.143084 -0.11252,-0.25902 -0.25128,-0.25902"
       style="fill:#f5a7b7;fill-opacity:1;fill-rule:nonzero;stroke:none;stroke-width:0.013115;opacity:0.2"
       id="path1172-9" />
    <path
       d="m 124.75956,41.065487 c -0.13876,0 -0.25142,0.115937 -0.25142,0.259021 0,0.142953 0.11266,0.258758 0.25142,0.258758 0.13876,0 0.25128,-0.115805 0.25128,-0.258758 0,-0.143084 -0.11252,-0.259021 -0.25128,-0.259021"
       style="fill:#f5a7b7;fill-opacity:1;fill-rule:nonzero;stroke:none;stroke-width:0.013115;opacity:0.2"
       id="path1174-2" />
    <path
       d="m 124.75956,38.994635 c -0.13876,0 -0.25142,0.115936 -0.25142,0.258889 0,0.142953 0.11266,0.25889 0.25142,0.25889 0.13876,0 0.25128,-0.115937 0.25128,-0.25889 0,-0.142953 -0.11252,-0.258889 -0.25128,-0.258889"
       style="fill:#f5a7b7;fill-opacity:1;fill-rule:nonzero;stroke:none;stroke-width:0.013115;opacity:0.2"
       id="path1176-0" />
    <path
       d="m 126.49598,49.349422 c -0.13889,0 -0.25128,0.115936 -0.25128,0.258889 0,0.142953 0.11239,0.258889 0.25128,0.258889 0.13862,0 0.25128,-0.115936 0.25128,-0.258889 0,-0.142953 -0.11266,-0.258889 -0.25128,-0.258889"
       style="fill:#f5a7b7;fill-opacity:1;fill-rule:nonzero;stroke:none;stroke-width:0.013115;opacity:0.2"
       id="path1178-2" />
    <path
       d="m 126.49598,47.278438 c -0.13889,0 -0.25128,0.115936 -0.25128,0.258889 0,0.142953 0.11239,0.25889 0.25128,0.25889 0.13862,0 0.25128,-0.115937 0.25128,-0.25889 0,-0.142953 -0.11266,-0.258889 -0.25128,-0.258889"
       style="fill:#f5a7b7;fill-opacity:1;fill-rule:nonzero;stroke:none;stroke-width:0.013115;opacity:0.2"
       id="path1180-3" />
    <path
       d="m 126.49598,45.207586 c -0.13889,0 -0.25128,0.115936 -0.25128,0.258758 0,0.143084 0.11239,0.258889 0.25128,0.258889 0.13862,0 0.25128,-0.115805 0.25128,-0.258889 0,-0.142822 -0.11266,-0.258758 -0.25128,-0.258758"
       style="fill:#f5a7b7;fill-opacity:1;fill-rule:nonzero;stroke:none;stroke-width:0.013115;opacity:0.2"
       id="path1182-7" />
    <path
       d="m 126.49598,43.136471 c -0.13889,0 -0.25128,0.115936 -0.25128,0.25902 0,0.142822 0.11239,0.258759 0.25128,0.258759 0.13862,0 0.25128,-0.115937 0.25128,-0.258759 0,-0.143084 -0.11266,-0.25902 -0.25128,-0.25902"
       style="fill:#f5a7b7;fill-opacity:1;fill-rule:nonzero;stroke:none;stroke-width:0.013115;opacity:0.2"
       id="path1184-5" />
    <path
       d="m 126.49598,41.065487 c -0.13889,0 -0.25128,0.115937 -0.25128,0.259021 0,0.142953 0.11239,0.258758 0.25128,0.258758 0.13862,0 0.25128,-0.115805 0.25128,-0.258758 0,-0.143084 -0.11266,-0.259021 -0.25128,-0.259021"
       style="fill:#f5a7b7;fill-opacity:1;fill-rule:nonzero;stroke:none;stroke-width:0.013115;opacity:0.2"
       id="path1186-9" />
    <path
       d="m 126.49598,38.994635 c -0.13889,0 -0.25128,0.115936 -0.25128,0.258889 0,0.142953 0.11239,0.25889 0.25128,0.25889 0.13862,0 0.25128,-0.115937 0.25128,-0.25889 0,-0.142953 -0.11266,-0.258889 -0.25128,-0.258889"
       style="fill:#f5a7b7;fill-opacity:1;fill-rule:nonzero;stroke:none;stroke-width:0.013115;opacity:0.2"
       id="path1188-2" />
    <path
       d="m 128.23437,49.349422 c -0.13889,0 -0.25128,0.115936 -0.25128,0.258889 0,0.142953 0.11239,0.258889 0.25128,0.258889 0.13876,0 0.25128,-0.115936 0.25128,-0.258889 0,-0.142953 -0.11252,-0.258889 -0.25128,-0.258889"
       style="fill:#f5a7b7;fill-opacity:1;fill-rule:nonzero;stroke:none;stroke-width:0.013115;opacity:0.2"
       id="path1190-2" />
    <path
       d="m 128.23437,47.278438 c -0.13889,0 -0.25128,0.115936 -0.25128,0.258889 0,0.142953 0.11239,0.25889 0.25128,0.25889 0.13876,0 0.25128,-0.115937 0.25128,-0.25889 0,-0.142953 -0.11252,-0.258889 -0.25128,-0.258889"
       style="fill:#f5a7b7;fill-opacity:1;fill-rule:nonzero;stroke:none;stroke-width:0.013115;opacity:0.2"
       id="path1192-8" />
    <path
       d="m 128.23437,45.207586 c -0.13889,0 -0.25128,0.115936 -0.25128,0.258758 0,0.143084 0.11239,0.258889 0.25128,0.258889 0.13876,0 0.25128,-0.115805 0.25128,-0.258889 0,-0.142822 -0.11252,-0.258758 -0.25128,-0.258758"
       style="fill:#f5a7b7;fill-opacity:1;fill-rule:nonzero;stroke:none;stroke-width:0.013115;opacity:0.2"
       id="path1194-9" />
    <path
       d="m 128.23437,43.136471 c -0.13889,0 -0.25128,0.115936 -0.25128,0.25902 0,0.142822 0.11239,0.258759 0.25128,0.258759 0.13876,0 0.25128,-0.115937 0.25128,-0.258759 0,-0.143084 -0.11252,-0.25902 -0.25128,-0.25902"
       style="fill:#f5a7b7;fill-opacity:1;fill-rule:nonzero;stroke:none;stroke-width:0.013115;opacity:0.2"
       id="path1196-7" />
    <path
       d="m 128.23437,41.065487 c -0.13889,0 -0.25128,0.115937 -0.25128,0.259021 0,0.142953 0.11239,0.258758 0.25128,0.258758 0.13876,0 0.25128,-0.115805 0.25128,-0.258758 0,-0.143084 -0.11252,-0.259021 -0.25128,-0.259021"
       style="fill:#f5a7b7;fill-opacity:1;fill-rule:nonzero;stroke:none;stroke-width:0.013115;opacity:0.2"
       id="path1198-3" />
    <path
       d="m 128.23437,38.994635 c -0.13889,0 -0.25128,0.115936 -0.25128,0.258889 0,0.142953 0.11239,0.25889 0.25128,0.25889 0.13876,0 0.25128,-0.115937 0.25128,-0.25889 0,-0.142953 -0.11252,-0.258889 -0.25128,-0.258889"
       style="fill:#f5a7b7;fill-opacity:1;fill-rule:nonzero;stroke:none;stroke-width:0.013115;opacity:0.2"
       id="path1200-6" />
    <path
       d="m 122.93619,36.898602 c -0.13863,0 -0.25129,0.115936 -0.25129,0.258889 0,0.142953 0.11266,0.25889 0.25129,0.25889 0.13888,0 0.25128,-0.115937 0.25128,-0.25889 0,-0.142953 -0.1124,-0.258889 -0.25128,-0.258889"
       style="fill:#f5a7b7;fill-opacity:1;fill-rule:nonzero;stroke:none;stroke-width:0.013115;opacity:0.2"
       id="path1202-1" />
    <path
       d="m 122.93619,34.827618 c -0.13863,0 -0.25129,0.115936 -0.25129,0.258889 0,0.142954 0.11266,0.25889 0.25129,0.25889 0.13888,0 0.25128,-0.115936 0.25128,-0.25889 0,-0.142953 -0.1124,-0.258889 -0.25128,-0.258889"
       style="fill:#f5a7b7;fill-opacity:1;fill-rule:nonzero;stroke:none;stroke-width:0.013115;opacity:0.2"
       id="path1204-2" />
    <path
       d="m 122.93619,32.756635 c -0.13863,0 -0.25129,0.115936 -0.25129,0.258889 0,0.142953 0.11266,0.258889 0.25129,0.258889 0.13888,0 0.25128,-0.115936 0.25128,-0.258889 0,-0.142953 -0.1124,-0.258889 -0.25128,-0.258889"
       style="fill:#f5a7b7;fill-opacity:1;fill-rule:nonzero;stroke:none;stroke-width:0.013115;opacity:0.2"
       id="path1206-9" />
    <path
       d="m 122.93619,30.685651 c -0.13863,0 -0.25129,0.115936 -0.25129,0.259021 0,0.142822 0.11266,0.258758 0.25129,0.258758 0.13888,0 0.25128,-0.115936 0.25128,-0.258758 0,-0.143085 -0.1124,-0.259021 -0.25128,-0.259021"
       style="fill:#f5a7b7;fill-opacity:1;fill-rule:nonzero;stroke:none;stroke-width:0.013115;opacity:0.2"
       id="path1208-3" />
    <path
       d="m 122.93619,28.614799 c -0.13863,0 -0.25129,0.115936 -0.25129,0.258889 0,0.142953 0.11266,0.258889 0.25129,0.258889 0.13888,0 0.25128,-0.115936 0.25128,-0.258889 0,-0.142953 -0.1124,-0.258889 -0.25128,-0.258889"
       style="fill:#f5a7b7;fill-opacity:1;fill-rule:nonzero;stroke:none;stroke-width:0.013115;opacity:0.2"
       id="path1210-1" />
    <path
       d="m 122.93619,26.543815 c -0.13863,0 -0.25129,0.115936 -0.25129,0.258889 0,0.142954 0.11266,0.25889 0.25129,0.25889 0.13888,0 0.25128,-0.115936 0.25128,-0.25889 0,-0.142953 -0.1124,-0.258889 -0.25128,-0.258889"
       style="fill:#f5a7b7;fill-opacity:1;fill-rule:nonzero;stroke:none;stroke-width:0.013115;opacity:0.2"
       id="path1212-9" />
    <path
       d="m 124.6747,36.898602 c -0.13888,0 -0.25128,0.115936 -0.25128,0.258889 0,0.142953 0.1124,0.25889 0.25128,0.25889 0.13876,0 0.25129,-0.115937 0.25129,-0.25889 0,-0.142953 -0.11253,-0.258889 -0.25129,-0.258889"
       style="fill:#f5a7b7;fill-opacity:1;fill-rule:nonzero;stroke:none;stroke-width:0.013115;opacity:0.2"
       id="path1214-4" />
    <path
       d="m 124.6747,34.827618 c -0.13888,0 -0.25128,0.115936 -0.25128,0.258889 0,0.142954 0.1124,0.25889 0.25128,0.25889 0.13876,0 0.25129,-0.115936 0.25129,-0.25889 0,-0.142953 -0.11253,-0.258889 -0.25129,-0.258889"
       style="fill:#f5a7b7;fill-opacity:1;fill-rule:nonzero;stroke:none;stroke-width:0.013115;opacity:0.2"
       id="path1216-7" />
    <path
       d="m 124.6747,32.756635 c -0.13888,0 -0.25128,0.115936 -0.25128,0.258889 0,0.142953 0.1124,0.258889 0.25128,0.258889 0.13876,0 0.25129,-0.115936 0.25129,-0.258889 0,-0.142953 -0.11253,-0.258889 -0.25129,-0.258889"
       style="fill:#f5a7b7;fill-opacity:1;fill-rule:nonzero;stroke:none;stroke-width:0.013115;opacity:0.2"
       id="path1218-8" />
    <path
       d="m 124.6747,30.685651 c -0.13888,0 -0.25128,0.115936 -0.25128,0.259021 0,0.142822 0.1124,0.258758 0.25128,0.258758 0.13876,0 0.25129,-0.115936 0.25129,-0.258758 0,-0.143085 -0.11253,-0.259021 -0.25129,-0.259021"
       style="fill:#f5a7b7;fill-opacity:1;fill-rule:nonzero;stroke:none;stroke-width:0.013115;opacity:0.2"
       id="path1220-4" />
    <path
       d="m 124.6747,28.614799 c -0.13888,0 -0.25128,0.115936 -0.25128,0.258889 0,0.142953 0.1124,0.258889 0.25128,0.258889 0.13876,0 0.25129,-0.115936 0.25129,-0.258889 0,-0.142953 -0.11253,-0.258889 -0.25129,-0.258889"
       style="fill:#f5a7b7;fill-opacity:1;fill-rule:nonzero;stroke:none;stroke-width:0.013115;opacity:0.2"
       id="path1222-5" />
    <path
       d="m 124.6747,26.543815 c -0.13888,0 -0.25128,0.115936 -0.25128,0.258889 0,0.142954 0.1124,0.25889 0.25128,0.25889 0.13876,0 0.25129,-0.115936 0.25129,-0.25889 0,-0.142953 -0.11253,-0.258889 -0.25129,-0.258889"
       style="fill:#f5a7b7;fill-opacity:1;fill-rule:nonzero;stroke:none;stroke-width:0.013115;opacity:0.2"
       id="path1224-0" />
    <path
       d="m 126.411,36.898602 c -0.13876,0 -0.25129,0.115936 -0.25129,0.258889 0,0.142953 0.11253,0.25889 0.25129,0.25889 0.13888,0 0.25128,-0.115937 0.25128,-0.25889 0,-0.142953 -0.1124,-0.258889 -0.25128,-0.258889"
       style="fill:#f5a7b7;fill-opacity:1;fill-rule:nonzero;stroke:none;stroke-width:0.013115;opacity:0.2"
       id="path1226-3" />
    <path
       d="m 126.411,34.827618 c -0.13876,0 -0.25129,0.115936 -0.25129,0.258889 0,0.142954 0.11253,0.25889 0.25129,0.25889 0.13888,0 0.25128,-0.115936 0.25128,-0.25889 0,-0.142953 -0.1124,-0.258889 -0.25128,-0.258889"
       style="fill:#f5a7b7;fill-opacity:1;fill-rule:nonzero;stroke:none;stroke-width:0.013115;opacity:0.2"
       id="path1228-6" />
    <path
       d="m 126.411,32.756635 c -0.13876,0 -0.25129,0.115936 -0.25129,0.258889 0,0.142953 0.11253,0.258889 0.25129,0.258889 0.13888,0 0.25128,-0.115936 0.25128,-0.258889 0,-0.142953 -0.1124,-0.258889 -0.25128,-0.258889"
       style="fill:#f5a7b7;fill-opacity:1;fill-rule:nonzero;stroke:none;stroke-width:0.013115;opacity:0.2"
       id="path1230-1" />
    <path
       d="m 126.411,30.685651 c -0.13876,0 -0.25129,0.115936 -0.25129,0.259021 0,0.142822 0.11253,0.258758 0.25129,0.258758 0.13888,0 0.25128,-0.115936 0.25128,-0.258758 0,-0.143085 -0.1124,-0.259021 -0.25128,-0.259021"
       style="fill:#f5a7b7;fill-opacity:1;fill-rule:nonzero;stroke:none;stroke-width:0.013115;opacity:0.2"
       id="path1232-0" />
    <path
       d="m 126.411,28.614799 c -0.13876,0 -0.25129,0.115936 -0.25129,0.258889 0,0.142953 0.11253,0.258889 0.25129,0.258889 0.13888,0 0.25128,-0.115936 0.25128,-0.258889 0,-0.142953 -0.1124,-0.258889 -0.25128,-0.258889"
       style="fill:#f5a7b7;fill-opacity:1;fill-rule:nonzero;stroke:none;stroke-width:0.013115;opacity:0.2"
       id="path1234-6" />
    <path
       d="m 126.411,26.543815 c -0.13876,0 -0.25129,0.115936 -0.25129,0.258889 0,0.142954 0.11253,0.25889 0.25129,0.25889 0.13888,0 0.25128,-0.115936 0.25128,-0.25889 0,-0.142953 -0.1124,-0.258889 -0.25128,-0.258889"
       style="fill:#f5a7b7;fill-opacity:1;fill-rule:nonzero;stroke:none;stroke-width:0.013115;opacity:0.2"
       id="path1236-3" />
    <path
       d="m 128.14938,36.898602 c -0.13862,0 -0.25128,0.115936 -0.25128,0.258889 0,0.142953 0.11266,0.25889 0.25128,0.25889 0.13889,0 0.25129,-0.115937 0.25129,-0.25889 0,-0.142953 -0.1124,-0.258889 -0.25129,-0.258889"
       style="fill:#f5a7b7;fill-opacity:1;fill-rule:nonzero;stroke:none;stroke-width:0.013115;opacity:0.2"
       id="path1238-2" />
    <path
       d="m 128.14938,34.827618 c -0.13862,0 -0.25128,0.115936 -0.25128,0.258889 0,0.142954 0.11266,0.25889 0.25128,0.25889 0.13889,0 0.25129,-0.115936 0.25129,-0.25889 0,-0.142953 -0.1124,-0.258889 -0.25129,-0.258889"
       style="fill:#f5a7b7;fill-opacity:1;fill-rule:nonzero;stroke:none;stroke-width:0.013115;opacity:0.2"
       id="path1240-0" />
    <path
       d="m 128.14938,32.756635 c -0.13862,0 -0.25128,0.115936 -0.25128,0.258889 0,0.142953 0.11266,0.258889 0.25128,0.258889 0.13889,0 0.25129,-0.115936 0.25129,-0.258889 0,-0.142953 -0.1124,-0.258889 -0.25129,-0.258889"
       style="fill:#f5a7b7;fill-opacity:1;fill-rule:nonzero;stroke:none;stroke-width:0.013115;opacity:0.2"
       id="path1242-6" />
    <path
       d="m 128.14938,30.685651 c -0.13862,0 -0.25128,0.115936 -0.25128,0.259021 0,0.142822 0.11266,0.258758 0.25128,0.258758 0.13889,0 0.25129,-0.115936 0.25129,-0.258758 0,-0.143085 -0.1124,-0.259021 -0.25129,-0.259021"
       style="fill:#f5a7b7;fill-opacity:1;fill-rule:nonzero;stroke:none;stroke-width:0.013115;opacity:0.2"
       id="path1244-1" />
    <path
       d="m 128.14938,28.614799 c -0.13862,0 -0.25128,0.115936 -0.25128,0.258889 0,0.142953 0.11266,0.258889 0.25128,0.258889 0.13889,0 0.25129,-0.115936 0.25129,-0.258889 0,-0.142953 -0.1124,-0.258889 -0.25129,-0.258889"
       style="fill:#f5a7b7;fill-opacity:1;fill-rule:nonzero;stroke:none;stroke-width:0.013115;opacity:0.2"
       id="path1246-5" />
    <path
       d="m 128.14938,26.543815 c -0.13862,0 -0.25128,0.115936 -0.25128,0.258889 0,0.142954 0.11266,0.25889 0.25128,0.25889 0.13889,0 0.25129,-0.115936 0.25129,-0.25889 0,-0.142953 -0.1124,-0.258889 -0.25129,-0.258889"
       style="fill:#f5a7b7;fill-opacity:1;fill-rule:nonzero;stroke:none;stroke-width:0.013115;opacity:0.2"
       id="path1248-5" />
    <path
       d="m 89.217121,14.745127 h -0.95608 v 0.957392 h -0.773784 v -0.957392 h -0.95608 v -0.772471 h 0.95608 v -0.956081 h 0.773784 v 0.956081 h 0.95608 v 0.772471"
       style="fill:#fef3e8;fill-opacity:1;fill-rule:nonzero;stroke:none;stroke-width:0.013115;opacity:0.2"
       id="path1250" />
    <path
       d="m 91.289285,14.745127 h -0.957393 v -0.772471 h 0.957393 v -0.956081 h 0.773784 v 0.956081 h 0.95608 v 0.772471 h -0.95608 v 0.957392 h -0.773784 v -0.957392"
       style="fill:#fef3e8;fill-opacity:1;fill-rule:nonzero;stroke:none;stroke-width:0.013115;opacity:0.2"
       id="path1252" />
    <path
       d="m 93.963426,17.069098 h 0.956081 v 0.773783 h -0.956081 v 0.957392 h -0.773783 v -0.957392 h -0.95608 v -0.773783 h 0.95608 v -0.956081 h 0.773783 v 0.956081"
       style="fill:#fef3e8;fill-opacity:1;fill-rule:nonzero;stroke:none;stroke-width:0.013115;opacity:0.2"
       id="path1254" />
    <path
       d="m 96.821177,13.972656 v 0.772471 h -0.957393 v 0.957392 H 95.090001 V 14.745127 H 94.13392 v -0.772471 h 0.956081 v -0.956081 h 0.773783 v 0.956081 h 0.957393"
       style="fill:#fef3e8;fill-opacity:1;fill-rule:nonzero;stroke:none;stroke-width:0.013115;opacity:0.2"
       id="path1256" />
    <path
       d="m 91.118791,17.842881 h -0.957393 v 0.957392 h -0.773783 v -0.957392 h -0.95608 v -0.773783 h 0.95608 v -0.956081 h 0.773783 v 0.956081 h 0.957393 v 0.773783"
       style="fill:#fef3e8;fill-opacity:1;fill-rule:nonzero;stroke:none;stroke-width:0.013115;opacity:0.2"
       id="path1258" />
    <path
       d="m 92.063069,19.895372 h 0.95608 v 0.773783 h -0.95608 v 0.957392 h -0.773784 v -0.957392 h -0.957393 v -0.773783 h 0.957393 v -0.956081 h 0.773784 v 0.956081"
       style="fill:#fef3e8;fill-opacity:1;fill-rule:nonzero;stroke:none;stroke-width:0.013115;opacity:0.2"
       id="path1260" />
    <path
       d="m 82.900497,60.175247 c 0,2.738536 -2.21996,4.958374 -4.95837,4.958374 -2.73854,0 -4.95837,-2.219838 -4.95837,-4.958374 0,-2.738404 2.21983,-4.958242 4.95837,-4.958242 2.73841,0 4.95837,2.219838 4.95837,4.958242"
       style="fill:#acdde0;fill-opacity:1;fill-rule:nonzero;stroke:none;stroke-width:0.013115;opacity:0.2"
       id="path1018-3" />
    <path
       d="m 90.410127,46.003614 c -0.44853,2.213805 -1.69589,4.192853 -3.46641,5.589596 -0.83543,0.658371 -1.77315,1.184281 -2.775,1.544942 -1.14244,0.410499 -2.33184,0.553452 -3.54104,0.579682 -1.39032,0.02885 -2.79362,-0.06295 -4.17331,0.162625 -1.27333,0.208528 -2.44463,0.739684 -3.54366,1.400678 -2.16004,1.301004 -4.1063,3.063655 -6.59683,3.720715 -1.1751,0.309513 -2.40122,0.309513 -3.55284,-0.09705 -1.09497,-0.386891 -2.060363,-1.070181 -2.924507,-1.836095 -1.847898,-1.63937 -3.282806,-3.782354 -5.490054,-4.988931 -2.060361,-1.126575 -4.564007,-1.396743 -6.238787,-3.176444 -1.152806,-1.226249 -1.750848,-2.862996 -1.914785,-4.52335 -0.02872,-0.14033 -0.05508,-0.281972 -0.07738,-0.424925 -0.388203,-2.519384 0.21902,-5.114835 1.277397,-7.400773 0.982311,-2.122001 2.45381,-4.086622 4.459087,-5.333855 1.986917,-1.238052 4.463022,-1.737732 6.727975,-1.032147 2.06823,0.643945 3.745634,2.093148 5.487304,3.318085 0.89575,0.629519 1.82835,1.224938 2.85001,1.63019 1.11333,0.441974 2.30548,0.616403 3.50025,0.598042 2.49053,-0.03803 4.89582,-0.80657 7.33258,-1.231495 1.18965,-0.207216 2.40004,-0.340989 3.60923,-0.268856 1.10442,0.06689 2.18771,0.320005 3.20661,0.748864 1.98692,0.836734 3.71022,2.317414 4.7804,4.194165 1.16855,2.047246 1.52921,4.522039 1.06376,6.826338"
       style="fill:#acdde0;fill-opacity:1;fill-rule:nonzero;stroke:none;stroke-width:0.013115;opacity:0.2"
       id="path1054-6" />
    <path
       d="m 52.126244,41.555543 c 0,3.040573 -2.464826,5.505399 -5.505399,5.505399 -3.040572,0 -5.505529,-2.464826 -5.505529,-5.505399 0,-3.040573 2.464957,-5.505399 5.505529,-5.505399 3.040573,0 5.505399,2.464826 5.505399,5.505399"
       style="fill:#fad0cf;fill-opacity:1;fill-rule:nonzero;stroke:none;stroke-width:0.013115;opacity:0.2"
       id="path1056-7" />
    <path
       d="m 73.025327,44.340112 h -0.95608 v 0.957392 h -0.77378 v -0.957392 h -0.95608 v -0.772471 h 0.95608 V 42.61156 h 0.77378 v 0.956081 h 0.95608 v 0.772471"
       style="fill:#fef3e8;fill-opacity:1;fill-rule:nonzero;stroke:none;stroke-width:0.013115;opacity:0.2"
       id="path1250-5" />
    <path
       d="m 75.097497,44.340112 h -0.9574 v -0.772471 h 0.9574 V 42.61156 h 0.77378 v 0.956081 h 0.95608 v 0.772471 h -0.95608 v 0.957392 h -0.77378 v -0.957392"
       style="fill:#fef3e8;fill-opacity:1;fill-rule:nonzero;stroke:none;stroke-width:0.013115;opacity:0.2"
       id="path1252-3" />
    <path
       d="m 77.771637,46.664083 h 0.95608 v 0.773783 h -0.95608 v 0.957392 h -0.77379 v -0.957392 h -0.95608 v -0.773783 h 0.95608 v -0.956081 h 0.77379 v 0.956081"
       style="fill:#fef3e8;fill-opacity:1;fill-rule:nonzero;stroke:none;stroke-width:0.013115;opacity:0.2"
       id="path1254-5" />
    <path
       d="m 80.629387,43.567641 v 0.772471 h -0.95739 v 0.957392 h -0.77379 v -0.957392 h -0.95608 v -0.772471 h 0.95608 V 42.61156 h 0.77378 v 0.956081 h 0.9574"
       style="fill:#fef3e8;fill-opacity:1;fill-rule:nonzero;stroke:none;stroke-width:0.013115;opacity:0.2"
       id="path1256-6" />
    <path
       d="m 74.926997,47.437866 h -0.95739 v 0.957392 h -0.77378 v -0.957392 h -0.95608 v -0.773783 h 0.95608 v -0.956081 h 0.77378 v 0.956081 h 0.95739 v 0.773783"
       style="fill:#fef3e8;fill-opacity:1;fill-rule:nonzero;stroke:none;stroke-width:0.013115;opacity:0.2"
       id="path1258-2" />
    <path
       d="m 75.871277,49.490357 h 0.95608 v 0.773783 h -0.95608 v 0.957392 h -0.77378 V 50.26414 h -0.9574 v -0.773783 h 0.9574 v -0.956081 h 0.77378 v 0.956081"
       style="fill:#fef3e8;fill-opacity:1;fill-rule:nonzero;stroke:none;stroke-width:0.013115;opacity:0.2"
       id="path1260-9" />
    <path
       d="m 189.51887,12.680921 h 0.95612 v 0.957393 h 0.77378 v -0.957393 h 0.95605 v -0.772445 h -0.95605 v -0.956118 h -0.77378 v 0.956118 h -0.95612 v 0.772445"
       style="fill:#f5a7b7;fill-opacity:1;fill-rule:nonzero;stroke:none;stroke-width:0.013115;opacity:0.2"
       id="path1262" />
    <path
       d="m 187.44676,12.680921 h 0.95734 v -0.772445 h -0.95734 v -0.956118 h -0.77384 v 0.956118 h -0.956 v 0.772445 h 0.956 v 0.957393 h 0.77384 v -0.957393"
       style="fill:#f5a7b7;fill-opacity:1;fill-rule:nonzero;stroke:none;stroke-width:0.013115;opacity:0.2"
       id="path1264" />
    <path
       d="m 184.77259,15.004774 h -0.95611 v 0.773914 h 0.95611 v 0.957393 h 0.77378 v -0.957393 h 0.95606 v -0.773914 h -0.95606 v -0.95608 h -0.77378 v 0.95608"
       style="fill:#f5a7b7;fill-opacity:1;fill-rule:nonzero;stroke:none;stroke-width:0.013115;opacity:0.2"
       id="path1266" />
    <path
       d="m 181.91481,11.908476 v 0.772445 h 0.9574 v 0.957393 h 0.77382 v -0.957393 h 0.95612 v -0.772445 h -0.95612 v -0.956118 h -0.77382 v 0.956118 h -0.9574"
       style="fill:#f5a7b7;fill-opacity:1;fill-rule:nonzero;stroke:none;stroke-width:0.013115;opacity:0.2"
       id="path1268" />
    <path
       d="m 187.6172,15.778688 h 0.95739 v 0.957393 h 0.77384 v -0.957393 h 0.95606 v -0.773914 h -0.95606 v -0.95608 h -0.77384 v 0.95608 h -0.95739 v 0.773914"
       style="fill:#f5a7b7;fill-opacity:1;fill-rule:nonzero;stroke:none;stroke-width:0.013115;opacity:0.2"
       id="path1270" />
    <path
       d="m 186.67292,17.831049 h -0.956 v 0.773914 h 0.956 v 0.957261 h 0.77384 v -0.957261 h 0.95734 v -0.773914 h -0.95734 v -0.956081 h -0.77384 v 0.956081"
       style="fill:#f5a7b7;fill-opacity:1;fill-rule:nonzero;stroke:none;stroke-width:0.013115;opacity:0.2"
       id="path1272" />
  </g>
</svg>
